<?xml version="1.0" encoding="UTF-8"?>
<svg xmlns="http://www.w3.org/2000/svg" xmlns:xlink="http://www.w3.org/1999/xlink" width="256px" height="256px" viewBox="0 0 256 256" version="1.1">
<defs>
<linearGradient id="linear0" gradientUnits="userSpaceOnUse" x1="61.631" y1="563.347" x2="62.022" y2="563.347" gradientTransform="matrix(0,256.569183,256.569183,0,-144422.34375,-15725.217621)">
<stop offset="0" style="stop-color:rgb(3.529412%,58.039216%,86.27451%);stop-opacity:1;"/>
<stop offset="0.35" style="stop-color:rgb(40%,80.784314%,96.078431%);stop-opacity:1;"/>
<stop offset="0.35" style="stop-color:rgb(40%,80.784314%,96.078431%);stop-opacity:1;"/>
<stop offset="0.846" style="stop-color:rgb(7.058824%,48.235294%,79.215686%);stop-opacity:1;"/>
<stop offset="0.846" style="stop-color:rgb(7.058824%,48.235294%,79.215686%);stop-opacity:1;"/>
<stop offset="1" style="stop-color:rgb(7.058824%,48.235294%,79.215686%);stop-opacity:1;"/>
</linearGradient>
<linearGradient id="linear1" gradientUnits="userSpaceOnUse" x1="61.705" y1="563.34" x2="62.095" y2="563.34" gradientTransform="matrix(0,263.107849,263.107849,0,-148100.265625,-16150.085785)">
<stop offset="0" style="stop-color:rgb(5.490196%,46.27451%,73.72549%);stop-opacity:1;"/>
<stop offset="0.36" style="stop-color:rgb(21.176471%,68.235294%,90.980392%);stop-opacity:1;"/>
<stop offset="0.36" style="stop-color:rgb(21.176471%,68.235294%,90.980392%);stop-opacity:1;"/>
<stop offset="0.846" style="stop-color:rgb(0%,67.843137%,93.72549%);stop-opacity:1;"/>
<stop offset="0.846" style="stop-color:rgb(0%,67.843137%,93.72549%);stop-opacity:1;"/>
<stop offset="1" style="stop-color:rgb(0%,67.843137%,93.72549%);stop-opacity:1;"/>
</linearGradient>
<linearGradient id="linear2" gradientUnits="userSpaceOnUse" x1="67.486" y1="564.985" x2="67.876" y2="564.985" gradientTransform="matrix(0,-209.350601,-209.350601,0,118419.171875,14293.483551)">
<stop offset="0" style="stop-color:rgb(10.980392%,38.823529%,71.764706%);stop-opacity:1;"/>
<stop offset="0.5" style="stop-color:rgb(20%,74.117647%,94.901961%);stop-opacity:1;"/>
<stop offset="1" style="stop-color:rgb(20%,74.117647%,94.901961%);stop-opacity:0.419608;"/>
</linearGradient>
<linearGradient id="linear3" gradientUnits="userSpaceOnUse" x1="61.852" y1="563.281" x2="62.243" y2="563.281" gradientTransform="matrix(0,273.172913,273.172913,0,-153739.390625,-16822.025238)">
<stop offset="0" style="stop-color:rgb(8.627451%,41.568627%,72.156863%);stop-opacity:1;"/>
<stop offset="0.4" style="stop-color:rgb(21.176471%,68.235294%,90.980392%);stop-opacity:1;"/>
<stop offset="0.4" style="stop-color:rgb(21.176471%,68.235294%,90.980392%);stop-opacity:1;"/>
<stop offset="0.846" style="stop-color:rgb(2.745098%,59.607843%,86.666667%);stop-opacity:1;"/>
<stop offset="0.846" style="stop-color:rgb(2.745098%,59.607843%,86.666667%);stop-opacity:1;"/>
<stop offset="1" style="stop-color:rgb(2.745098%,59.607843%,86.666667%);stop-opacity:1;"/>
</linearGradient>
<linearGradient id="linear4" gradientUnits="userSpaceOnUse" x1="61.975" y1="563.367" x2="62.366" y2="563.367" gradientTransform="matrix(0,290.484283,290.484283,0,-163523.40625,-17927.66391)">
<stop offset="0" style="stop-color:rgb(7.058824%,26.27451%,47.45098%);stop-opacity:1;"/>
<stop offset="0.39" style="stop-color:rgb(7.843137%,52.941176%,79.607843%);stop-opacity:1;"/>
<stop offset="0.39" style="stop-color:rgb(7.843137%,52.941176%,79.607843%);stop-opacity:1;"/>
<stop offset="0.78" style="stop-color:rgb(8.627451%,31.764706%,59.215686%);stop-opacity:1;"/>
<stop offset="0.78" style="stop-color:rgb(8.627451%,31.764706%,59.215686%);stop-opacity:1;"/>
<stop offset="1" style="stop-color:rgb(8.627451%,31.764706%,59.215686%);stop-opacity:1;"/>
</linearGradient>
<linearGradient id="linear5" gradientUnits="userSpaceOnUse" x1="1006.454" y1="-1412.08" x2="1008.771" y2="-1412.08" gradientTransform="matrix(6.919067,0,0,-6.919067,-6884.677734,-9661.643402)">
<stop offset="0" style="stop-color:rgb(20%,74.117647%,94.901961%);stop-opacity:0.698039;"/>
<stop offset="1" style="stop-color:rgb(11.372549%,67.45098%,84.705882%);stop-opacity:1;"/>
</linearGradient>
<linearGradient id="linear6" gradientUnits="userSpaceOnUse" x1="67.564" y1="565.48" x2="67.954" y2="565.48" gradientTransform="matrix(0,-203.935959,-203.935959,0,115522.15625,13941.857574)">
<stop offset="0" style="stop-color:rgb(7.45098%,41.568627%,70.588235%);stop-opacity:1;"/>
<stop offset="0.6" style="stop-color:rgb(34.901961%,79.215686%,96.078431%);stop-opacity:0.54902;"/>
<stop offset="1" style="stop-color:rgb(34.901961%,79.215686%,96.078431%);stop-opacity:0.235294;"/>
</linearGradient>
<linearGradient id="linear7" gradientUnits="userSpaceOnUse" x1="998.231" y1="-1414.829" x2="1006.826" y2="-1414.829" gradientTransform="matrix(6.919067,0,0,-6.919067,-6884.677734,-9661.643402)">
<stop offset="0" style="stop-color:rgb(1.960784%,63.137255%,90.196078%);stop-opacity:0.247059;"/>
<stop offset="1" style="stop-color:rgb(1.960784%,63.137255%,90.196078%);stop-opacity:1;"/>
</linearGradient>
<linearGradient id="linear8" gradientUnits="userSpaceOnUse" x1="67.491" y1="564.359" x2="67.881" y2="564.359" gradientTransform="matrix(0,-208.81427,-208.81427,0,117902.476563,14258.263824)">
<stop offset="0" style="stop-color:rgb(19.215686%,55.686275%,83.529412%);stop-opacity:1;"/>
<stop offset="1" style="stop-color:rgb(21.960784%,65.490196%,89.411765%);stop-opacity:1;"/>
</linearGradient>
<linearGradient id="linear9" gradientUnits="userSpaceOnUse" x1="67.593" y1="564.41" x2="67.984" y2="564.41" gradientTransform="matrix(0,-202.979843,-202.979843,0,114624.507813,13885.629059)">
<stop offset="0" style="stop-color:rgb(1.960784%,63.137255%,90.196078%);stop-opacity:1;"/>
<stop offset="1" style="stop-color:rgb(1.960784%,63.137255%,90.196078%);stop-opacity:0.54902;"/>
</linearGradient>
<linearGradient id="linear10" gradientUnits="userSpaceOnUse" x1="68.291" y1="564.525" x2="68.682" y2="564.525" gradientTransform="matrix(0,-171.520187,-171.520187,0,96893.070313,11883.047028)">
<stop offset="0" style="stop-color:rgb(9.803922%,34.901961%,65.098039%);stop-opacity:1;"/>
<stop offset="0.5" style="stop-color:rgb(1.960784%,63.137255%,90.196078%);stop-opacity:1;"/>
<stop offset="0.5" style="stop-color:rgb(1.960784%,63.137255%,90.196078%);stop-opacity:1;"/>
<stop offset="0.918" style="stop-color:rgb(49.411765%,77.254902%,91.764706%);stop-opacity:1;"/>
<stop offset="1" style="stop-color:rgb(49.411765%,77.254902%,91.764706%);stop-opacity:1;"/>
</linearGradient>
<linearGradient id="linear11" gradientUnits="userSpaceOnUse" x1="67.892" y1="563.82" x2="68.282" y2="563.82" gradientTransform="matrix(-32.792637,-185.976288,-185.976288,32.792637,107151.15625,-5697.517914)">
<stop offset="0" style="stop-color:rgb(8.627451%,31.372549%,58.823529%);stop-opacity:1;"/>
<stop offset="1" style="stop-color:rgb(5.098039%,50.980392%,79.215686%);stop-opacity:1;"/>
</linearGradient>
<linearGradient id="linear12" gradientUnits="userSpaceOnUse" x1="70.847" y1="566.882" x2="71.237" y2="566.882" gradientTransform="matrix(0,-97.190781,-97.190781,0,55281.984375,7009.853668)">
<stop offset="0" style="stop-color:rgb(1.960784%,63.137255%,90.196078%);stop-opacity:1;"/>
<stop offset="0.874" style="stop-color:rgb(1.568627%,58.431373%,83.921569%);stop-opacity:1;"/>
<stop offset="1" style="stop-color:rgb(1.568627%,58.431373%,83.921569%);stop-opacity:1;"/>
</linearGradient>
<linearGradient id="linear13" gradientUnits="userSpaceOnUse" x1="61.634" y1="562.213" x2="62.024" y2="562.213" gradientTransform="matrix(-39.517735,224.116196,224.116196,39.517735,-123360.632813,-35947.636566)">
<stop offset="0" style="stop-color:rgb(21.960784%,65.490196%,89.411765%);stop-opacity:0.329412;"/>
<stop offset="0.962" style="stop-color:rgb(5.490196%,53.333333%,82.745098%);stop-opacity:1;"/>
<stop offset="0.962" style="stop-color:rgb(5.490196%,53.333333%,82.745098%);stop-opacity:1;"/>
<stop offset="1" style="stop-color:rgb(5.490196%,53.333333%,82.745098%);stop-opacity:1;"/>
</linearGradient>
<linearGradient id="linear14" gradientUnits="userSpaceOnUse" x1="61.149" y1="562.654" x2="61.539" y2="562.654" gradientTransform="matrix(0,212.030487,212.030487,0,-119109.59375,-12879.41391)">
<stop offset="0" style="stop-color:rgb(8.627451%,54.901961%,83.137255%);stop-opacity:1;"/>
<stop offset="0.5" style="stop-color:rgb(10.980392%,52.941176%,80%);stop-opacity:1;"/>
<stop offset="1" style="stop-color:rgb(8.235294%,29.411765%,55.294118%);stop-opacity:1;"/>
</linearGradient>
<linearGradient id="linear15" gradientUnits="userSpaceOnUse" x1="1806.96" y1="336.158" x2="1807.35" y2="336.158" gradientTransform="matrix(246.538498,102.255728,-102.255728,246.538498,-411032.748481,-267569.928656)">
<stop offset="0" style="stop-color:rgb(59.215686%,83.921569%,93.333333%);stop-opacity:1;"/>
<stop offset="0.703" style="stop-color:rgb(33.333333%,75.686275%,91.764706%);stop-opacity:1;"/>
<stop offset="1" style="stop-color:rgb(33.333333%,75.686275%,91.764706%);stop-opacity:1;"/>
</linearGradient>
<linearGradient id="linear16" gradientUnits="userSpaceOnUse" x1="1808.848" y1="335.171" x2="1809.238" y2="335.171" gradientTransform="matrix(194.722164,-88.26843,88.26843,194.722164,-381703.301146,94499.49181)">
<stop offset="0" style="stop-color:rgb(47.843137%,80%,92.54902%);stop-opacity:1;"/>
<stop offset="1" style="stop-color:rgb(24.705882%,71.764706%,92.941176%);stop-opacity:1;"/>
</linearGradient>
<linearGradient id="linear17" gradientUnits="userSpaceOnUse" x1="61.049" y1="562.706" x2="61.439" y2="562.706" gradientTransform="matrix(0,207.386932,207.386932,0,-116518.945313,-12570.230316)">
<stop offset="0" style="stop-color:rgb(11.372549%,65.490196%,90.588235%);stop-opacity:1;"/>
<stop offset="1" style="stop-color:rgb(21.568627%,67.058824%,90.588235%);stop-opacity:0;"/>
</linearGradient>
</defs>
<g id="surface1">
<path style=" stroke:none;fill-rule:nonzero;fill:rgb(14.117647%,16.078431%,21.960784%);fill-opacity:1;" d="M 60 0 L 196 0 C 229.136719 0 256 26.863281 256 60 L 256 196 C 256 229.136719 229.136719 256 196 256 L 60 256 C 26.863281 256 0 229.136719 0 196 L 0 60 C 0 26.863281 26.863281 0 60 0 Z M 60 0 "/>
<path style=" stroke:none;fill-rule:nonzero;fill:url(#linear0);" d="M 95.9375 103.257812 C 103.507812 126.402344 106.371094 167.683594 128.503906 167.683594 C 130.1875 167.683594 131.890625 167.519531 133.601562 167.195312 C 113.484375 162.503906 111.097656 121.671875 98.820312 100.519531 C 97.84375 101.414062 96.882812 102.324219 95.9375 103.257812 "/>
<path style=" stroke:none;fill-rule:nonzero;fill:url(#linear1);" d="M 98.820312 100.519531 C 111.097656 121.667969 113.484375 162.503906 133.601562 167.195312 C 135.214844 166.890625 136.804688 166.460938 138.351562 165.910156 C 120.292969 157.0625 115.304688 117.410156 101.359375 98.320312 C 100.519531 99.023438 99.671875 99.757812 98.820312 100.519531 "/>
<path style=" stroke:none;fill-rule:nonzero;fill:rgb(7.843137%,33.333333%,60.392157%);fill-opacity:1;" d="M 116.511719 87.945312 C 114.832031 87.945312 113.121094 88.109375 111.410156 88.433594 C 106.933594 89.28125 102.382812 91.207031 97.796875 94.125 C 99.046875 95.363281 100.242188 96.777344 101.363281 98.320312 C 106.027344 94.449219 110.660156 91.589844 115.277344 89.867188 C 116.964844 89.238281 118.699219 88.757812 120.46875 88.425781 C 119.171875 88.101562 117.84375 87.941406 116.511719 87.945312 "/>
<path style=" stroke:none;fill-rule:nonzero;fill:url(#linear2);" d="M 152.449219 157.757812 C 154.371094 156.21875 156.226562 154.597656 158 152.890625 C 150.308594 129.855469 147.558594 87.980469 125.269531 87.980469 C 123.679688 87.980469 122.070312 88.128906 120.46875 88.425781 C 140.765625 93.472656 143.367188 137.640625 152.449219 157.757812 "/>
<path style=" stroke:none;fill-rule:nonzero;fill:rgb(18.823529%,57.254902%,76.862745%);fill-opacity:1;" d="M 120.46875 88.425781 C 119.175781 88.101562 117.84375 87.9375 116.507812 87.941406 L 125.269531 87.976562 C 123.679688 87.976562 122.070312 88.121094 120.46875 88.425781 "/>
<path style=" stroke:none;fill-rule:nonzero;fill:rgb(9.803922%,41.176471%,73.72549%);fill-opacity:1;" d="M 152.058594 162.648438 C 151.171875 161.789062 150.332031 160.886719 149.546875 159.933594 C 145.796875 162.589844 142.0625 164.601562 138.351562 165.914062 C 139.671875 166.558594 141.054688 167.039062 142.527344 167.335938 C 143.664062 167.566406 144.84375 167.6875 146.082031 167.6875 C 150.246094 167.6875 153.539062 167.195312 156.339844 165.851562 C 154.796875 165.015625 153.382812 163.933594 152.058594 162.648438 "/>
<path style=" stroke:none;fill-rule:nonzero;fill:url(#linear3);" d="M 115.273438 89.871094 C 133.457031 99.382812 135.039062 142.449219 149.546875 159.933594 C 150.519531 159.25 151.484375 158.523438 152.445312 157.757812 C 143.363281 137.640625 140.765625 93.46875 120.46875 88.425781 C 118.738281 88.746094 117.007812 89.226562 115.273438 89.871094 "/>
<path style=" stroke:none;fill-rule:nonzero;fill:url(#linear4);" d="M 101.359375 98.320312 C 115.304688 117.410156 120.292969 157.066406 138.351562 165.914062 C 142.0625 164.601562 145.800781 162.589844 149.546875 159.933594 C 135.039062 142.449219 133.457031 99.382812 115.273438 89.871094 C 110.660156 91.589844 106.027344 94.449219 101.359375 98.320312 "/>
<path style=" stroke:none;fill-rule:nonzero;fill:url(#linear5);" d="M 87.019531 102.699219 C 84.835938 107.640625 82.601562 114.136719 79.90625 122.613281 C 85.269531 115.050781 90.617188 108.535156 95.9375 103.257812 C 95.269531 101.15625 94.476562 99.09375 93.570312 97.078125 C 91.285156 98.832031 89.101562 100.710938 87.019531 102.699219 "/>
<path style=" stroke:none;fill-rule:nonzero;fill:rgb(16.862745%,45.490196%,69.411765%);fill-opacity:1;" d="M 95.507812 95.652344 C 94.867188 96.109375 94.222656 96.582031 93.570312 97.078125 C 94.421875 98.929688 95.203125 101.003906 95.9375 103.257812 C 96.882812 102.328125 97.84375 101.414062 98.820312 100.523438 C 97.84375 98.816406 96.738281 97.1875 95.507812 95.652344 "/>
<path style=" stroke:none;fill-rule:nonzero;fill:rgb(7.058824%,35.294118%,61.960784%);fill-opacity:1;" d="M 97.796875 94.125 C 97.035156 94.605469 96.277344 95.117188 95.507812 95.648438 C 96.695312 97.113281 97.789062 98.753906 98.824219 100.523438 C 99.671875 99.757812 100.519531 99.015625 101.363281 98.316406 C 100.242188 96.777344 99.050781 95.359375 97.796875 94.125 "/>
<path style=" stroke:none;fill-rule:nonzero;fill:url(#linear6);" d="M 221.816406 86.183594 C 211.53125 125.839844 190.054688 157.691406 172.050781 165.722656 L 172.015625 165.722656 L 171.042969 166.136719 L 170.925781 166.183594 L 170.648438 166.289062 L 170.523438 166.34375 L 170.074219 166.5 L 169.890625 166.566406 L 169.664062 166.640625 L 169.449219 166.714844 L 169.257812 166.78125 L 168.871094 166.898438 L 168.707031 166.941406 L 168.449219 167.011719 L 168.273438 167.058594 L 167.988281 167.132812 L 167.644531 167.207031 C 168.460938 167.507812 169.308594 167.660156 170.222656 167.660156 C 187.296875 167.660156 204.511719 137.058594 233 86.171875 L 221.8125 86.171875 Z M 221.816406 86.183594 "/>
<path style=" stroke:none;fill-rule:nonzero;fill:url(#linear7);" d="M 76.195312 89.554688 L 76.226562 89.527344 L 76.265625 89.503906 L 76.289062 89.503906 L 76.566406 89.394531 L 76.621094 89.367188 L 76.691406 89.339844 L 76.988281 89.234375 L 77.003906 89.234375 L 77.660156 89.003906 L 77.757812 88.976562 L 78.039062 88.894531 L 78.167969 88.851562 L 78.449219 88.769531 L 78.558594 88.738281 L 79.496094 88.496094 L 79.625 88.46875 L 79.898438 88.414062 L 80.03125 88.371094 L 80.308594 88.320312 L 80.375 88.320312 L 80.945312 88.214844 L 81.058594 88.214844 L 81.320312 88.167969 L 81.472656 88.144531 L 81.722656 88.105469 L 81.863281 88.078125 L 82.476562 88.023438 C 81.871094 87.964844 81.265625 87.933594 80.65625 87.929688 C 61.425781 87.929688 34.933594 123.609375 23 169.816406 L 25.300781 169.816406 C 28.871094 163.4375 32.332031 157.003906 35.6875 150.511719 C 44.046875 117.78125 61.070312 95.464844 76.195312 89.550781 "/>
<path style=" stroke:none;fill-rule:nonzero;fill:rgb(5.098039%,50.980392%,79.215686%);fill-opacity:1;" d="M 87.019531 102.699219 C 89.101562 100.710938 91.289062 98.832031 93.570312 97.078125 C 93.105469 96.042969 92.585938 95.035156 92.007812 94.058594 C 90.25 96.195312 88.644531 99.011719 87.019531 102.699219 "/>
<path style=" stroke:none;fill-rule:nonzero;fill:rgb(5.098039%,50.980392%,79.215686%);fill-opacity:1;" d="M 88.597656 89.824219 C 89.855469 90.878906 90.980469 92.324219 92.007812 94.0625 C 92.332031 93.664062 92.660156 93.296875 93.003906 92.949219 C 91.625 91.640625 90.058594 90.546875 88.355469 89.699219 L 88.5625 89.796875 L 88.597656 89.824219 "/>
<path style=" stroke:none;fill-rule:nonzero;fill:url(#linear8);" d="M 35.691406 150.511719 C 53.222656 116.722656 61.53125 95.339844 76.195312 89.550781 C 61.074219 95.46875 44.046875 117.789062 35.691406 150.511719 "/>
<path style=" stroke:none;fill-rule:nonzero;fill:rgb(7.058824%,48.235294%,79.215686%);fill-opacity:1;" d="M 93 92.949219 C 92.660156 93.300781 92.335938 93.664062 92.007812 94.0625 C 92.558594 94.984375 93.070312 95.988281 93.570312 97.078125 C 94.21875 96.582031 94.867188 96.113281 95.507812 95.652344 C 94.738281 94.695312 93.898438 93.789062 93 92.949219 "/>
<path style=" stroke:none;fill-rule:nonzero;fill:url(#linear9);" d="M 43.652344 169.664062 L 43.332031 169.703125 L 43.273438 169.703125 L 43.003906 169.730469 L 42.957031 169.730469 L 42.3125 169.773438 L 42.246094 169.773438 C 59.992188 169.273438 68.105469 160.390625 72.128906 147.503906 C 75.1875 137.734375 77.699219 129.503906 79.902344 122.597656 C 72.46875 133.058594 65.003906 145.53125 57.496094 159.503906 C 53.878906 166.238281 48.371094 169.050781 43.652344 169.652344 "/>
<path style=" stroke:none;fill-rule:nonzero;fill:url(#linear10);" d="M 43.652344 169.65625 C 48.371094 169.054688 53.878906 166.246094 57.496094 159.507812 C 65.003906 145.542969 72.472656 133.066406 79.898438 122.601562 C 82.601562 114.121094 84.832031 107.632812 87.019531 102.691406 C 72.214844 116.78125 57.355469 140.210938 43.648438 169.648438 "/>
<path style=" stroke:none;fill-rule:nonzero;fill:rgb(1.960784%,63.137255%,90.196078%);fill-opacity:1;" d="M 35.691406 150.515625 C 32.332031 157.003906 28.871094 163.441406 25.300781 169.820312 L 31.992188 169.820312 C 32.835938 163.316406 34.070312 156.871094 35.6875 150.519531 "/>
<path style=" stroke:none;fill-rule:nonzero;fill:url(#linear11);" d="M 81.863281 88.09375 L 81.71875 88.121094 L 81.46875 88.15625 L 81.320312 88.179688 L 81.058594 88.226562 L 80.945312 88.253906 L 80.375 88.355469 L 80.308594 88.355469 L 80.03125 88.410156 L 79.894531 88.445312 L 79.625 88.5 L 79.496094 88.53125 L 78.554688 88.773438 L 78.449219 88.804688 L 78.164062 88.890625 L 78.035156 88.925781 L 77.757812 89.007812 L 77.652344 89.035156 L 77 89.265625 L 76.703125 89.367188 L 76.582031 89.421875 L 76.304688 89.523438 L 76.210938 89.566406 C 61.546875 95.355469 53.242188 116.738281 35.707031 150.527344 C 34.085938 156.878906 32.851562 163.324219 32.011719 169.828125 L 32.945312 169.828125 L 39.382812 169.800781 L 42.332031 169.800781 L 42.976562 169.757812 L 43.015625 169.757812 L 43.289062 169.730469 L 43.351562 169.730469 L 43.671875 169.691406 C 57.378906 140.25 72.238281 116.824219 87.039062 102.734375 C 88.664062 99.046875 90.273438 96.230469 92.027344 94.097656 C 90.996094 92.363281 89.875 90.910156 88.621094 89.855469 L 88.585938 89.828125 L 88.375 89.726562 L 88.167969 89.621094 L 87.96875 89.523438 L 87.730469 89.425781 L 87.542969 89.34375 L 87.15625 89.183594 L 86.988281 89.121094 L 86.699219 89.003906 L 86.542969 88.953125 L 86.140625 88.8125 L 86.109375 88.8125 L 85.640625 88.683594 L 85.535156 88.648438 L 85.144531 88.539062 L 85.054688 88.515625 C 84.730469 88.429688 84.40625 88.359375 84.078125 88.300781 L 83.976562 88.273438 L 83.554688 88.203125 L 83.472656 88.179688 L 82.96875 88.109375 L 82.882812 88.109375 L 82.496094 88.066406 L 81.882812 88.125 "/>
<path style=" stroke:none;fill-rule:nonzero;fill:url(#linear12);" d="M 181.652344 108.136719 C 178.277344 118.941406 175.546875 127.859375 173.167969 135.195312 C 182.425781 122.453125 191.542969 106.429688 200.226562 87.9375 C 190.09375 91.121094 184.691406 98.402344 181.652344 108.136719 "/>
<path style=" stroke:none;fill-rule:nonzero;fill:url(#linear13);" d="M 173.460938 165.046875 C 172.988281 165.289062 172.515625 165.515625 172.050781 165.722656 C 190.054688 157.691406 211.535156 125.839844 221.816406 86.183594 L 219.730469 86.183594 C 196.105469 128.386719 188.507812 156.640625 173.460938 165.046875 "/>
<path style=" stroke:none;fill-rule:nonzero;fill:rgb(2.745098%,60.392157%,88.235294%);fill-opacity:1;" d="M 161.703125 161.503906 C 165.621094 156.722656 168.808594 148.59375 173.167969 135.195312 C 168.140625 142.097656 163.082031 148.03125 158.019531 152.871094 L 157.992188 152.914062 C 159.097656 156.222656 160.308594 159.144531 161.691406 161.5 "/>
<path style=" stroke:none;fill-rule:nonzero;fill:rgb(9.803922%,41.176471%,73.72549%);fill-opacity:1;" d="M 161.703125 161.503906 C 160.367188 163.132812 158.953125 164.371094 157.386719 165.289062 C 157.042969 165.488281 156.691406 165.675781 156.339844 165.847656 C 158.046875 166.773438 159.910156 167.359375 161.835938 167.582031 L 162.730469 167.660156 L 162.785156 167.660156 L 163.214844 167.6875 L 164.683594 167.6875 L 164.847656 167.660156 L 165.171875 167.632812 L 165.328125 167.632812 L 165.679688 167.59375 L 165.710938 167.59375 L 165.816406 167.570312 L 166.191406 167.511719 L 166.300781 167.511719 L 166.722656 167.441406 L 166.792969 167.441406 L 167.632812 167.261719 C 165.308594 166.410156 163.363281 164.40625 161.691406 161.550781 "/>
<path style=" stroke:none;fill-rule:nonzero;fill:rgb(11.764706%,36.078431%,70.196078%);fill-opacity:1;" d="M 128.507812 167.6875 C 130.1875 167.6875 131.890625 167.523438 133.601562 167.195312 C 135.214844 166.890625 136.804688 166.464844 138.351562 165.914062 C 139.671875 166.558594 141.058594 167.039062 142.523438 167.339844 C 143.660156 167.570312 144.84375 167.6875 146.082031 167.6875 Z M 146.082031 167.6875 C 150.246094 167.6875 153.542969 167.195312 156.339844 165.847656 C 158.046875 166.773438 159.910156 167.363281 161.835938 167.582031 L 162.730469 167.660156 L 162.785156 167.660156 L 163.214844 167.6875 L 163.734375 167.6875 Z M 146.082031 167.6875 "/>
<path style=" stroke:none;fill-rule:nonzero;fill:rgb(11.372549%,37.647059%,70.980392%);fill-opacity:1;" d="M 163.734375 167.6875 L 164.695312 167.6875 L 164.859375 167.660156 L 165.1875 167.632812 L 165.347656 167.632812 L 165.695312 167.59375 L 165.726562 167.59375 L 165.832031 167.566406 L 166.207031 167.511719 L 166.320312 167.484375 L 166.746094 167.414062 L 166.8125 167.414062 L 167.652344 167.238281 C 168.46875 167.539062 169.316406 167.691406 170.226562 167.691406 L 163.738281 167.71875 Z M 163.734375 167.6875 "/>
<path style=" stroke:none;fill-rule:nonzero;fill:rgb(9.019608%,37.254902%,67.058824%);fill-opacity:1;" d="M 158.007812 152.914062 L 158.007812 152.886719 C 156.230469 154.59375 154.378906 156.21875 152.453125 157.753906 C 151.507812 158.507812 150.542969 159.234375 149.554688 159.933594 C 150.367188 160.90625 151.195312 161.816406 152.070312 162.648438 C 153.390625 163.929688 154.804688 165.011719 156.347656 165.847656 C 156.699219 165.675781 157.050781 165.484375 157.390625 165.285156 C 158.964844 164.367188 160.375 163.128906 161.710938 161.5 C 160.328125 159.144531 159.117188 156.21875 158.015625 152.914062 "/>
<path style=" stroke:none;fill-rule:nonzero;fill:url(#linear14);" d="M 213.136719 86.183594 L 202.648438 86.183594 L 200.984375 86.261719 L 200.210938 87.917969 C 191.527344 106.410156 182.414062 122.4375 173.15625 135.175781 C 168.800781 148.570312 165.609375 156.703125 161.691406 161.484375 C 163.367188 164.339844 165.3125 166.347656 167.628906 167.199219 L 167.8125 167.160156 L 167.851562 167.160156 L 167.976562 167.132812 L 168.269531 167.0625 L 168.441406 167.011719 L 168.699219 166.945312 L 168.863281 166.898438 L 169.25 166.78125 L 169.441406 166.71875 L 169.65625 166.636719 L 169.878906 166.566406 L 170.0625 166.5 L 170.515625 166.339844 L 170.640625 166.292969 L 170.917969 166.1875 L 171.03125 166.144531 L 172.007812 165.726562 L 172.039062 165.726562 C 172.503906 165.523438 172.976562 165.292969 173.449219 165.050781 C 188.5 156.640625 196.101562 128.390625 219.726562 86.1875 L 213.128906 86.1875 Z M 213.136719 86.183594 "/>
<path style=" stroke:none;fill-rule:nonzero;fill:rgb(49.019608%,79.607843%,92.54902%);fill-opacity:1;" d="M 82.480469 88.035156 L 82.585938 88.066406 L 82.859375 88.09375 L 82.953125 88.09375 L 83.453125 88.160156 L 83.539062 88.1875 L 83.960938 88.257812 L 84.066406 88.28125 L 85.035156 88.496094 L 85.125 88.527344 L 85.515625 88.636719 L 86.089844 88.800781 L 86.125 88.828125 L 86.53125 88.964844 L 86.683594 89.015625 L 86.976562 89.132812 L 87.140625 89.191406 L 87.527344 89.351562 L 87.71875 89.433594 L 87.949219 89.535156 L 88.15625 89.632812 L 88.359375 89.738281 C 90.035156 90.5625 91.578125 91.660156 93.007812 92.992188 C 93.535156 92.4375 94.085938 91.941406 94.65625 91.492188 C 91.53125 89.277344 87.992188 88.015625 83.910156 88.015625 C 83.4375 88.015625 82.964844 88.042969 82.484375 88.078125 "/>
<path style=" stroke:none;fill-rule:nonzero;fill:rgb(36.862745%,77.254902%,92.941176%);fill-opacity:1;" d="M 93 92.949219 C 93.878906 93.765625 94.714844 94.671875 95.507812 95.652344 C 96.273438 95.117188 97.035156 94.605469 97.796875 94.125 C 96.824219 93.144531 95.773438 92.253906 94.644531 91.453125 C 94.074219 91.898438 93.527344 92.398438 93 92.949219 "/>
<path style=" stroke:none;fill-rule:nonzero;fill:url(#linear15);" d="M 82.023438 88.148438 L 83.453125 88.085938 C 87.535156 88.085938 91.070312 89.351562 94.195312 91.566406 C 97.488281 88.960938 101.476562 88.054688 107.011719 88.054688 L 80.207031 88.054688 L 82.023438 88.148438 "/>
<path style=" stroke:none;fill-rule:nonzero;fill:url(#linear16);" d="M 107.011719 88.054688 C 101.476562 88.054688 97.5 88.960938 94.195312 91.566406 C 95.285156 92.335938 96.339844 93.234375 97.34375 94.238281 C 101.9375 91.324219 106.476562 89.386719 110.957031 88.546875 C 112.671875 88.226562 114.375 88.0625 116.050781 88.0625 L 107.011719 88.0625 Z M 107.011719 88.054688 "/>
<path style=" stroke:none;fill-rule:nonzero;fill:url(#linear17);" d="M 173.167969 135.199219 C 175.550781 127.859375 178.273438 118.949219 181.65625 108.136719 C 184.699219 98.398438 190.09375 91.117188 200.222656 87.941406 L 201.003906 86.285156 C 184.492188 87.273438 176.773438 95.671875 172.894531 108.109375 C 166.101562 129.824219 161.984375 143.902344 158.023438 152.871094 C 163.082031 148.035156 168.140625 142.097656 173.167969 135.199219 "/>
</g>
</svg>
