<?xml version="1.0" encoding="UTF-8"?>
<svg xmlns="http://www.w3.org/2000/svg" xmlns:xlink="http://www.w3.org/1999/xlink" width="256px" height="256px" viewBox="0 0 256 256" version="1.1">
<rect width="256" height="256" fill="#242938" rx="60"/>
<defs>
<clipPath id="clip1">
  <path d="M 88.84375 91.503906 L 134.765625 91.503906 L 134.765625 173.40625 L 88.84375 173.40625 Z M 88.84375 91.503906 "/>
</clipPath>
<clipPath id="clip2">
  <path d="M 88.933594 94.824219 C 98.160156 123.042969 101.660156 173.390625 128.644531 173.390625 C 130.699219 173.390625 132.773438 173.1875 134.859375 172.792969 C 110.328125 167.074219 107.417969 117.273438 92.445312 91.488281 C 91.253906 92.574219 90.082031 93.6875 88.933594 94.824219 "/>
</clipPath>
<linearGradient id="linear0" gradientUnits="userSpaceOnUse" x1="181.125" y1="414.088" x2="181.125" y2="337.71" gradientTransform="matrix(1.59929,0,0,-1.59929,-177.868242,737.764996)">
<stop offset="0" style="stop-color:rgb(3.529412%,58.039216%,86.27451%);stop-opacity:1;"/>
<stop offset="0.11" style="stop-color:rgb(3.529412%,58.039216%,86.27451%);stop-opacity:1;"/>
<stop offset="0.35" style="stop-color:rgb(40%,80.784314%,96.078431%);stop-opacity:1;"/>
<stop offset="0.45" style="stop-color:rgb(40%,80.784314%,96.078431%);stop-opacity:1;"/>
<stop offset="0.846" style="stop-color:rgb(7.058824%,48.235294%,79.215686%);stop-opacity:1;"/>
<stop offset="1" style="stop-color:rgb(7.058824%,48.235294%,79.215686%);stop-opacity:1;"/>
</linearGradient>
<clipPath id="clip3">
  <path d="M 92.597656 88.914062 L 140.800781 88.914062 L 140.800781 172.902344 L 92.597656 172.902344 Z M 92.597656 88.914062 "/>
</clipPath>
<clipPath id="clip4">
  <path d="M 92.449219 91.488281 C 107.417969 117.273438 110.324219 167.074219 134.863281 172.792969 C 136.785156 172.4375 138.722656 171.902344 140.65625 171.222656 C 118.632812 160.433594 112.546875 112.082031 95.546875 88.800781 C 94.519531 89.660156 93.46875 90.554688 92.449219 91.484375 "/>
</clipPath>
<linearGradient id="linear1" gradientUnits="userSpaceOnUse" x1="184.188" y1="415.963" x2="184.188" y2="337.638" gradientTransform="matrix(1.59929,0,0,-1.59929,-177.868242,737.764996)">
<stop offset="0" style="stop-color:rgb(5.490196%,46.27451%,73.72549%);stop-opacity:1;"/>
<stop offset="0.176" style="stop-color:rgb(5.490196%,46.27451%,73.72549%);stop-opacity:1;"/>
<stop offset="0.36" style="stop-color:rgb(21.176471%,68.235294%,90.980392%);stop-opacity:1;"/>
<stop offset="0.52" style="stop-color:rgb(21.176471%,68.235294%,90.980392%);stop-opacity:1;"/>
<stop offset="0.846" style="stop-color:rgb(0%,67.843137%,93.72549%);stop-opacity:1;"/>
<stop offset="1" style="stop-color:rgb(0%,67.843137%,93.72549%);stop-opacity:1;"/>
</linearGradient>
<clipPath id="clip5">
  <path d="M 112.628906 76.84375 L 157.953125 76.84375 L 157.953125 164 L 112.628906 164 Z M 112.628906 76.84375 "/>
</clipPath>
<clipPath id="clip6">
  <path d="M 112.515625 78.503906 C 134.6875 90.097656 136.613281 142.613281 154.304688 163.9375 C 155.488281 163.101562 156.664062 162.214844 157.824219 161.28125 C 146.75 136.75 143.582031 82.882812 118.832031 76.738281 C 116.71875 77.132812 114.609375 77.699219 112.5 78.503906 "/>
</clipPath>
<linearGradient id="linear2" gradientUnits="userSpaceOnUse" x1="195.813" y1="423.9" x2="195.813" y2="342.579" gradientTransform="matrix(1.59929,0,0,-1.59929,-177.868242,737.764996)">
<stop offset="0" style="stop-color:rgb(8.627451%,41.568627%,72.156863%);stop-opacity:1;"/>
<stop offset="0.099" style="stop-color:rgb(8.627451%,41.568627%,72.156863%);stop-opacity:1;"/>
<stop offset="0.4" style="stop-color:rgb(21.176471%,68.235294%,90.980392%);stop-opacity:1;"/>
<stop offset="0.516" style="stop-color:rgb(21.176471%,68.235294%,90.980392%);stop-opacity:1;"/>
<stop offset="0.846" style="stop-color:rgb(2.745098%,59.607843%,86.666667%);stop-opacity:1;"/>
<stop offset="1" style="stop-color:rgb(2.745098%,59.607843%,86.666667%);stop-opacity:1;"/>
</linearGradient>
<clipPath id="clip7">
  <path d="M 95.519531 78.527344 L 154.277344 78.527344 L 154.277344 171.25 L 95.519531 171.25 Z M 95.519531 78.527344 "/>
</clipPath>
<clipPath id="clip8">
  <path d="M 95.546875 88.804688 C 112.546875 112.085938 118.632812 160.453125 140.65625 171.226562 C 145.179688 169.632812 149.734375 167.179688 154.304688 163.941406 C 136.613281 142.613281 134.6875 90.101562 112.515625 78.503906 C 106.886719 80.597656 101.234375 84.085938 95.5625 88.804688 "/>
</clipPath>
<linearGradient id="linear3" gradientUnits="userSpaceOnUse" x1="189.313" y1="423.525" x2="189.313" y2="337.051" gradientTransform="matrix(1.59929,0,0,-1.59929,-177.868242,737.764996)">
<stop offset="0" style="stop-color:rgb(7.058824%,26.27451%,47.45098%);stop-opacity:1;"/>
<stop offset="0.11" style="stop-color:rgb(7.058824%,26.27451%,47.45098%);stop-opacity:1;"/>
<stop offset="0.39" style="stop-color:rgb(7.843137%,52.941176%,79.607843%);stop-opacity:1;"/>
<stop offset="0.52" style="stop-color:rgb(7.843137%,52.941176%,79.607843%);stop-opacity:1;"/>
<stop offset="0.78" style="stop-color:rgb(8.627451%,31.764706%,59.215686%);stop-opacity:1;"/>
<stop offset="1" style="stop-color:rgb(8.627451%,31.764706%,59.215686%);stop-opacity:1;"/>
</linearGradient>
<clipPath id="clip9">
  <path d="M 15.4375 78.167969 L 64.832031 78.167969 L 64.832031 152.5 L 15.4375 152.5 Z M 15.4375 78.167969 "/>
</clipPath>
<clipPath id="clip10">
  <path d="M 15.464844 152.449219 C 36.847656 111.246094 46.976562 85.167969 64.855469 78.113281 C 46.421875 85.328125 25.671875 112.542969 15.464844 152.449219 "/>
</clipPath>
<linearGradient id="linear4" gradientUnits="userSpaceOnUse" x1="136.313" y1="354.65" x2="136.313" y2="416.813" gradientTransform="matrix(1.59929,0,0,-1.59929,-177.868242,737.764996)">
<stop offset="0" style="stop-color:rgb(19.215686%,55.686275%,83.529412%);stop-opacity:1;"/>
<stop offset="0.675" style="stop-color:rgb(21.960784%,65.490196%,89.411765%);stop-opacity:1;"/>
<stop offset="1" style="stop-color:rgb(21.960784%,65.490196%,89.411765%);stop-opacity:1;"/>
</linearGradient>
<clipPath id="clip11">
  <path d="M 25.285156 94.261719 L 78.171875 94.261719 L 78.171875 175.921875 L 25.285156 175.921875 Z M 25.285156 94.261719 "/>
</clipPath>
<clipPath id="clip12">
  <path d="M 25.171875 175.796875 L 25.171875 175.804688 C 30.925781 175.070312 37.640625 171.644531 42.054688 163.429688 C 51.210938 146.398438 60.320312 131.183594 69.375 118.425781 C 72.671875 108.082031 75.386719 100.167969 78.058594 94.144531 C 60.007812 111.324219 41.886719 139.894531 25.171875 175.796875 "/>
</clipPath>
<linearGradient id="linear5" gradientUnits="userSpaceOnUse" x1="143.563" y1="351.307" x2="143.563" y2="402.367" gradientTransform="matrix(1.59929,0,0,-1.59929,-177.868242,737.764996)">
<stop offset="0" style="stop-color:rgb(9.803922%,34.901961%,65.098039%);stop-opacity:1;"/>
<stop offset="0.154" style="stop-color:rgb(9.803922%,34.901961%,65.098039%);stop-opacity:1;"/>
<stop offset="0.484" style="stop-color:rgb(1.960784%,63.137255%,90.196078%);stop-opacity:1;"/>
<stop offset="0.5" style="stop-color:rgb(1.960784%,63.137255%,90.196078%);stop-opacity:1;"/>
<stop offset="0.918" style="stop-color:rgb(49.411765%,77.254902%,91.764706%);stop-opacity:1;"/>
<stop offset="1" style="stop-color:rgb(49.411765%,77.254902%,91.764706%);stop-opacity:1;"/>
</linearGradient>
<clipPath id="clip13">
  <path d="M 11 76 L 85 76 L 85 176 L 11 176 Z M 11 76 "/>
</clipPath>
<clipPath id="clip14">
  <path d="M 71.78125 76.332031 C 71.71875 76.34375 71.667969 76.347656 71.621094 76.351562 C 71.523438 76.371094 71.421875 76.386719 71.320312 76.394531 L 71.140625 76.414062 L 70.820312 76.472656 C 70.769531 76.472656 70.71875 76.484375 70.679688 76.488281 L 69.984375 76.609375 C 69.953125 76.617188 69.925781 76.625 69.902344 76.625 L 69.582031 76.6875 L 69.414062 76.734375 L 69.085938 76.800781 L 68.933594 76.835938 L 67.785156 77.132812 C 67.753906 77.144531 67.699219 77.15625 67.652344 77.171875 C 67.542969 77.199219 67.429688 77.242188 67.308594 77.277344 L 67.152344 77.320312 L 66.808594 77.425781 C 66.765625 77.4375 66.726562 77.457031 66.6875 77.457031 L 65.890625 77.734375 L 65.507812 77.871094 L 65.355469 77.933594 C 65.238281 77.964844 65.121094 78.015625 65.035156 78.054688 C 65 78.074219 64.953125 78.089844 64.921875 78.109375 C 47.042969 85.167969 36.914062 111.246094 15.53125 152.445312 C 13.554688 160.191406 12.050781 168.050781 11.023438 175.980469 L 12.167969 175.980469 L 22.824219 175.964844 L 22.925781 175.964844 L 23.605469 175.949219 L 24.394531 175.894531 C 24.410156 175.894531 24.429688 175.886719 24.441406 175.886719 C 24.554688 175.871094 24.664062 175.863281 24.769531 175.855469 C 24.800781 175.851562 24.816406 175.851562 24.851562 175.84375 C 24.96875 175.832031 25.105469 175.820312 25.238281 175.800781 L 25.238281 175.792969 C 41.949219 139.890625 60.074219 111.320312 78.125 94.140625 C 80.109375 89.644531 82.0625 86.210938 84.210938 83.609375 C 82.953125 81.488281 81.582031 79.722656 80.050781 78.433594 C 80.035156 78.425781 80.019531 78.421875 80.007812 78.40625 C 79.921875 78.371094 79.839844 78.332031 79.753906 78.285156 C 79.671875 78.242188 79.585938 78.199219 79.5 78.15625 C 79.421875 78.125 79.332031 78.082031 79.253906 78.035156 C 79.152344 78.003906 79.058594 77.960938 78.964844 77.910156 C 78.886719 77.882812 78.816406 77.84375 78.742188 77.8125 C 78.582031 77.75 78.425781 77.6875 78.269531 77.617188 L 78.066406 77.535156 C 77.945312 77.496094 77.828125 77.449219 77.714844 77.398438 C 77.652344 77.382812 77.589844 77.355469 77.523438 77.335938 C 77.351562 77.28125 77.191406 77.21875 77.035156 77.167969 C 77.007812 77.160156 77 77.160156 76.992188 77.152344 C 76.800781 77.09375 76.617188 77.042969 76.425781 76.992188 C 76.378906 76.96875 76.34375 76.960938 76.296875 76.949219 C 76.128906 76.90625 75.976562 76.855469 75.824219 76.816406 C 75.785156 76.808594 75.742188 76.800781 75.710938 76.789062 C 75.320312 76.6875 74.921875 76.597656 74.523438 76.527344 C 74.484375 76.527344 74.4375 76.511719 74.398438 76.503906 L 73.882812 76.421875 C 73.851562 76.40625 73.820312 76.40625 73.78125 76.402344 L 73.167969 76.320312 C 73.136719 76.316406 73.101562 76.308594 73.0625 76.308594 C 72.902344 76.28125 72.75 76.269531 72.59375 76.257812 C 72.335938 76.277344 72.089844 76.300781 71.84375 76.324219 "/>
</clipPath>
<clipPath id="clip15">
  <path d="M 12.949219 188.488281 L -6.3125 79.257812 L 81.71875 63.734375 L 100.980469 172.96875 L 12.949219 188.492188 Z M 12.949219 188.488281 "/>
</clipPath>
<clipPath id="clip16">
  <path d="M 12.949219 188.488281 L -6.3125 79.257812 L 81.71875 63.734375 L 100.976562 172.964844 L 12.945312 188.488281 Z M 12.949219 188.488281 "/>
</clipPath>
<linearGradient id="linear6" gradientUnits="userSpaceOnUse" x1="145.313" y1="354.65" x2="135.55" y2="410.014" gradientTransform="matrix(1.59929,0,0,-1.59929,-177.868242,737.764996)">
<stop offset="0" style="stop-color:rgb(8.627451%,31.372549%,58.823529%);stop-opacity:1;"/>
<stop offset="0.104" style="stop-color:rgb(8.627451%,31.372549%,58.823529%);stop-opacity:1;"/>
<stop offset="1" style="stop-color:rgb(5.098039%,50.980392%,79.215686%);stop-opacity:1;"/>
</linearGradient>
<clipPath id="clip17">
  <path d="M 183.167969 76.128906 L 216.160156 76.128906 L 216.160156 133.753906 L 183.167969 133.753906 Z M 183.167969 76.128906 "/>
</clipPath>
<clipPath id="clip18">
  <path d="M 193.449219 100.773438 L 183.105469 133.765625 C 194.398438 118.230469 205.515625 98.695312 216.097656 76.140625 C 203.753906 80.023438 197.164062 88.894531 193.449219 100.773438 "/>
</clipPath>
<linearGradient id="linear7" gradientUnits="userSpaceOnUse" x1="236.063" y1="385.963" x2="236.063" y2="414.896" gradientTransform="matrix(1.59929,0,0,-1.59929,-177.868242,737.764996)">
<stop offset="0" style="stop-color:rgb(1.960784%,63.137255%,90.196078%);stop-opacity:1;"/>
<stop offset="0.649" style="stop-color:rgb(1.960784%,63.137255%,90.196078%);stop-opacity:1;"/>
<stop offset="0.874" style="stop-color:rgb(1.568627%,58.431373%,83.921569%);stop-opacity:1;"/>
<stop offset="1" style="stop-color:rgb(1.568627%,58.431373%,83.921569%);stop-opacity:1;"/>
</linearGradient>
<clipPath id="clip19">
  <path d="M 169.078125 74.011719 L 239.84375 74.011719 L 239.84375 172.832031 L 169.078125 172.832031 Z M 169.078125 74.011719 "/>
</clipPath>
<clipPath id="clip20">
  <path d="M 231.84375 74.003906 L 221.164062 74.003906 C 220.804688 74.003906 220.453125 74.011719 220.101562 74.015625 L 219.097656 74.027344 L 219.074219 74.027344 L 217.046875 74.121094 L 216.085938 76.140625 C 205.5 98.695312 194.382812 118.234375 183.09375 133.765625 C 177.785156 150.101562 173.890625 160.015625 169.117188 165.847656 C 171.160156 169.332031 173.53125 171.78125 176.359375 172.820312 C 176.441406 172.796875 176.507812 172.785156 176.578125 172.769531 C 176.59375 172.757812 176.609375 172.757812 176.628906 172.757812 C 176.675781 172.75 176.726562 172.730469 176.777344 172.726562 C 176.894531 172.699219 177.019531 172.671875 177.132812 172.632812 L 177.34375 172.578125 C 177.449219 172.546875 177.5625 172.523438 177.660156 172.496094 C 177.726562 172.46875 177.789062 172.453125 177.859375 172.4375 C 178.023438 172.386719 178.171875 172.351562 178.332031 172.300781 C 178.402344 172.265625 178.480469 172.242188 178.5625 172.222656 C 178.652344 172.191406 178.746094 172.164062 178.824219 172.125 C 178.921875 172.097656 179.011719 172.078125 179.097656 172.042969 C 179.171875 172.023438 179.25 171.988281 179.320312 171.957031 C 179.503906 171.894531 179.683594 171.835938 179.875 171.765625 C 179.921875 171.75 179.972656 171.71875 180.023438 171.710938 C 180.136719 171.664062 180.253906 171.628906 180.34375 171.578125 C 180.390625 171.558594 180.4375 171.539062 180.503906 171.523438 C 180.902344 171.363281 181.296875 171.195312 181.691406 171.019531 C 181.695312 171.019531 181.714844 171.011719 181.726562 171.003906 C 182.296875 170.75 182.871094 170.472656 183.441406 170.179688 C 201.800781 159.925781 211.066406 125.476562 239.875 74.007812 L 231.828125 74.007812 Z M 231.84375 74.003906 "/>
</clipPath>
<linearGradient id="linear8" gradientUnits="userSpaceOnUse" x1="239.063" y1="415.213" x2="239.063" y2="352.093" gradientTransform="matrix(1.59929,0,0,-1.59929,-177.868242,737.764996)">
<stop offset="0" style="stop-color:rgb(8.627451%,54.901961%,83.137255%);stop-opacity:1;"/>
<stop offset="0.5" style="stop-color:rgb(10.980392%,52.941176%,80%);stop-opacity:1;"/>
<stop offset="1" style="stop-color:rgb(8.235294%,29.411765%,55.294118%);stop-opacity:1;"/>
</linearGradient>
</defs>
<g id="surface1">
<g clip-path="url(#clip1)" clip-rule="nonzero">
<g clip-path="url(#clip2)" clip-rule="nonzero">
<path style=" stroke:none;fill-rule:nonzero;fill:url(#linear0);" d="M 134.765625 173.40625 L 88.84375 173.40625 L 88.84375 91.503906 L 134.765625 91.503906 Z M 134.765625 173.40625 "/>
</g>
</g>
<g clip-path="url(#clip3)" clip-rule="nonzero">
<g clip-path="url(#clip4)" clip-rule="nonzero">
<path style=" stroke:none;fill-rule:nonzero;fill:url(#linear1);" d="M 140.800781 172.902344 L 92.597656 172.902344 L 92.597656 88.914062 L 140.800781 88.914062 Z M 140.800781 172.902344 "/>
</g>
</g>
<path style=" stroke:none;fill-rule:nonzero;fill:rgb(7.843137%,33.333333%,60.392157%);fill-opacity:1;" d="M 114.015625 76.164062 C 111.96875 76.164062 109.882812 76.363281 107.800781 76.761719 C 102.339844 77.789062 96.789062 80.140625 91.199219 83.699219 C 92.726562 85.207031 94.179688 86.929688 95.542969 88.816406 C 101.230469 84.082031 106.878906 80.605469 112.515625 78.511719 C 114.570312 77.742188 116.6875 77.152344 118.84375 76.75 C 117.265625 76.355469 115.644531 76.15625 114.015625 76.164062 "/>
<path style=" stroke:none;fill-rule:nonzero;fill:rgb(9.803922%,41.176471%,73.72549%);fill-opacity:1;" d="M 157.367188 167.25 C 156.304688 166.234375 155.296875 165.125 154.304688 163.925781 C 149.734375 167.160156 145.179688 169.617188 140.652344 171.210938 C 142.265625 172.003906 143.976562 172.585938 145.738281 172.945312 C 147.125 173.230469 148.554688 173.375 150.089844 173.375 C 155.167969 173.375 159.179688 172.769531 162.597656 171.136719 C 160.714844 170.117188 158.988281 168.800781 157.378906 167.238281 "/>
<g clip-path="url(#clip5)" clip-rule="nonzero">
<g clip-path="url(#clip6)" clip-rule="nonzero">
<path style=" stroke:none;fill-rule:nonzero;fill:url(#linear2);" d="M 157.953125 164.046875 L 112.628906 164.046875 L 112.628906 76.84375 L 157.953125 76.84375 Z M 157.953125 164.046875 "/>
</g>
</g>
<g clip-path="url(#clip7)" clip-rule="nonzero">
<g clip-path="url(#clip8)" clip-rule="nonzero">
<path style=" stroke:none;fill-rule:nonzero;fill:url(#linear3);" d="M 154.277344 171.25 L 95.519531 171.25 L 95.519531 78.523438 L 154.277344 78.523438 Z M 154.277344 171.25 "/>
</g>
</g>
<path style=" stroke:none;fill-rule:nonzero;fill:rgb(16.862745%,45.490196%,69.411765%);fill-opacity:1;" d="M 88.40625 85.546875 L 86.046875 87.285156 C 87.082031 89.542969 88.039062 92.078125 88.933594 94.835938 L 92.449219 91.496094 C 91.191406 89.339844 89.863281 87.34375 88.40625 85.5625 "/>
<path style=" stroke:none;fill-rule:nonzero;fill:rgb(7.058824%,35.294118%,61.960784%);fill-opacity:1;" d="M 91.199219 83.6875 L 88.40625 85.546875 C 89.855469 87.332031 91.191406 89.328125 92.449219 91.484375 L 95.546875 88.800781 C 94.175781 86.917969 92.730469 85.191406 91.199219 83.683594 "/>
<path style=" stroke:none;fill-rule:nonzero;fill:rgb(5.098039%,50.980392%,79.215686%);fill-opacity:1;" d="M 78.054688 94.144531 C 80.722656 91.601562 83.390625 89.316406 86.046875 87.289062 L 84.128906 83.613281 C 81.984375 86.214844 80.027344 89.648438 78.042969 94.144531 "/>
<path style=" stroke:none;fill-rule:nonzero;fill:rgb(5.098039%,50.980392%,79.215686%);fill-opacity:1;" d="M 79.980469 78.441406 C 81.515625 79.722656 82.886719 81.492188 84.140625 83.609375 L 85.347656 82.253906 C 83.609375 80.628906 81.726562 79.292969 79.679688 78.285156 L 79.933594 78.40625 C 79.945312 78.421875 79.960938 78.433594 79.980469 78.4375 "/>
<g clip-path="url(#clip9)" clip-rule="nonzero">
<g clip-path="url(#clip10)" clip-rule="nonzero">
<path style=" stroke:none;fill-rule:nonzero;fill:url(#linear4);" d="M 15.4375 78.164062 L 64.832031 78.164062 L 64.832031 152.503906 L 15.4375 152.503906 Z M 15.4375 78.164062 "/>
</g>
</g>
<path style=" stroke:none;fill-rule:nonzero;fill:rgb(7.058824%,48.235294%,79.215686%);fill-opacity:1;" d="M 85.351562 82.253906 L 84.140625 83.609375 C 84.8125 84.730469 85.4375 85.957031 86.0625 87.285156 L 88.421875 85.546875 C 87.480469 84.378906 86.457031 83.277344 85.363281 82.253906 "/>
<g clip-path="url(#clip11)" clip-rule="nonzero">
<g clip-path="url(#clip12)" clip-rule="nonzero">
<path style=" stroke:none;fill-rule:nonzero;fill:url(#linear5);" d="M 25.285156 94.261719 L 78.171875 94.261719 L 78.171875 175.921875 L 25.285156 175.921875 Z M 25.285156 94.261719 "/>
</g>
</g>
<path style=" stroke:none;fill-rule:nonzero;fill:rgb(1.960784%,63.137255%,90.196078%);fill-opacity:1;" d="M 15.460938 152.449219 C 11.625 159.824219 7.449219 167.683594 2.796875 175.988281 L 10.957031 175.984375 C 12.035156 167.738281 13.566406 159.871094 15.464844 152.449219 "/>
<g clip-path="url(#clip13)" clip-rule="nonzero">
<g clip-path="url(#clip14)" clip-rule="nonzero">
<g clip-path="url(#clip15)" clip-rule="nonzero">
<g clip-path="url(#clip16)" clip-rule="nonzero">
<path style=" stroke:none;fill-rule:nonzero;fill:url(#linear6);" d="M 12.949219 188.488281 L -6.3125 79.257812 L 81.71875 63.734375 L 100.980469 172.96875 L 12.949219 188.492188 Z M 12.949219 188.488281 "/>
</g>
</g>
</g>
</g>
<g clip-path="url(#clip17)" clip-rule="nonzero">
<g clip-path="url(#clip18)" clip-rule="nonzero">
<path style=" stroke:none;fill-rule:nonzero;fill:url(#linear7);" d="M 183.167969 76.128906 L 216.160156 76.128906 L 216.160156 133.753906 L 183.167969 133.753906 Z M 183.167969 76.128906 "/>
</g>
</g>
<path style=" stroke:none;fill-rule:nonzero;fill:rgb(2.745098%,60.392157%,88.235294%);fill-opacity:1;" d="M 169.125 165.851562 C 173.902344 160.015625 177.796875 150.101562 183.105469 133.769531 C 176.980469 142.1875 170.824219 149.421875 164.636719 155.320312 C 164.628906 155.339844 164.628906 155.355469 164.617188 155.378906 C 165.964844 159.40625 167.441406 162.972656 169.125 165.851562 "/>
<path style=" stroke:none;fill-rule:nonzero;fill:rgb(9.803922%,41.176471%,73.72549%);fill-opacity:1;" d="M 169.125 165.851562 C 167.5 167.835938 165.78125 169.34375 163.859375 170.464844 L 162.589844 171.148438 C 164.667969 172.273438 166.9375 172.988281 169.285156 173.261719 L 169.300781 173.261719 L 170.398438 173.355469 L 170.464844 173.355469 L 170.976562 173.382812 L 171.050781 173.382812 L 171.589844 173.390625 L 172.171875 173.382812 L 172.351562 173.371094 L 172.761719 173.355469 L 172.960938 173.332031 L 173.34375 173.304688 C 173.367188 173.304688 173.378906 173.304688 173.390625 173.292969 C 173.441406 173.292969 173.488281 173.285156 173.539062 173.285156 L 173.964844 173.242188 C 173.980469 173.242188 173.984375 173.234375 174.003906 173.234375 C 174.042969 173.226562 174.089844 173.21875 174.132812 173.214844 L 174.59375 173.148438 C 174.640625 173.148438 174.679688 173.136719 174.730469 173.128906 L 175.246094 173.046875 L 175.273438 173.046875 C 175.285156 173.035156 175.308594 173.035156 175.320312 173.03125 L 176.347656 172.816406 C 173.515625 171.792969 171.144531 169.328125 169.097656 165.847656 "/>
<path style=" stroke:none;fill-rule:nonzero;fill:rgb(11.764706%,36.078431%,70.196078%);fill-opacity:1;" d="M 128.644531 173.390625 C 130.730469 173.386719 132.8125 173.1875 134.859375 172.792969 C 136.785156 172.4375 138.71875 171.902344 140.65625 171.226562 C 142.265625 172.015625 143.953125 172.597656 145.742188 172.964844 C 147.128906 173.246094 148.558594 173.390625 150.09375 173.390625 Z M 128.644531 173.390625 "/>
<path style=" stroke:none;fill-rule:nonzero;fill:rgb(11.764706%,36.078431%,70.196078%);fill-opacity:1;" d="M 150.082031 173.390625 C 155.15625 173.390625 159.175781 172.792969 162.589844 171.152344 C 164.664062 172.277344 166.9375 172.992188 169.285156 173.261719 L 169.300781 173.261719 L 170.398438 173.359375 L 170.464844 173.359375 L 170.976562 173.386719 L 171.050781 173.386719 L 171.589844 173.394531 L 150.066406 173.394531 Z M 150.082031 173.390625 "/>
<path style=" stroke:none;fill-rule:nonzero;fill:rgb(11.372549%,37.647059%,70.980392%);fill-opacity:1;" d="M 171.605469 173.390625 L 172.1875 173.382812 L 172.367188 173.371094 L 172.773438 173.355469 L 172.976562 173.332031 L 173.359375 173.304688 C 173.378906 173.304688 173.386719 173.304688 173.40625 173.296875 C 173.457031 173.296875 173.503906 173.285156 173.558594 173.285156 L 173.980469 173.242188 C 173.992188 173.242188 174 173.234375 174.019531 173.234375 C 174.058594 173.226562 174.105469 173.21875 174.148438 173.214844 L 174.605469 173.148438 C 174.652344 173.148438 174.699219 173.140625 174.742188 173.128906 L 175.257812 173.046875 L 175.285156 173.046875 C 175.304688 173.035156 175.324219 173.035156 175.335938 173.03125 L 176.363281 172.816406 C 177.371094 173.183594 178.433594 173.371094 179.503906 173.363281 L 171.589844 173.386719 Z M 171.605469 173.390625 "/>
<path style=" stroke:none;fill-rule:nonzero;fill:rgb(9.019608%,37.254902%,67.058824%);fill-opacity:1;" d="M 164.605469 155.378906 C 164.605469 155.367188 164.597656 155.355469 164.597656 155.347656 L 157.816406 161.28125 L 154.28125 163.9375 L 157.34375 167.265625 C 158.953125 168.828125 160.667969 170.144531 162.5625 171.164062 L 163.835938 170.480469 C 165.753906 169.359375 167.476562 167.851562 169.101562 165.867188 C 167.417969 162.988281 165.941406 159.425781 164.589844 155.394531 "/>
<g clip-path="url(#clip19)" clip-rule="nonzero">
<g clip-path="url(#clip20)" clip-rule="nonzero">
<path style=" stroke:none;fill-rule:nonzero;fill:url(#linear8);" d="M 239.84375 172.832031 L 169.078125 172.832031 L 169.078125 73.996094 L 239.84375 73.996094 Z M 239.84375 172.832031 "/>
</g>
</g>
</g>
</svg>
