<?xml version="1.0" encoding="UTF-8"?>
<svg xmlns="http://www.w3.org/2000/svg" xmlns:xlink="http://www.w3.org/1999/xlink" width="256px" height="256px" viewBox="0 0 256 256" version="1.1">
<defs>
<clipPath id="clip1">
  <path d="M 95.421875 91.503906 L 141.34375 91.503906 L 141.34375 173.40625 L 95.421875 173.40625 Z M 95.421875 91.503906 "/>
</clipPath>
<clipPath id="clip2">
  <path d="M 95.511719 94.824219 C 104.738281 123.042969 108.238281 173.390625 135.222656 173.390625 C 137.277344 173.390625 139.351562 173.1875 141.4375 172.792969 C 116.90625 167.074219 113.996094 117.273438 99.023438 91.488281 C 97.832031 92.574219 96.660156 93.6875 95.511719 94.824219 "/>
</clipPath>
<linearGradient id="linear0" gradientUnits="userSpaceOnUse" x1="181.125" y1="414.088" x2="181.125" y2="337.71" gradientTransform="matrix(1.59929,0,0,-1.59929,-171.288682,737.765471)">
<stop offset="0" style="stop-color:rgb(3.529412%,58.039216%,86.27451%);stop-opacity:1;"/>
<stop offset="0.11" style="stop-color:rgb(3.529412%,58.039216%,86.27451%);stop-opacity:1;"/>
<stop offset="0.35" style="stop-color:rgb(40%,80.784314%,96.078431%);stop-opacity:1;"/>
<stop offset="0.45" style="stop-color:rgb(40%,80.784314%,96.078431%);stop-opacity:1;"/>
<stop offset="0.846" style="stop-color:rgb(7.058824%,48.235294%,79.215686%);stop-opacity:1;"/>
<stop offset="1" style="stop-color:rgb(7.058824%,48.235294%,79.215686%);stop-opacity:1;"/>
</linearGradient>
<clipPath id="clip3">
  <path d="M 99.175781 88.914062 L 147.378906 88.914062 L 147.378906 172.902344 L 99.175781 172.902344 Z M 99.175781 88.914062 "/>
</clipPath>
<clipPath id="clip4">
  <path d="M 99.027344 91.488281 C 113.996094 117.273438 116.902344 167.074219 141.441406 172.792969 C 143.363281 172.4375 145.300781 171.902344 147.234375 171.222656 C 125.210938 160.433594 119.125 112.082031 102.125 88.800781 C 101.097656 89.660156 100.046875 90.554688 99.027344 91.484375 "/>
</clipPath>
<linearGradient id="linear1" gradientUnits="userSpaceOnUse" x1="184.188" y1="415.963" x2="184.188" y2="337.638" gradientTransform="matrix(1.59929,0,0,-1.59929,-171.288682,737.765471)">
<stop offset="0" style="stop-color:rgb(5.490196%,46.27451%,73.72549%);stop-opacity:1;"/>
<stop offset="0.176" style="stop-color:rgb(5.490196%,46.27451%,73.72549%);stop-opacity:1;"/>
<stop offset="0.36" style="stop-color:rgb(21.176471%,68.235294%,90.980392%);stop-opacity:1;"/>
<stop offset="0.52" style="stop-color:rgb(21.176471%,68.235294%,90.980392%);stop-opacity:1;"/>
<stop offset="0.846" style="stop-color:rgb(0%,67.843137%,93.72549%);stop-opacity:1;"/>
<stop offset="1" style="stop-color:rgb(0%,67.843137%,93.72549%);stop-opacity:1;"/>
</linearGradient>
<clipPath id="clip5">
  <path d="M 119.207031 76.84375 L 164.53125 76.84375 L 164.53125 164 L 119.207031 164 Z M 119.207031 76.84375 "/>
</clipPath>
<clipPath id="clip6">
  <path d="M 119.09375 78.503906 C 141.265625 90.097656 143.191406 142.613281 160.882812 163.9375 C 162.066406 163.101562 163.242188 162.214844 164.402344 161.28125 C 153.328125 136.75 150.160156 82.882812 125.410156 76.738281 C 123.296875 77.132812 121.1875 77.699219 119.078125 78.503906 "/>
</clipPath>
<linearGradient id="linear2" gradientUnits="userSpaceOnUse" x1="195.813" y1="423.9" x2="195.813" y2="342.579" gradientTransform="matrix(1.59929,0,0,-1.59929,-171.288682,737.765471)">
<stop offset="0" style="stop-color:rgb(8.627451%,41.568627%,72.156863%);stop-opacity:1;"/>
<stop offset="0.099" style="stop-color:rgb(8.627451%,41.568627%,72.156863%);stop-opacity:1;"/>
<stop offset="0.4" style="stop-color:rgb(21.176471%,68.235294%,90.980392%);stop-opacity:1;"/>
<stop offset="0.516" style="stop-color:rgb(21.176471%,68.235294%,90.980392%);stop-opacity:1;"/>
<stop offset="0.846" style="stop-color:rgb(2.745098%,59.607843%,86.666667%);stop-opacity:1;"/>
<stop offset="1" style="stop-color:rgb(2.745098%,59.607843%,86.666667%);stop-opacity:1;"/>
</linearGradient>
<clipPath id="clip7">
  <path d="M 102.097656 78.527344 L 160.855469 78.527344 L 160.855469 171.25 L 102.097656 171.25 Z M 102.097656 78.527344 "/>
</clipPath>
<clipPath id="clip8">
  <path d="M 102.125 88.804688 C 119.125 112.085938 125.210938 160.453125 147.234375 171.226562 C 151.757812 169.632812 156.3125 167.179688 160.882812 163.941406 C 143.191406 142.613281 141.265625 90.101562 119.09375 78.503906 C 113.464844 80.597656 107.8125 84.085938 102.140625 88.804688 "/>
</clipPath>
<linearGradient id="linear3" gradientUnits="userSpaceOnUse" x1="189.313" y1="423.525" x2="189.313" y2="337.051" gradientTransform="matrix(1.59929,0,0,-1.59929,-171.288682,737.765471)">
<stop offset="0" style="stop-color:rgb(7.058824%,26.27451%,47.45098%);stop-opacity:1;"/>
<stop offset="0.11" style="stop-color:rgb(7.058824%,26.27451%,47.45098%);stop-opacity:1;"/>
<stop offset="0.39" style="stop-color:rgb(7.843137%,52.941176%,79.607843%);stop-opacity:1;"/>
<stop offset="0.52" style="stop-color:rgb(7.843137%,52.941176%,79.607843%);stop-opacity:1;"/>
<stop offset="0.78" style="stop-color:rgb(8.627451%,31.764706%,59.215686%);stop-opacity:1;"/>
<stop offset="1" style="stop-color:rgb(8.627451%,31.764706%,59.215686%);stop-opacity:1;"/>
</linearGradient>
<clipPath id="clip9">
  <path d="M 22.015625 78.167969 L 71.410156 78.167969 L 71.410156 152.5 L 22.015625 152.5 Z M 22.015625 78.167969 "/>
</clipPath>
<clipPath id="clip10">
  <path d="M 22.042969 152.449219 C 43.425781 111.246094 53.554688 85.167969 71.433594 78.113281 C 53 85.328125 32.25 112.542969 22.042969 152.449219 "/>
</clipPath>
<linearGradient id="linear4" gradientUnits="userSpaceOnUse" x1="136.313" y1="354.65" x2="136.313" y2="416.813" gradientTransform="matrix(1.59929,0,0,-1.59929,-171.288682,737.765471)">
<stop offset="0" style="stop-color:rgb(19.215686%,55.686275%,83.529412%);stop-opacity:1;"/>
<stop offset="0.675" style="stop-color:rgb(21.960784%,65.490196%,89.411765%);stop-opacity:1;"/>
<stop offset="1" style="stop-color:rgb(21.960784%,65.490196%,89.411765%);stop-opacity:1;"/>
</linearGradient>
<clipPath id="clip11">
  <path d="M 31.863281 94.261719 L 84.75 94.261719 L 84.75 175.921875 L 31.863281 175.921875 Z M 31.863281 94.261719 "/>
</clipPath>
<clipPath id="clip12">
  <path d="M 31.75 175.796875 L 31.75 175.804688 C 37.503906 175.070312 44.21875 171.644531 48.632812 163.429688 C 57.789062 146.398438 66.898438 131.183594 75.953125 118.425781 C 79.25 108.082031 81.964844 100.167969 84.636719 94.144531 C 66.585938 111.324219 48.464844 139.894531 31.75 175.796875 "/>
</clipPath>
<linearGradient id="linear5" gradientUnits="userSpaceOnUse" x1="143.563" y1="351.307" x2="143.563" y2="402.367" gradientTransform="matrix(1.59929,0,0,-1.59929,-171.288682,737.765471)">
<stop offset="0" style="stop-color:rgb(9.803922%,34.901961%,65.098039%);stop-opacity:1;"/>
<stop offset="0.154" style="stop-color:rgb(9.803922%,34.901961%,65.098039%);stop-opacity:1;"/>
<stop offset="0.484" style="stop-color:rgb(1.960784%,63.137255%,90.196078%);stop-opacity:1;"/>
<stop offset="0.5" style="stop-color:rgb(1.960784%,63.137255%,90.196078%);stop-opacity:1;"/>
<stop offset="0.918" style="stop-color:rgb(49.411765%,77.254902%,91.764706%);stop-opacity:1;"/>
<stop offset="1" style="stop-color:rgb(49.411765%,77.254902%,91.764706%);stop-opacity:1;"/>
</linearGradient>
<clipPath id="clip13">
  <path d="M 17.578125 76 L 91 76 L 91 176 L 17.578125 176 Z M 17.578125 76 "/>
</clipPath>
<clipPath id="clip14">
  <path d="M 78.359375 76.332031 C 78.296875 76.34375 78.246094 76.347656 78.199219 76.351562 C 78.101562 76.371094 78 76.386719 77.898438 76.394531 L 77.71875 76.414062 L 77.398438 76.472656 C 77.347656 76.472656 77.296875 76.484375 77.257812 76.488281 L 76.5625 76.609375 C 76.53125 76.617188 76.503906 76.625 76.480469 76.625 L 76.160156 76.6875 L 75.992188 76.734375 L 75.664062 76.800781 L 75.511719 76.835938 L 74.363281 77.132812 C 74.332031 77.144531 74.277344 77.15625 74.230469 77.171875 C 74.121094 77.199219 74.007812 77.242188 73.886719 77.277344 L 73.730469 77.320312 L 73.386719 77.425781 C 73.34375 77.4375 73.304688 77.457031 73.265625 77.457031 L 72.46875 77.734375 L 72.085938 77.871094 L 71.933594 77.933594 C 71.816406 77.964844 71.699219 78.015625 71.613281 78.054688 C 71.578125 78.074219 71.53125 78.089844 71.5 78.109375 C 53.621094 85.167969 43.492188 111.246094 22.109375 152.445312 C 20.132812 160.191406 18.628906 168.050781 17.601562 175.980469 L 18.746094 175.980469 L 29.402344 175.964844 L 29.503906 175.964844 L 30.183594 175.949219 L 30.972656 175.894531 C 30.988281 175.894531 31.007812 175.886719 31.019531 175.886719 C 31.132812 175.871094 31.242188 175.863281 31.347656 175.855469 C 31.378906 175.851562 31.394531 175.851562 31.429688 175.84375 C 31.546875 175.832031 31.683594 175.820312 31.816406 175.800781 L 31.816406 175.792969 C 48.527344 139.890625 66.652344 111.320312 84.703125 94.140625 C 86.6875 89.644531 88.640625 86.210938 90.789062 83.609375 C 89.53125 81.488281 88.160156 79.722656 86.628906 78.433594 C 86.613281 78.425781 86.597656 78.421875 86.585938 78.40625 C 86.5 78.371094 86.417969 78.332031 86.332031 78.285156 C 86.25 78.242188 86.164062 78.199219 86.078125 78.15625 C 86 78.125 85.910156 78.082031 85.832031 78.035156 C 85.730469 78.003906 85.636719 77.960938 85.542969 77.910156 C 85.464844 77.882812 85.394531 77.84375 85.320312 77.8125 C 85.160156 77.75 85.003906 77.6875 84.847656 77.617188 L 84.644531 77.535156 C 84.523438 77.496094 84.40625 77.449219 84.292969 77.398438 C 84.230469 77.382812 84.167969 77.355469 84.101562 77.335938 C 83.929688 77.28125 83.769531 77.21875 83.613281 77.167969 C 83.585938 77.160156 83.578125 77.160156 83.570312 77.152344 C 83.378906 77.09375 83.195312 77.042969 83.003906 76.992188 C 82.957031 76.96875 82.921875 76.960938 82.875 76.949219 C 82.707031 76.90625 82.554688 76.855469 82.402344 76.816406 C 82.363281 76.808594 82.320312 76.800781 82.289062 76.789062 C 81.898438 76.6875 81.5 76.597656 81.101562 76.527344 C 81.0625 76.527344 81.015625 76.511719 80.976562 76.503906 L 80.460938 76.421875 C 80.429688 76.40625 80.398438 76.40625 80.359375 76.402344 L 79.746094 76.320312 C 79.714844 76.316406 79.679688 76.308594 79.640625 76.308594 C 79.480469 76.28125 79.328125 76.269531 79.171875 76.257812 C 78.914062 76.277344 78.667969 76.300781 78.421875 76.324219 "/>
</clipPath>
<clipPath id="clip15">
  <path d="M 19.527344 188.488281 L 0.265625 79.257812 L 88.296875 63.734375 L 107.558594 172.96875 L 19.527344 188.492188 Z M 19.527344 188.488281 "/>
</clipPath>
<clipPath id="clip16">
  <path d="M 19.527344 188.488281 L 0.265625 79.257812 L 88.296875 63.734375 L 107.554688 172.964844 L 19.523438 188.488281 Z M 19.527344 188.488281 "/>
</clipPath>
<linearGradient id="linear6" gradientUnits="userSpaceOnUse" x1="145.313" y1="354.65" x2="135.55" y2="410.014" gradientTransform="matrix(1.59929,0,0,-1.59929,-171.288682,737.765471)">
<stop offset="0" style="stop-color:rgb(8.627451%,31.372549%,58.823529%);stop-opacity:1;"/>
<stop offset="0.104" style="stop-color:rgb(8.627451%,31.372549%,58.823529%);stop-opacity:1;"/>
<stop offset="1" style="stop-color:rgb(5.098039%,50.980392%,79.215686%);stop-opacity:1;"/>
</linearGradient>
<clipPath id="clip17">
  <path d="M 189.746094 76.128906 L 222.738281 76.128906 L 222.738281 133.753906 L 189.746094 133.753906 Z M 189.746094 76.128906 "/>
</clipPath>
<clipPath id="clip18">
  <path d="M 200.027344 100.773438 L 189.683594 133.765625 C 200.976562 118.230469 212.09375 98.695312 222.675781 76.140625 C 210.332031 80.023438 203.742188 88.894531 200.027344 100.773438 "/>
</clipPath>
<linearGradient id="linear7" gradientUnits="userSpaceOnUse" x1="236.063" y1="385.963" x2="236.063" y2="414.896" gradientTransform="matrix(1.59929,0,0,-1.59929,-171.288682,737.765471)">
<stop offset="0" style="stop-color:rgb(1.960784%,63.137255%,90.196078%);stop-opacity:1;"/>
<stop offset="0.649" style="stop-color:rgb(1.960784%,63.137255%,90.196078%);stop-opacity:1;"/>
<stop offset="0.874" style="stop-color:rgb(1.568627%,58.431373%,83.921569%);stop-opacity:1;"/>
<stop offset="1" style="stop-color:rgb(1.568627%,58.431373%,83.921569%);stop-opacity:1;"/>
</linearGradient>
<clipPath id="clip19">
  <path d="M 175.65625 74.011719 L 246.421875 74.011719 L 246.421875 172.832031 L 175.65625 172.832031 Z M 175.65625 74.011719 "/>
</clipPath>
<clipPath id="clip20">
  <path d="M 238.421875 74.003906 L 227.742188 74.003906 C 227.382812 74.003906 227.03125 74.011719 226.679688 74.015625 L 225.675781 74.027344 L 225.652344 74.027344 L 223.625 74.121094 L 222.664062 76.140625 C 212.078125 98.695312 200.960938 118.234375 189.671875 133.765625 C 184.363281 150.101562 180.46875 160.015625 175.695312 165.847656 C 177.738281 169.332031 180.109375 171.78125 182.9375 172.820312 C 183.019531 172.796875 183.085938 172.785156 183.15625 172.769531 C 183.171875 172.757812 183.1875 172.757812 183.207031 172.757812 C 183.253906 172.75 183.304688 172.730469 183.355469 172.726562 C 183.472656 172.699219 183.597656 172.671875 183.710938 172.632812 L 183.921875 172.578125 C 184.027344 172.546875 184.140625 172.523438 184.238281 172.496094 C 184.304688 172.46875 184.367188 172.453125 184.4375 172.4375 C 184.601562 172.386719 184.75 172.351562 184.910156 172.300781 C 184.980469 172.265625 185.058594 172.242188 185.140625 172.222656 C 185.230469 172.191406 185.324219 172.164062 185.402344 172.125 C 185.5 172.097656 185.589844 172.078125 185.675781 172.042969 C 185.75 172.023438 185.828125 171.988281 185.898438 171.957031 C 186.082031 171.894531 186.261719 171.835938 186.453125 171.765625 C 186.5 171.75 186.550781 171.71875 186.601562 171.710938 C 186.714844 171.664062 186.832031 171.628906 186.921875 171.578125 C 186.96875 171.558594 187.015625 171.539062 187.082031 171.523438 C 187.480469 171.363281 187.875 171.195312 188.269531 171.019531 C 188.273438 171.019531 188.292969 171.011719 188.304688 171.003906 C 188.875 170.75 189.449219 170.472656 190.019531 170.179688 C 208.378906 159.925781 217.644531 125.476562 246.453125 74.007812 L 238.40625 74.007812 Z M 238.421875 74.003906 "/>
</clipPath>
<linearGradient id="linear8" gradientUnits="userSpaceOnUse" x1="239.063" y1="415.213" x2="239.063" y2="352.093" gradientTransform="matrix(1.59929,0,0,-1.59929,-171.288682,737.765471)">
<stop offset="0" style="stop-color:rgb(8.627451%,54.901961%,83.137255%);stop-opacity:1;"/>
<stop offset="0.5" style="stop-color:rgb(10.980392%,52.941176%,80%);stop-opacity:1;"/>
<stop offset="1" style="stop-color:rgb(8.235294%,29.411765%,55.294118%);stop-opacity:1;"/>
</linearGradient>
</defs>
<g id="surface1">
<path style=" stroke:none;fill-rule:nonzero;fill:rgb(14.117647%,16.078431%,21.960784%);fill-opacity:1;" d="M 60 0 L 196 0 C 229.136719 0 256 26.863281 256 60 L 256 196 C 256 229.136719 229.136719 256 196 256 L 60 256 C 26.863281 256 0 229.136719 0 196 L 0 60 C 0 26.863281 26.863281 0 60 0 Z M 60 0 "/>
<g clip-path="url(#clip1)" clip-rule="nonzero">
<g clip-path="url(#clip2)" clip-rule="nonzero">
<path style=" stroke:none;fill-rule:nonzero;fill:url(#linear0);" d="M 141.34375 173.40625 L 95.421875 173.40625 L 95.421875 91.503906 L 141.34375 91.503906 Z M 141.34375 173.40625 "/>
</g>
</g>
<g clip-path="url(#clip3)" clip-rule="nonzero">
<g clip-path="url(#clip4)" clip-rule="nonzero">
<path style=" stroke:none;fill-rule:nonzero;fill:url(#linear1);" d="M 147.378906 172.902344 L 99.175781 172.902344 L 99.175781 88.914062 L 147.378906 88.914062 Z M 147.378906 172.902344 "/>
</g>
</g>
<path style=" stroke:none;fill-rule:nonzero;fill:rgb(7.843137%,33.333333%,60.392157%);fill-opacity:1;" d="M 120.59375 76.164062 C 118.546875 76.164062 116.460938 76.363281 114.378906 76.761719 C 108.917969 77.789062 103.367188 80.140625 97.777344 83.699219 C 99.304688 85.207031 100.757812 86.929688 102.121094 88.816406 C 107.808594 84.082031 113.457031 80.605469 119.09375 78.511719 C 121.148438 77.742188 123.265625 77.152344 125.421875 76.75 C 123.84375 76.355469 122.222656 76.15625 120.59375 76.164062 "/>
<path style=" stroke:none;fill-rule:nonzero;fill:rgb(9.803922%,41.176471%,73.72549%);fill-opacity:1;" d="M 163.945312 167.25 C 162.882812 166.234375 161.875 165.125 160.882812 163.925781 C 156.3125 167.160156 151.757812 169.617188 147.230469 171.210938 C 148.84375 172.003906 150.554688 172.585938 152.316406 172.945312 C 153.703125 173.230469 155.132812 173.375 156.667969 173.375 C 161.746094 173.375 165.757812 172.769531 169.175781 171.136719 C 167.292969 170.117188 165.566406 168.800781 163.957031 167.238281 "/>
<g clip-path="url(#clip5)" clip-rule="nonzero">
<g clip-path="url(#clip6)" clip-rule="nonzero">
<path style=" stroke:none;fill-rule:nonzero;fill:url(#linear2);" d="M 164.53125 164.046875 L 119.207031 164.046875 L 119.207031 76.84375 L 164.53125 76.84375 Z M 164.53125 164.046875 "/>
</g>
</g>
<g clip-path="url(#clip7)" clip-rule="nonzero">
<g clip-path="url(#clip8)" clip-rule="nonzero">
<path style=" stroke:none;fill-rule:nonzero;fill:url(#linear3);" d="M 160.855469 171.25 L 102.097656 171.25 L 102.097656 78.523438 L 160.855469 78.523438 Z M 160.855469 171.25 "/>
</g>
</g>
<path style=" stroke:none;fill-rule:nonzero;fill:rgb(16.862745%,45.490196%,69.411765%);fill-opacity:1;" d="M 94.984375 85.546875 L 92.625 87.285156 C 93.660156 89.542969 94.617188 92.078125 95.511719 94.835938 L 99.027344 91.496094 C 97.769531 89.339844 96.441406 87.34375 94.984375 85.5625 "/>
<path style=" stroke:none;fill-rule:nonzero;fill:rgb(7.058824%,35.294118%,61.960784%);fill-opacity:1;" d="M 97.777344 83.6875 L 94.984375 85.546875 C 96.433594 87.332031 97.769531 89.328125 99.027344 91.484375 L 102.125 88.800781 C 100.753906 86.917969 99.308594 85.191406 97.777344 83.683594 "/>
<path style=" stroke:none;fill-rule:nonzero;fill:rgb(5.098039%,50.980392%,79.215686%);fill-opacity:1;" d="M 84.632812 94.144531 C 87.300781 91.601562 89.96875 89.316406 92.625 87.289062 L 90.707031 83.613281 C 88.5625 86.214844 86.605469 89.648438 84.621094 94.144531 "/>
<path style=" stroke:none;fill-rule:nonzero;fill:rgb(5.098039%,50.980392%,79.215686%);fill-opacity:1;" d="M 86.558594 78.441406 C 88.09375 79.722656 89.464844 81.492188 90.71875 83.609375 L 91.925781 82.253906 C 90.1875 80.628906 88.304688 79.292969 86.257812 78.285156 L 86.511719 78.40625 C 86.523438 78.421875 86.539062 78.433594 86.558594 78.4375 "/>
<g clip-path="url(#clip9)" clip-rule="nonzero">
<g clip-path="url(#clip10)" clip-rule="nonzero">
<path style=" stroke:none;fill-rule:nonzero;fill:url(#linear4);" d="M 22.015625 78.164062 L 71.410156 78.164062 L 71.410156 152.503906 L 22.015625 152.503906 Z M 22.015625 78.164062 "/>
</g>
</g>
<path style=" stroke:none;fill-rule:nonzero;fill:rgb(7.058824%,48.235294%,79.215686%);fill-opacity:1;" d="M 91.929688 82.253906 L 90.71875 83.609375 C 91.390625 84.730469 92.015625 85.957031 92.640625 87.285156 L 95 85.546875 C 94.058594 84.378906 93.035156 83.277344 91.941406 82.253906 "/>
<g clip-path="url(#clip11)" clip-rule="nonzero">
<g clip-path="url(#clip12)" clip-rule="nonzero">
<path style=" stroke:none;fill-rule:nonzero;fill:url(#linear5);" d="M 31.863281 94.261719 L 84.75 94.261719 L 84.75 175.921875 L 31.863281 175.921875 Z M 31.863281 94.261719 "/>
</g>
</g>
<path style=" stroke:none;fill-rule:nonzero;fill:rgb(1.960784%,63.137255%,90.196078%);fill-opacity:1;" d="M 22.039062 152.449219 C 18.203125 159.824219 14.027344 167.683594 9.375 175.988281 L 17.535156 175.984375 C 18.613281 167.738281 20.144531 159.871094 22.042969 152.449219 "/>
<g clip-path="url(#clip13)" clip-rule="nonzero">
<g clip-path="url(#clip14)" clip-rule="nonzero">
<g clip-path="url(#clip15)" clip-rule="nonzero">
<g clip-path="url(#clip16)" clip-rule="nonzero">
<path style=" stroke:none;fill-rule:nonzero;fill:url(#linear6);" d="M 19.527344 188.488281 L 0.265625 79.257812 L 88.296875 63.734375 L 107.558594 172.96875 L 19.527344 188.492188 Z M 19.527344 188.488281 "/>
</g>
</g>
</g>
</g>
<g clip-path="url(#clip17)" clip-rule="nonzero">
<g clip-path="url(#clip18)" clip-rule="nonzero">
<path style=" stroke:none;fill-rule:nonzero;fill:url(#linear7);" d="M 189.746094 76.128906 L 222.738281 76.128906 L 222.738281 133.753906 L 189.746094 133.753906 Z M 189.746094 76.128906 "/>
</g>
</g>
<path style=" stroke:none;fill-rule:nonzero;fill:rgb(2.745098%,60.392157%,88.235294%);fill-opacity:1;" d="M 175.703125 165.851562 C 180.480469 160.015625 184.375 150.101562 189.683594 133.769531 C 183.558594 142.1875 177.402344 149.421875 171.214844 155.320312 C 171.207031 155.339844 171.207031 155.355469 171.195312 155.378906 C 172.542969 159.40625 174.019531 162.972656 175.703125 165.851562 "/>
<path style=" stroke:none;fill-rule:nonzero;fill:rgb(9.803922%,41.176471%,73.72549%);fill-opacity:1;" d="M 175.703125 165.851562 C 174.078125 167.835938 172.359375 169.34375 170.4375 170.464844 L 169.167969 171.148438 C 171.246094 172.273438 173.515625 172.988281 175.863281 173.261719 L 175.878906 173.261719 L 176.976562 173.355469 L 177.042969 173.355469 L 177.554688 173.382812 L 177.628906 173.382812 L 178.167969 173.390625 L 178.75 173.382812 L 178.929688 173.371094 L 179.339844 173.355469 L 179.539062 173.332031 L 179.921875 173.304688 C 179.945312 173.304688 179.957031 173.304688 179.96875 173.292969 C 180.019531 173.292969 180.066406 173.285156 180.117188 173.285156 L 180.542969 173.242188 C 180.558594 173.242188 180.5625 173.234375 180.582031 173.234375 C 180.621094 173.226562 180.667969 173.21875 180.710938 173.214844 L 181.171875 173.148438 C 181.21875 173.148438 181.257812 173.136719 181.308594 173.128906 L 181.824219 173.046875 L 181.851562 173.046875 C 181.863281 173.035156 181.886719 173.035156 181.898438 173.03125 L 182.925781 172.816406 C 180.09375 171.792969 177.722656 169.328125 175.675781 165.847656 "/>
<path style=" stroke:none;fill-rule:nonzero;fill:rgb(11.764706%,36.078431%,70.196078%);fill-opacity:1;" d="M 135.222656 173.390625 C 137.308594 173.386719 139.390625 173.1875 141.4375 172.792969 C 143.363281 172.4375 145.296875 171.902344 147.234375 171.226562 C 148.84375 172.015625 150.53125 172.597656 152.320312 172.964844 C 153.707031 173.246094 155.136719 173.390625 156.671875 173.390625 Z M 135.222656 173.390625 "/>
<path style=" stroke:none;fill-rule:nonzero;fill:rgb(11.764706%,36.078431%,70.196078%);fill-opacity:1;" d="M 156.660156 173.390625 C 161.734375 173.390625 165.753906 172.792969 169.167969 171.152344 C 171.242188 172.277344 173.515625 172.992188 175.863281 173.261719 L 175.878906 173.261719 L 176.976562 173.359375 L 177.042969 173.359375 L 177.554688 173.386719 L 177.628906 173.386719 L 178.167969 173.394531 L 156.644531 173.394531 Z M 156.660156 173.390625 "/>
<path style=" stroke:none;fill-rule:nonzero;fill:rgb(11.372549%,37.647059%,70.980392%);fill-opacity:1;" d="M 178.183594 173.390625 L 178.765625 173.382812 L 178.945312 173.371094 L 179.351562 173.355469 L 179.554688 173.332031 L 179.9375 173.304688 C 179.957031 173.304688 179.964844 173.304688 179.984375 173.296875 C 180.035156 173.296875 180.082031 173.285156 180.136719 173.285156 L 180.558594 173.242188 C 180.570312 173.242188 180.578125 173.234375 180.597656 173.234375 C 180.636719 173.226562 180.683594 173.21875 180.726562 173.214844 L 181.183594 173.148438 C 181.230469 173.148438 181.277344 173.140625 181.320312 173.128906 L 181.835938 173.046875 L 181.863281 173.046875 C 181.882812 173.035156 181.902344 173.035156 181.914062 173.03125 L 182.941406 172.816406 C 183.949219 173.183594 185.011719 173.371094 186.082031 173.363281 L 178.167969 173.386719 Z M 178.183594 173.390625 "/>
<path style=" stroke:none;fill-rule:nonzero;fill:rgb(9.019608%,37.254902%,67.058824%);fill-opacity:1;" d="M 171.183594 155.378906 C 171.183594 155.367188 171.175781 155.355469 171.175781 155.347656 L 164.394531 161.28125 L 160.859375 163.9375 L 163.921875 167.265625 C 165.53125 168.828125 167.246094 170.144531 169.140625 171.164062 L 170.414062 170.480469 C 172.332031 169.359375 174.054688 167.851562 175.679688 165.867188 C 173.996094 162.988281 172.519531 159.425781 171.167969 155.394531 "/>
<g clip-path="url(#clip19)" clip-rule="nonzero">
<g clip-path="url(#clip20)" clip-rule="nonzero">
<path style=" stroke:none;fill-rule:nonzero;fill:url(#linear8);" d="M 246.421875 172.832031 L 175.65625 172.832031 L 175.65625 73.996094 L 246.421875 73.996094 Z M 246.421875 172.832031 "/>
</g>
</g>
</g>
</svg>
