<?xml version="1.0" encoding="UTF-8"?>
<svg xmlns="http://www.w3.org/2000/svg" xmlns:xlink="http://www.w3.org/1999/xlink" width="256px" height="256px" viewBox="0 0 256 256" version="1.1">
<g id="surface1">
<path style=" stroke:none;fill-rule:nonzero;fill:rgb(14.117647%,16.078431%,21.960784%);fill-opacity:1;" d="M 60 0 L 196 0 C 229.136719 0 256 26.863281 256 60 L 256 196 C 256 229.136719 229.136719 256 196 256 L 60 256 C 26.863281 256 0 229.136719 0 196 L 0 60 C 0 26.863281 26.863281 0 60 0 Z M 60 0 "/>
<path style=" stroke:none;fill-rule:nonzero;fill:rgb(35.294118%,16.078431%,89.411765%);fill-opacity:1;" d="M 72.914062 94.449219 L 120.824219 54.359375 L 120.890625 214.457031 L 104.585938 228 L 104.316406 94.859375 Z M 72.914062 94.449219 "/>
<path style=" stroke:none;fill-rule:nonzero;fill:rgb(35.294118%,16.078431%,89.411765%);fill-opacity:1;" d="M 183.085938 161.546875 L 135.175781 201.640625 L 135.109375 41.542969 L 151.414062 28 L 151.683594 161.140625 Z M 183.085938 161.546875 "/>
</g>
</svg>
