<?xml version="1.0" encoding="UTF-8"?>
<svg xmlns="http://www.w3.org/2000/svg" xmlns:xlink="http://www.w3.org/1999/xlink" width="256px" height="256px" viewBox="0 0 256 256" version="1.1">
<g id="surface1">
<path style=" stroke:none;fill-rule:nonzero;fill:rgb(14.117647%,16.078431%,21.960784%);fill-opacity:1;" d="M 60 0 L 196 0 C 229.136719 0 256 26.863281 256 60 L 256 196 C 256 229.136719 229.136719 256 196 256 L 60 256 C 26.863281 256 0 229.136719 0 196 L 0 60 C 0 26.863281 26.863281 0 60 0 Z M 60 0 "/>
<path style=" stroke:none;fill-rule:nonzero;fill:rgb(0%,34.901961%,61.176471%);fill-opacity:1;" d="M 230.335938 187.085938 C 231.980469 184.230469 233 181.015625 233 178.125 L 233 77.871094 C 233 74.992188 231.984375 71.773438 230.335938 68.921875 L 128.003906 128.003906 Z M 230.335938 187.085938 "/>
<path style=" stroke:none;fill-rule:nonzero;fill:rgb(0%,26.666667%,50.980392%);fill-opacity:1;" d="M 137.09375 243.992188 L 223.910156 193.878906 C 226.410156 192.433594 228.6875 189.9375 230.335938 187.085938 L 128.003906 128.003906 L 25.664062 187.085938 C 27.308594 189.9375 29.585938 192.429688 32.089844 193.878906 L 118.902344 243.992188 C 123.902344 246.882812 132.09375 246.882812 137.089844 243.992188 Z M 137.09375 243.992188 "/>
<path style=" stroke:none;fill-rule:nonzero;fill:rgb(39.607843%,60.392157%,82.352941%);fill-opacity:1;" d="M 230.335938 68.921875 C 228.6875 66.0625 226.410156 63.570312 223.910156 62.132812 L 137.09375 12.007812 C 132.09375 9.113281 123.90625 9.113281 118.90625 12.007812 L 32.089844 62.132812 C 27.089844 65.011719 23 72.101562 23 77.871094 L 23 178.125 C 23 181.011719 24.015625 184.226562 25.664062 187.082031 L 128.003906 128.003906 Z M 230.335938 68.921875 "/>
<path style=" stroke:none;fill-rule:nonzero;fill:rgb(100%,100%,100%);fill-opacity:1;" d="M 128.003906 57.996094 C 89.402344 57.996094 58.003906 89.402344 58.003906 128 C 58.003906 166.601562 89.402344 198.003906 128.003906 198.003906 C 152.910156 198.003906 176.140625 184.597656 188.621094 163.023438 L 158.328125 145.492188 C 152.078125 156.296875 140.460938 163 128.003906 163 C 108.703125 163 93 147.300781 93 127.996094 C 93 108.699219 108.707031 92.996094 128.003906 92.996094 C 140.453125 92.996094 152.082031 99.710938 158.320312 110.503906 L 188.621094 92.976562 C 176.132812 71.398438 152.910156 57.996094 128.003906 57.996094 Z M 182.449219 116.328125 L 182.449219 124.113281 L 174.667969 124.113281 L 174.667969 131.886719 L 182.449219 131.886719 L 182.449219 139.667969 L 190.226562 139.667969 L 190.226562 131.886719 L 198 131.886719 L 198 124.113281 L 190.226562 124.113281 L 190.226562 116.328125 Z M 211.613281 116.328125 L 211.613281 124.113281 L 203.839844 124.113281 L 203.839844 131.886719 L 211.613281 131.886719 L 211.613281 139.667969 L 219.398438 139.667969 L 219.398438 131.886719 L 227.171875 131.886719 L 227.171875 124.113281 L 219.398438 124.113281 L 219.398438 116.328125 Z M 211.613281 116.328125 "/>
</g>
</svg>
