<?xml version="1.0" encoding="UTF-8"?>
<svg xmlns="http://www.w3.org/2000/svg" xmlns:xlink="http://www.w3.org/1999/xlink" width="256px" height="256px" viewBox="0 0 256 256" version="1.1">
<g id="surface1">
<path style=" stroke:none;fill-rule:nonzero;fill:rgb(14.117647%,16.078431%,21.960784%);fill-opacity:1;" d="M 60 0 L 196 0 C 229.136719 0 256 26.863281 256 60 L 256 196 C 256 229.136719 229.136719 256 196 256 L 60 256 C 26.863281 256 0 229.136719 0 196 L 0 60 C 0 26.863281 26.863281 0 60 0 Z M 60 0 "/>
<path style=" stroke:none;fill-rule:nonzero;fill:rgb(0%,34.901961%,61.176471%);fill-opacity:1;" d="M 238.1875 184.800781 C 239.96875 182.058594 241.070312 178.96875 241.070312 176.191406 L 241.070312 79.851562 C 241.070312 77.082031 239.96875 73.992188 238.1875 71.246094 L 127.546875 128.027344 Z M 238.1875 184.800781 "/>
<path style=" stroke:none;fill-rule:nonzero;fill:rgb(0%,26.666667%,50.980392%);fill-opacity:1;" d="M 137.375 239.488281 L 231.242188 191.328125 C 233.945312 189.941406 236.40625 187.542969 238.1875 184.800781 L 127.546875 128.027344 L 16.894531 184.800781 C 18.675781 187.542969 21.136719 189.941406 23.84375 191.328125 L 117.707031 239.488281 C 123.113281 242.265625 131.96875 242.265625 137.371094 239.488281 Z M 137.375 239.488281 "/>
<path style=" stroke:none;fill-rule:nonzero;fill:rgb(39.607843%,60.392157%,82.352941%);fill-opacity:1;" d="M 238.1875 71.25 C 236.40625 68.5 233.945312 66.105469 231.242188 64.722656 L 137.375 16.554688 C 131.96875 13.777344 123.117188 13.777344 117.710938 16.554688 L 23.84375 64.722656 C 18.4375 67.496094 14.015625 74.304688 14.015625 79.851562 L 14.015625 176.191406 C 14.015625 178.964844 15.117188 182.054688 16.898438 184.796875 L 127.546875 128.027344 Z M 238.1875 71.25 "/>
<path style=" stroke:none;fill-rule:nonzero;fill:rgb(100%,100%,100%);fill-opacity:1;" d="M 127.546875 60.753906 C 85.8125 60.753906 51.859375 90.929688 51.859375 128.023438 C 51.859375 165.117188 85.8125 195.292969 127.546875 195.292969 C 154.476562 195.292969 179.59375 182.414062 193.085938 161.679688 L 160.335938 144.832031 C 153.578125 155.214844 141.015625 161.65625 127.546875 161.65625 C 106.679688 161.65625 89.703125 146.570312 89.703125 128.023438 C 89.703125 109.472656 106.683594 94.382812 127.546875 94.382812 C 141.007812 94.382812 153.582031 100.839844 160.328125 111.210938 L 193.085938 94.363281 C 179.585938 73.628906 154.476562 60.75 127.546875 60.75 Z M 186.417969 116.808594 L 186.417969 124.285156 L 178.003906 124.285156 L 178.003906 131.757812 L 186.417969 131.757812 L 186.417969 139.238281 L 194.820312 139.238281 L 194.820312 131.757812 L 203.226562 131.757812 L 203.226562 124.285156 L 194.820312 124.285156 L 194.820312 116.808594 Z M 217.949219 116.808594 L 217.949219 124.285156 L 209.539062 124.285156 L 209.539062 131.757812 L 217.949219 131.757812 L 217.949219 139.238281 L 226.363281 139.238281 L 226.363281 131.757812 L 234.769531 131.757812 L 234.769531 124.285156 L 226.363281 124.285156 L 226.363281 116.808594 Z M 217.949219 116.808594 "/>
</g>
</svg>
