<?xml version="1.0" encoding="utf-8"?>
<svg viewBox="122 122 256 256" xmlns="http://www.w3.org/2000/svg">
  <rect width="256" height="256" fill="#242938" rx="60" x="122" y="122" transform="matrix(1, 0, 0, 1, 0, 7.105427357601002e-15)"/>
  <path fill="#00599c" d="M 331.625 297.128 C 332.939 294.851 333.752 292.289 333.752 289.982 L 333.752 210.017 C 333.752 207.719 332.941 205.153 331.625 202.876 L 250.003 250.002 L 331.625 297.128 Z M 331.625 297.128" transform="matrix(1, 0, 0, 1, 0, 7.105427357601002e-15)"/>
  <path fill="#004482" d="M 257.254 342.522 L 326.501 302.546 C 328.496 301.394 330.311 299.404 331.625 297.128 L 250.003 250.002 L 168.373 297.128 C 169.686 299.404 171.502 301.392 173.497 302.546 L 242.744 342.522 C 246.733 344.826 253.264 344.826 257.251 342.522 L 257.254 342.522 Z M 257.254 342.522" transform="matrix(1, 0, 0, 1, 0, 7.105427357601002e-15)"/>
  <path fill="#659ad2" d="M 331.625 202.877 C 330.311 200.596 328.496 198.608 326.501 197.461 L 257.253 157.48 C 253.264 155.173 246.734 155.173 242.746 157.48 L 173.498 197.461 C 169.509 199.76 166.248 205.414 166.248 210.017 L 166.248 289.98 C 166.248 292.286 167.059 294.85 168.374 297.126 L 250.002 250.002 L 331.625 202.877 Z M 331.625 202.877" transform="matrix(1, 0, 0, 1, 0, 7.105427357601002e-15)"/>
  <path fill="#fff" d="M 250.002 194.164 C 219.214 194.164 194.166 219.212 194.166 250 C 194.166 280.789 219.214 305.837 250.002 305.837 C 269.869 305.837 288.399 295.145 298.353 277.936 L 274.192 263.952 C 269.205 272.569 259.939 277.917 250.002 277.917 C 234.609 277.917 222.083 265.394 222.083 249.999 C 222.083 234.604 234.611 222.08 250.002 222.08 C 259.932 222.08 269.208 227.435 274.185 236.046 L 298.353 222.063 C 288.393 204.853 269.869 194.162 250.002 194.162 L 250.002 194.164 Z M 293.432 240.692 L 293.432 246.899 L 287.225 246.899 L 287.225 253.1 L 293.432 253.1 L 293.432 259.308 L 299.633 259.308 L 299.633 253.1 L 305.835 253.1 L 305.835 246.899 L 299.633 246.899 L 299.633 240.692 L 293.432 240.692 Z M 316.694 240.692 L 316.694 246.899 L 310.491 246.899 L 310.491 253.1 L 316.694 253.1 L 316.694 259.308 L 322.901 259.308 L 322.901 253.1 L 329.102 253.1 L 329.102 246.899 L 322.901 246.899 L 322.901 240.692 L 316.694 240.692 Z" transform="matrix(1, 0, 0, 1, 0, 7.105427357601002e-15)"/>
</svg>