<?xml version="1.0" encoding="UTF-8"?>
<svg xmlns="http://www.w3.org/2000/svg" xmlns:xlink="http://www.w3.org/1999/xlink" width="256px" height="256px" viewBox="0 0 256 256" version="1.1">
<g id="surface1">
<path style=" stroke:none;fill-rule:nonzero;fill:rgb(14.117647%,16.078431%,21.960784%);fill-opacity:1;" d="M 60 0 L 196 0 C 229.136719 0 256 26.863281 256 60 L 256 196 C 256 229.136719 229.136719 256 196 256 L 60 256 C 26.863281 256 0 229.136719 0 196 L 0 60 C 0 26.863281 26.863281 0 60 0 Z M 60 0 "/>
<path style=" stroke:none;fill-rule:nonzero;fill:rgb(0%,34.901961%,61.176471%);fill-opacity:1;" d="M 209.625 175.128906 C 210.9375 172.851562 211.753906 170.289062 211.753906 167.980469 L 211.753906 88.015625 C 211.753906 85.71875 210.941406 83.152344 209.625 80.875 L 128.003906 128.003906 Z M 209.625 175.128906 "/>
<path style=" stroke:none;fill-rule:nonzero;fill:rgb(0%,26.666667%,50.980392%);fill-opacity:1;" d="M 135.253906 220.523438 L 204.5 180.546875 C 206.496094 179.394531 208.3125 177.402344 209.625 175.128906 L 128.003906 128.003906 L 46.371094 175.128906 C 47.6875 177.402344 49.503906 179.390625 51.496094 180.546875 L 120.742188 220.523438 C 124.734375 222.824219 131.265625 222.824219 135.25 220.523438 Z M 135.253906 220.523438 "/>
<path style=" stroke:none;fill-rule:nonzero;fill:rgb(39.607843%,60.392157%,82.352941%);fill-opacity:1;" d="M 209.625 80.878906 C 208.3125 78.597656 206.496094 76.609375 204.5 75.460938 L 135.253906 35.480469 C 131.265625 33.171875 124.734375 33.171875 120.746094 35.480469 L 51.496094 75.460938 C 47.507812 77.761719 44.246094 83.414062 44.246094 88.015625 L 44.246094 167.980469 C 44.246094 170.285156 45.058594 172.851562 46.375 175.125 L 128.003906 128.003906 Z M 209.625 80.878906 "/>
<path style=" stroke:none;fill-rule:nonzero;fill:rgb(100%,100%,100%);fill-opacity:1;" d="M 128.003906 72.164062 C 97.214844 72.164062 72.164062 97.210938 72.164062 128 C 72.164062 158.789062 97.214844 183.835938 128.003906 183.835938 C 147.867188 183.835938 166.398438 173.144531 176.351562 155.9375 L 152.191406 141.953125 C 147.203125 150.570312 137.9375 155.917969 128.003906 155.917969 C 112.609375 155.917969 100.082031 143.394531 100.082031 128 C 100.082031 112.605469 112.609375 100.078125 128.003906 100.078125 C 137.933594 100.078125 147.207031 105.433594 152.183594 114.046875 L 176.351562 100.0625 C 166.394531 82.851562 147.867188 72.160156 128.003906 72.160156 Z M 171.433594 118.691406 L 171.433594 124.898438 L 165.226562 124.898438 L 165.226562 131.101562 L 171.433594 131.101562 L 171.433594 137.308594 L 177.632812 137.308594 L 177.632812 131.101562 L 183.835938 131.101562 L 183.835938 124.898438 L 177.632812 124.898438 L 177.632812 118.691406 Z M 194.695312 118.691406 L 194.695312 124.898438 L 188.492188 124.898438 L 188.492188 131.101562 L 194.695312 131.101562 L 194.695312 137.308594 L 200.902344 137.308594 L 200.902344 131.101562 L 207.101562 131.101562 L 207.101562 124.898438 L 200.902344 124.898438 L 200.902344 118.691406 Z M 194.695312 118.691406 "/>
</g>
</svg>
