<?xml version="1.0" encoding="UTF-8"?>
<svg xmlns="http://www.w3.org/2000/svg" xmlns:xlink="http://www.w3.org/1999/xlink" width="256px" height="256px" viewBox="0 0 256 256" version="1.1">
<rect width="256" height="256" fill="#242938" rx="60"/>
<g id="surface1">
<path style=" stroke:none;fill-rule:nonzero;fill:rgb(0%,34.901961%,61.176471%);fill-opacity:1;" d="M 237.53125 191.640625 C 239.3125 188.554688 240.414062 185.078125 240.414062 181.953125 L 240.414062 73.558594 C 240.414062 70.445312 239.3125 66.964844 237.53125 63.878906 L 126.890625 127.761719 Z M 237.53125 191.640625 "/>
<path style=" stroke:none;fill-rule:nonzero;fill:rgb(0%,26.666667%,50.980392%);fill-opacity:1;" d="M 136.71875 253.171875 L 230.585938 198.984375 C 233.289062 197.421875 235.75 194.726562 237.53125 191.640625 L 126.890625 127.761719 L 16.238281 191.640625 C 18.019531 194.726562 20.480469 197.421875 23.1875 198.984375 L 117.050781 253.171875 C 122.457031 256.296875 131.3125 256.296875 136.714844 253.171875 Z M 136.71875 253.171875 "/>
<path style=" stroke:none;fill-rule:nonzero;fill:rgb(39.607843%,60.392157%,82.352941%);fill-opacity:1;" d="M 237.53125 63.882812 C 235.75 60.789062 233.289062 58.09375 230.585938 56.539062 L 136.71875 2.34375 C 131.3125 -0.78125 122.460938 -0.78125 117.054688 2.34375 L 23.1875 56.539062 C 17.78125 59.65625 13.359375 67.320312 13.359375 73.558594 L 13.359375 181.953125 C 13.359375 185.074219 14.460938 188.550781 16.242188 191.636719 L 126.890625 127.761719 Z M 237.53125 63.882812 "/>
<path style=" stroke:none;fill-rule:nonzero;fill:rgb(100%,100%,100%);fill-opacity:1;" d="M 126.890625 52.070312 C 85.15625 52.070312 51.203125 86.023438 51.203125 127.757812 C 51.203125 169.492188 85.15625 203.445312 126.890625 203.445312 C 153.820312 203.445312 178.9375 188.953125 192.429688 165.625 L 159.679688 146.671875 C 152.921875 158.351562 140.359375 165.601562 126.890625 165.601562 C 106.023438 165.601562 89.046875 148.625 89.046875 127.757812 C 89.046875 106.886719 106.027344 89.910156 126.890625 89.910156 C 140.351562 89.910156 152.925781 97.171875 159.671875 108.84375 L 192.429688 89.886719 C 178.929688 66.558594 153.820312 52.066406 126.890625 52.066406 Z M 185.761719 115.140625 L 185.761719 123.554688 L 177.347656 123.554688 L 177.347656 131.960938 L 185.761719 131.960938 L 185.761719 140.375 L 194.164062 140.375 L 194.164062 131.960938 L 202.570312 131.960938 L 202.570312 123.554688 L 194.164062 123.554688 L 194.164062 115.140625 Z M 217.292969 115.140625 L 217.292969 123.554688 L 208.882812 123.554688 L 208.882812 131.960938 L 217.292969 131.960938 L 217.292969 140.375 L 225.707031 140.375 L 225.707031 131.960938 L 234.113281 131.960938 L 234.113281 123.554688 L 225.707031 123.554688 L 225.707031 115.140625 Z M 217.292969 115.140625 "/>
</g>
</svg>
