<?xml version="1.0" encoding="UTF-8"?>
<svg xmlns="http://www.w3.org/2000/svg" xmlns:xlink="http://www.w3.org/1999/xlink" width="256px" height="256px" viewBox="0 0 256 256" version="1.1">
<g id="surface1">
<path style=" stroke:none;fill-rule:nonzero;fill:rgb(14.117647%,16.078431%,21.960784%);fill-opacity:1;" d="M 60 0 L 196 0 C 229.136719 0 256 26.863281 256 60 L 256 196 C 256 229.136719 229.136719 256 196 256 L 60 256 C 26.863281 256 0 229.136719 0 196 L 0 60 C 0 26.863281 26.863281 0 60 0 Z M 60 0 "/>
<path style=" stroke:none;fill-rule:nonzero;fill:rgb(60.784314%,30.980392%,58.823529%);fill-opacity:1;" d="M 206.464844 77.214844 L 132.804688 34.816406 C 131.585938 34.054688 129.90625 33.75 128.078125 33.75 C 126.246094 33.75 124.566406 34.207031 123.347656 34.816406 L 50.144531 77.367188 C 47.550781 78.890625 45.722656 82.703125 45.722656 85.601562 L 45.722656 170.550781 C 45.722656 172.226562 46.027344 174.210938 47.246094 175.886719 L 210.125 81.332031 C 209.210938 79.503906 207.839844 78.128906 206.464844 77.214844 Z M 206.464844 77.214844 "/>
<path style=" stroke:none;fill-rule:nonzero;fill:rgb(40.784314%,12.941176%,47.843137%);fill-opacity:1;" d="M 46.789062 175.734375 C 47.550781 176.953125 48.621094 178.023438 49.6875 178.632812 L 123.195312 221.183594 C 124.417969 221.945312 126.09375 222.25 127.925781 222.25 C 129.753906 222.25 131.429688 221.792969 132.652344 221.183594 L 205.855469 178.632812 C 208.449219 177.109375 210.277344 173.296875 210.277344 170.398438 L 210.277344 85.449219 C 210.277344 84.078125 210.125 82.550781 209.363281 81.179688 Z M 46.789062 175.734375 "/>
<path style=" stroke:none;fill-rule:nonzero;fill:rgb(100%,100%,100%);fill-opacity:1;" d="M 160.558594 146.453125 C 154.15625 157.738281 141.953125 165.363281 128.078125 165.363281 C 107.488281 165.363281 90.714844 148.589844 90.714844 128 C 90.714844 107.410156 107.488281 90.636719 128.078125 90.636719 C 141.953125 90.636719 154.15625 98.261719 160.558594 109.699219 L 180.386719 98.261719 C 170.015625 80.113281 150.496094 67.757812 128.078125 67.757812 C 94.828125 67.757812 67.835938 94.753906 67.835938 128 C 67.835938 161.246094 94.828125 188.242188 128.078125 188.242188 C 150.34375 188.242188 169.863281 176.039062 180.234375 158.042969 Z M 178.402344 131.355469 L 179.777344 124.796875 L 173.371094 124.796875 L 173.371094 117.628906 L 181.148438 117.628906 L 182.980469 108.175781 L 190.453125 108.175781 L 188.621094 117.476562 L 194.417969 117.476562 L 196.246094 108.175781 L 203.566406 108.175781 L 201.738281 117.476562 L 205.398438 117.476562 L 205.398438 124.644531 L 200.363281 124.644531 L 198.992188 131.203125 L 205.398438 131.203125 L 205.398438 138.371094 L 197.621094 138.371094 L 195.789062 147.523438 L 188.316406 147.523438 L 190.144531 138.371094 L 184.351562 138.371094 L 182.523438 147.523438 L 175.203125 147.523438 L 177.03125 138.371094 L 173.371094 138.371094 L 173.371094 131.203125 L 178.402344 131.203125 Z M 185.722656 131.355469 L 191.519531 131.355469 L 192.890625 124.796875 L 187.097656 124.796875 Z M 185.722656 131.355469 "/>
</g>
</svg>
