<?xml version="1.0" encoding="utf-8"?>
<svg viewBox="122 122 256 256" xmlns="http://www.w3.org/2000/svg">
  <rect width="256" height="256" fill="#242938" rx="60" x="122" y="122" transform="matrix(1, 0, 0, 1, 0, 7.105427357601002e-15)"/>
  <path fill="#9B4F96" d="M 328.465 199.215 L 254.805 156.818 C 253.584 156.054 251.907 155.75 250.077 155.75 C 248.247 155.75 246.568 156.208 245.349 156.818 L 172.144 199.368 C 169.552 200.892 167.722 204.705 167.722 207.603 L 167.722 292.55 C 167.722 294.227 168.026 296.21 169.248 297.887 L 332.125 203.333 C 331.21 201.502 329.838 200.13 328.465 199.215 Z" transform="matrix(1, 0, 0, 1, 0, 7.105427357601002e-15)"/>
  <path fill="#68217A" d="M 168.79 297.736 C 169.552 298.955 170.62 300.023 171.686 300.632 L 245.196 343.182 C 246.417 343.946 248.094 344.25 249.924 344.25 C 251.754 344.25 253.431 343.793 254.652 343.182 L 327.855 300.632 C 330.449 299.108 332.279 295.295 332.279 292.397 L 332.279 207.45 C 332.279 206.078 332.125 204.552 331.364 203.179 L 168.79 297.736 Z" transform="matrix(1, 0, 0, 1, 0, 7.105427357601002e-15)"/>
  <path fill="#fff" d="M 282.56 268.453 C 276.155 279.74 263.955 287.364 250.077 287.364 C 229.487 287.364 212.713 270.588 212.713 250 C 212.713 229.412 229.487 212.636 250.077 212.636 C 263.955 212.636 276.155 220.26 282.56 231.7 L 302.388 220.26 C 292.016 202.113 272.495 189.759 250.077 189.759 C 216.83 189.759 189.835 216.753 189.835 250 C 189.835 283.247 216.83 310.241 250.077 310.241 C 272.343 310.241 291.863 298.04 302.234 280.044 L 282.56 268.453 Z M 300.404 253.356 L 301.777 246.797 L 295.372 246.797 L 295.372 239.629 L 303.149 239.629 L 304.979 230.174 L 312.453 230.174 L 310.623 239.477 L 316.417 239.477 L 318.247 230.174 L 325.567 230.174 L 323.737 239.477 L 327.397 239.477 L 327.397 246.644 L 322.365 246.644 L 320.992 253.203 L 327.397 253.203 L 327.397 260.371 L 319.62 260.371 L 317.79 269.522 L 310.316 269.522 L 312.146 260.371 L 306.352 260.371 L 304.522 269.522 L 297.202 269.522 L 299.032 260.371 L 295.372 260.371 L 295.372 253.203 L 300.404 253.203 L 300.404 253.356 Z M 307.724 253.356 L 313.519 253.356 L 314.891 246.797 L 309.097 246.797 L 307.724 253.356 Z" transform="matrix(1, 0, 0, 1, 0, 7.105427357601002e-15)"/>
</svg>