<?xml version="1.0" encoding="UTF-8"?>
<svg xmlns="http://www.w3.org/2000/svg" xmlns:xlink="http://www.w3.org/1999/xlink" width="256px" height="256px" viewBox="0 0 256 256" version="1.1">
<g id="surface1">
<path style=" stroke:none;fill-rule:nonzero;fill:rgb(14.117647%,16.078431%,21.960784%);fill-opacity:1;" d="M 60 0 L 196 0 C 229.136719 0 256 26.863281 256 60 L 256 196 C 256 229.136719 229.136719 256 196 256 L 60 256 C 26.863281 256 0 229.136719 0 196 L 0 60 C 0 26.863281 26.863281 0 60 0 Z M 60 0 "/>
<path style=" stroke:none;fill-rule:nonzero;fill:rgb(60.784314%,30.980392%,58.823529%);fill-opacity:1;" d="M 228.132812 63.191406 L 134.132812 9.085938 C 132.574219 8.109375 130.433594 7.722656 128.097656 7.722656 C 125.761719 7.722656 123.621094 8.304688 122.0625 9.085938 L 28.644531 63.386719 C 25.335938 65.332031 23 70.195312 23 73.894531 L 23 182.300781 C 23 184.441406 23.390625 186.972656 24.945312 189.113281 L 232.804688 68.445312 C 231.636719 66.109375 229.886719 64.359375 228.132812 63.191406 Z M 228.132812 63.191406 "/>
<path style=" stroke:none;fill-rule:nonzero;fill:rgb(40.784314%,12.941176%,47.843137%);fill-opacity:1;" d="M 24.363281 188.917969 C 25.335938 190.476562 26.699219 191.835938 28.058594 192.613281 L 121.867188 246.914062 C 123.425781 247.890625 125.566406 248.277344 127.902344 248.277344 C 130.238281 248.277344 132.378906 247.695312 133.9375 246.914062 L 227.355469 192.613281 C 230.664062 190.667969 233 185.804688 233 182.105469 L 233 73.699219 C 233 71.949219 232.804688 70.003906 231.832031 68.25 Z M 24.363281 188.917969 "/>
<path style=" stroke:none;fill-rule:nonzero;fill:rgb(100%,100%,100%);fill-opacity:1;" d="M 169.550781 151.550781 C 161.378906 165.953125 145.808594 175.683594 128.097656 175.683594 C 101.824219 175.683594 80.414062 154.273438 80.414062 128 C 80.414062 101.726562 101.824219 80.316406 128.097656 80.316406 C 145.808594 80.316406 161.378906 90.046875 169.550781 104.644531 L 194.855469 90.046875 C 181.617188 66.886719 156.707031 51.121094 128.097656 51.121094 C 85.667969 51.121094 51.222656 85.570312 51.222656 128 C 51.222656 170.429688 85.667969 204.878906 128.097656 204.878906 C 156.511719 204.878906 181.425781 189.308594 194.660156 166.339844 Z M 192.324219 132.28125 L 194.074219 123.914062 L 185.902344 123.914062 L 185.902344 114.765625 L 195.828125 114.765625 L 198.160156 102.699219 L 207.699219 102.699219 L 205.363281 114.570312 L 212.757812 114.570312 L 215.09375 102.699219 L 224.4375 102.699219 L 222.101562 114.570312 L 226.773438 114.570312 L 226.773438 123.71875 L 220.347656 123.71875 L 218.597656 132.085938 L 226.773438 132.085938 L 226.773438 141.234375 L 216.847656 141.234375 L 214.511719 152.910156 L 204.972656 152.910156 L 207.308594 141.234375 L 199.914062 141.234375 L 197.578125 152.910156 L 188.234375 152.910156 L 190.570312 141.234375 L 185.902344 141.234375 L 185.902344 132.085938 L 192.324219 132.085938 Z M 201.664062 132.28125 L 209.0625 132.28125 L 210.8125 123.914062 L 203.417969 123.914062 Z M 201.664062 132.28125 "/>
</g>
</svg>
