<?xml version="1.0" encoding="utf-8"?>
<svg viewBox="122 122 256 256" xmlns="http://www.w3.org/2000/svg">
  <rect width="256" height="256" fill="#242938" rx="60" x="122" y="122" transform="matrix(1, 0, 0, 1, 0, 7.105427357601002e-15)"/>
  <path fill="#1572B6" d="M 182.021 325.406 L 166.895 155.75 L 333.104 155.75 L 317.963 325.38 L 249.899 344.25 L 182.021 325.406 Z" transform="matrix(1, 0, 0, 1, 0, 7.105427357601002e-15)"/>
  <path fill="#33A9DC" d="M 250.001 329.827 L 305.001 314.578 L 317.941 169.621 L 250.001 169.621 L 250.001 329.827 Z" transform="matrix(1, 0, 0, 1, 0, 7.105427357601002e-15)"/>
  <path fill="#fff" d="M 250.001 231.087 L 277.535 231.087 L 279.437 209.78 L 250.001 209.78 L 250.001 188.972 L 302.177 188.972 L 301.678 194.555 L 296.563 251.895 L 250.001 251.895 L 250.001 231.087 Z" transform="matrix(1, 0, 0, 1, 0, 7.105427357601002e-15)"/>
  <path fill="#EBEBEB" d="M 250.124 285.126 L 250.033 285.153 L 226.86 278.896 L 225.378 262.301 L 204.494 262.301 L 207.408 294.973 L 250.03 306.802 L 250.124 306.775 L 250.124 285.126 Z" transform="matrix(1, 0, 0, 1, 0, 7.105427357601002e-15)"/>
  <path fill="#fff" d="M 275.766 251.015 L 273.259 278.88 L 250.052 285.144 L 250.052 306.793 L 292.709 294.971 L 293.022 291.455 L 296.641 251.015 L 275.766 251.015 Z" transform="matrix(1, 0, 0, 1, 0, 7.105427357601002e-15)"/>
  <path fill="#EBEBEB" d="M 250.072 188.972 L 250.072 209.78 L 199.812 209.78 L 199.395 205.104 L 198.447 194.555 L 197.949 188.972 L 250.072 188.972 Z M 250.001 231.09 L 250.001 251.898 L 227.12 251.898 L 226.703 247.222 L 225.754 236.673 L 225.258 231.09 L 250.001 231.09 Z" transform="matrix(1, 0, 0, 1, 0, 7.105427357601002e-15)"/>
</svg>