<?xml version="1.0" encoding="utf-8"?>
<svg viewBox="122 122 256 256" xmlns="http://www.w3.org/2000/svg">
  <rect width="256" height="256" fill="#242938" rx="60" y="122" x="122" transform="matrix(1, 0, 0, 1, 0, 7.105427357601002e-15)"/>
  <path fill="#1572B6" d="M 182.021 328.695 L 166.896 159.039 L 333.104 159.039 L 317.964 328.669 L 249.899 347.539 L 182.021 328.695 Z" transform="matrix(1, 0, 0, 1, 0, 7.105427357601002e-15)"/>
  <path fill="#33A9DC" d="M 250.002 333.116 L 305.002 317.867 L 317.941 172.909 L 250.002 172.909 L 250.002 333.116 Z" transform="matrix(1, 0, 0, 1, 0, 7.105427357601002e-15)"/>
  <path fill="#fff" d="M 250.002 234.376 L 277.535 234.376 L 279.437 213.07 L 250.002 213.07 L 250.002 192.262 L 302.178 192.262 L 301.68 197.844 L 296.564 255.184 L 250.002 255.184 L 250.002 234.376 Z" transform="matrix(1, 0, 0, 1, 0, 7.105427357601002e-15)"/>
  <path fill="#EBEBEB" d="M 250.126 288.415 L 250.033 288.441 L 226.861 282.186 L 225.38 265.59 L 204.495 265.59 L 207.409 298.261 L 250.031 310.09 L 250.126 310.064 L 250.126 288.415 Z" transform="matrix(1, 0, 0, 1, 0, 7.105427357601002e-15)"/>
  <path fill="#fff" d="M 275.766 254.304 L 273.261 282.168 L 250.053 288.433 L 250.053 310.082 L 292.709 298.259 L 293.023 294.745 L 296.643 254.304 L 275.766 254.304 Z" transform="matrix(1, 0, 0, 1, 0, 7.105427357601002e-15)"/>
  <path fill="#EBEBEB" d="M 250.073 192.262 L 250.073 213.07 L 199.813 213.07 L 199.397 208.394 L 198.448 197.844 L 197.95 192.262 L 250.073 192.262 Z M 250.002 234.378 L 250.002 255.186 L 227.121 255.186 L 226.705 250.51 L 225.755 239.962 L 225.258 234.378 L 250.002 234.378 Z" transform="matrix(1, 0, 0, 1, 0, 7.105427357601002e-15)"/>
</svg>