<?xml version="1.0" encoding="UTF-8"?>
<svg xmlns="http://www.w3.org/2000/svg" xmlns:xlink="http://www.w3.org/1999/xlink" width="256px" height="256px" viewBox="0 0 256 256" version="1.1">
<g id="surface1">
<path style=" stroke:none;fill-rule:nonzero;fill:rgb(14.117647%,16.078431%,21.960784%);fill-opacity:1;" d="M 60 0 L 196 0 C 229.136719 0 256 26.863281 256 60 L 256 196 C 256 229.136719 229.136719 256 196 256 L 60 256 C 26.863281 256 0 229.136719 0 196 L 0 60 C 0 26.863281 26.863281 0 60 0 Z M 60 0 "/>
<path style=" stroke:none;fill-rule:nonzero;fill:rgb(8.235294%,44.705882%,71.372549%);fill-opacity:1;" d="M 60.019531 206.695312 L 44.894531 37.039062 L 211.105469 37.039062 L 195.964844 206.667969 L 127.898438 225.539062 Z M 60.019531 206.695312 "/>
<path style=" stroke:none;fill-rule:nonzero;fill:rgb(20%,66.27451%,86.27451%);fill-opacity:1;" d="M 128.003906 211.117188 L 183.003906 195.867188 L 195.941406 50.910156 L 128.003906 50.910156 Z M 128.003906 211.117188 "/>
<path style=" stroke:none;fill-rule:nonzero;fill:rgb(100%,100%,100%);fill-opacity:1;" d="M 128.003906 112.375 L 155.535156 112.375 L 157.4375 91.070312 L 128.003906 91.070312 L 128.003906 70.261719 L 180.179688 70.261719 L 179.679688 75.84375 L 174.5625 133.183594 L 128.003906 133.183594 Z M 128.003906 112.375 "/>
<path style=" stroke:none;fill-rule:nonzero;fill:rgb(92.156863%,92.156863%,92.156863%);fill-opacity:1;" d="M 128.125 166.414062 L 128.03125 166.441406 L 104.859375 160.1875 L 103.378906 143.589844 L 82.496094 143.589844 L 85.410156 176.261719 L 128.03125 188.089844 L 128.125 188.0625 Z M 128.125 166.414062 "/>
<path style=" stroke:none;fill-rule:nonzero;fill:rgb(100%,100%,100%);fill-opacity:1;" d="M 153.765625 132.304688 L 151.261719 160.167969 L 128.054688 166.433594 L 128.054688 188.082031 L 170.710938 176.257812 L 171.023438 172.746094 L 174.644531 132.304688 Z M 153.765625 132.304688 "/>
<path style=" stroke:none;fill-rule:nonzero;fill:rgb(92.156863%,92.156863%,92.156863%);fill-opacity:1;" d="M 128.074219 70.261719 L 128.074219 91.070312 L 77.8125 91.070312 L 77.398438 86.394531 L 76.449219 75.84375 L 75.949219 70.261719 Z M 128.003906 112.378906 L 128.003906 133.1875 L 105.121094 133.1875 L 104.703125 128.511719 L 103.753906 117.960938 L 103.257812 112.378906 Z M 128.003906 112.378906 "/>
</g>
</svg>
