<?xml version="1.0" encoding="utf-8"?>
<svg viewBox="122 122 256 256" xmlns="http://www.w3.org/2000/svg">
  <rect width="256" height="256" fill="#242938" rx="60" y="122" x="122" transform="matrix(1, 0, 0, 1, 0, 7.105427357601002e-15)"/>
  <path fill="#1572B6" d="M 172.291 339.487 L 155 145.548 L 345 145.548 L 327.691 339.458 L 249.885 361.03 L 172.291 339.487 Z" transform="matrix(1, 0, 0, 1, 0, 7.105427357601002e-15)"/>
  <path fill="#33A9DC" d="M 250.002 344.543 L 312.875 327.11 L 327.666 161.406 L 250.002 161.406 L 250.002 344.543 Z" transform="matrix(1, 0, 0, 1, 0, 7.105427357601002e-15)"/>
  <path fill="#fff" d="M 250.002 231.671 L 281.476 231.671 L 283.651 207.313 L 250.002 207.313 L 250.002 183.525 L 309.645 183.525 L 309.075 189.907 L 303.23 255.457 L 250.002 255.457 L 250.002 231.671 Z" transform="matrix(1, 0, 0, 1, 0, 7.105427357601002e-15)"/>
  <path fill="#EBEBEB" d="M 250.142 293.443 L 250.038 293.474 L 223.547 286.321 L 221.853 267.351 L 197.981 267.351 L 201.312 304.699 L 250.035 318.22 L 250.142 318.19 L 250.142 293.443 Z" transform="matrix(1, 0, 0, 1, 0, 7.105427357601002e-15)"/>
  <path fill="#fff" d="M 279.454 254.448 L 276.588 286.302 L 250.059 293.462 L 250.059 318.21 L 298.822 304.695 L 299.181 300.678 L 303.316 254.448 L 279.454 254.448 Z" transform="matrix(1, 0, 0, 1, 0, 7.105427357601002e-15)"/>
  <path fill="#EBEBEB" d="M 250.081 183.525 L 250.081 207.313 L 192.628 207.313 L 192.15 201.967 L 191.069 189.907 L 190.499 183.525 L 250.081 183.525 Z M 250.002 231.672 L 250.002 255.459 L 223.845 255.459 L 223.368 250.113 L 222.283 238.055 L 221.718 231.672 L 250.002 231.672 Z" transform="matrix(1, 0, 0, 1, 0, 7.105427357601002e-15)"/>
</svg>