<?xml version="1.0" encoding="UTF-8"?>
<svg xmlns="http://www.w3.org/2000/svg" xmlns:xlink="http://www.w3.org/1999/xlink" width="256px" height="256px" viewBox="0 0 256 256" version="1.1">
<g id="surface1">
<path style=" stroke:none;fill-rule:nonzero;fill:rgb(14.117647%,16.078431%,21.960784%);fill-opacity:1;" d="M 60 0 L 196 0 C 229.136719 0 256 26.863281 256 60 L 256 196 C 256 229.136719 229.136719 256 196 256 L 60 256 C 26.863281 256 0 229.136719 0 196 L 0 60 C 0 26.863281 26.863281 0 60 0 Z M 60 0 "/>
<path style=" stroke:none;fill-rule:nonzero;fill:rgb(8.235294%,44.705882%,71.372549%);fill-opacity:1;" d="M 63.085938 200.003906 L 48.644531 38 L 207.355469 38 L 192.898438 199.980469 L 127.902344 218 Z M 63.085938 200.003906 "/>
<path style=" stroke:none;fill-rule:nonzero;fill:rgb(20%,66.27451%,86.27451%);fill-opacity:1;" d="M 128 204.226562 L 180.523438 189.664062 L 192.878906 51.246094 L 128 51.246094 Z M 128 204.226562 "/>
<path style=" stroke:none;fill-rule:nonzero;fill:rgb(100%,100%,100%);fill-opacity:1;" d="M 128 109.941406 L 154.292969 109.941406 L 156.109375 89.59375 L 128 89.59375 L 128 69.722656 L 177.824219 69.722656 L 177.347656 75.054688 L 172.464844 129.808594 L 128 129.808594 Z M 128 109.941406 "/>
<path style=" stroke:none;fill-rule:nonzero;fill:rgb(92.156863%,92.156863%,92.156863%);fill-opacity:1;" d="M 128.117188 161.542969 L 128.03125 161.566406 L 105.902344 155.59375 L 104.488281 139.746094 L 84.546875 139.746094 L 87.328125 170.945312 L 128.027344 182.238281 L 128.117188 182.214844 Z M 128.117188 161.542969 "/>
<path style=" stroke:none;fill-rule:nonzero;fill:rgb(100%,100%,100%);fill-opacity:1;" d="M 152.605469 128.96875 L 150.210938 155.578125 L 128.050781 161.558594 L 128.050781 182.230469 L 168.78125 170.941406 L 169.082031 167.585938 L 172.539062 128.96875 Z M 152.605469 128.96875 "/>
<path style=" stroke:none;fill-rule:nonzero;fill:rgb(92.156863%,92.156863%,92.156863%);fill-opacity:1;" d="M 128.070312 69.722656 L 128.070312 89.59375 L 80.074219 89.59375 L 79.679688 85.128906 L 78.773438 75.054688 L 78.296875 69.722656 Z M 128 109.941406 L 128 129.8125 L 106.152344 129.8125 L 105.753906 125.347656 L 104.847656 115.273438 L 104.375 109.941406 Z M 128 109.941406 "/>
</g>
</svg>
