<?xml version="1.0" encoding="UTF-8"?>
<svg xmlns="http://www.w3.org/2000/svg" xmlns:xlink="http://www.w3.org/1999/xlink" width="256px" height="256px" viewBox="0 0 256 256" version="1.1">
<g id="surface1">
<path style=" stroke:none;fill-rule:nonzero;fill:rgb(3.529412%,18.039216%,12.54902%);fill-opacity:1;" d="M 60 0 L 196 0 C 229.136719 0 256 26.863281 256 60 L 256 196 C 256 229.136719 229.136719 256 196 256 L 60 256 C 26.863281 256 0 229.136719 0 196 L 0 60 C 0 26.863281 26.863281 0 60 0 Z M 60 0 "/>
<path style=" stroke:none;fill-rule:nonzero;fill:rgb(100%,100%,100%);fill-opacity:1;" d="M 112.6875 51 L 141.304688 51 L 141.304688 183.449219 C 126.625 186.238281 115.847656 187.351562 104.144531 187.351562 C 69.210938 187.351562 51 171.558594 51 141.269531 C 51 112.097656 70.324219 93.148438 100.238281 93.148438 C 104.886719 93.148438 108.414062 93.515625 112.6875 94.632812 Z M 112.6875 117.671875 C 109.34375 116.558594 106.558594 116.1875 103.027344 116.1875 C 88.535156 116.1875 80.171875 125.105469 80.171875 140.710938 C 80.171875 155.949219 88.164062 164.3125 102.84375 164.3125 C 106 164.3125 108.601562 164.125 112.6875 163.570312 Z M 112.6875 117.671875 "/>
<path style=" stroke:none;fill-rule:nonzero;fill:rgb(100%,100%,100%);fill-opacity:1;" d="M 186.824219 95.1875 L 186.824219 161.523438 C 186.824219 184.378906 185.152344 195.339844 180.136719 204.816406 C 175.492188 213.921875 169.359375 219.683594 156.722656 226 L 130.152344 213.363281 C 142.789062 207.417969 148.921875 202.21875 152.820312 194.226562 C 156.910156 186.050781 158.210938 176.574219 158.210938 151.675781 L 158.210938 95.1875 Z M 158.210938 51.152344 L 186.824219 51.152344 L 186.824219 80.511719 L 158.210938 80.511719 Z M 158.210938 51.152344 "/>
</g>
</svg>
