<?xml version="1.0" encoding="UTF-8"?>
<svg xmlns="http://www.w3.org/2000/svg" xmlns:xlink="http://www.w3.org/1999/xlink" width="256px" height="256px" viewBox="0 0 256 256" version="1.1">
<g id="surface1">
<path style=" stroke:none;fill-rule:nonzero;fill:rgb(31.764706%,16.862745%,83.137255%);fill-opacity:1;" d="M 60 0 L 196 0 C 229.136719 0 256 26.863281 256 60 L 256 196 C 256 229.136719 229.136719 256 196 256 L 60 256 C 26.863281 256 0 229.136719 0 196 L 0 60 C 0 26.863281 26.863281 0 60 0 Z M 60 0 "/>
<path style=" stroke:none;fill-rule:nonzero;fill:rgb(100%,100%,100%);fill-opacity:1;" d="M 24.050781 168.941406 C 21.816406 168.941406 19.914062 168.210938 18.347656 166.75 C 16.78125 165.246094 16 163.464844 16 161.402344 C 16 159.300781 16.78125 157.5 18.347656 156 C 19.914062 154.5 21.816406 153.746094 24.050781 153.746094 C 26.328125 153.746094 28.246094 154.5 29.8125 156 C 31.414062 157.5 32.214844 159.300781 32.214844 161.402344 C 32.214844 163.464844 31.414062 165.246094 29.8125 166.75 C 28.246094 168.210938 26.328125 168.941406 24.050781 168.941406 Z M 24.050781 168.941406 "/>
<path style=" stroke:none;fill-rule:nonzero;fill:rgb(100%,100%,100%);fill-opacity:1;" d="M 113.46875 167.703125 L 98.929688 167.703125 L 60.625 108.386719 C 59.65625 106.886719 58.855469 105.328125 58.21875 103.714844 L 57.886719 103.714844 C 58.183594 105.441406 58.332031 109.136719 58.332031 114.800781 L 58.332031 167.703125 L 45.46875 167.703125 L 45.46875 87 L 60.960938 87 L 97.976562 144.910156 C 99.542969 147.3125 100.550781 148.964844 100.996094 149.863281 L 101.222656 149.863281 C 100.847656 147.726562 100.660156 144.105469 100.660156 139.003906 L 100.660156 87 L 113.46875 87 Z M 113.46875 167.703125 "/>
<path style=" stroke:none;fill-rule:nonzero;fill:rgb(100%,100%,100%);fill-opacity:1;" d="M 176.097656 167.703125 L 131.085938 167.703125 L 131.085938 87 L 174.308594 87 L 174.308594 98.367188 L 144.394531 98.367188 L 144.394531 121.21875 L 171.960938 121.21875 L 171.960938 132.53125 L 144.394531 132.53125 L 144.394531 156.394531 L 176.097656 156.394531 Z M 176.097656 167.703125 "/>
<path style=" stroke:none;fill-rule:nonzero;fill:rgb(100%,100%,100%);fill-opacity:1;" d="M 240.070312 98.367188 L 217.03125 98.367188 L 217.03125 167.703125 L 203.722656 167.703125 L 203.722656 98.367188 L 180.742188 98.367188 L 180.742188 87 L 240.070312 87 Z M 240.070312 98.367188 "/>
</g>
</svg>
