<?xml version="1.0" encoding="UTF-8"?>
<svg xmlns="http://www.w3.org/2000/svg" xmlns:xlink="http://www.w3.org/1999/xlink" width="256px" height="256px" viewBox="0 0 256 256" version="1.1">
<g id="surface1">
<path style=" stroke:none;fill-rule:nonzero;fill:rgb(14.117647%,16.078431%,21.960784%);fill-opacity:1;" d="M 60 0 L 196 0 C 229.136719 0 256 26.863281 256 60 L 256 196 C 256 229.136719 229.136719 256 196 256 L 60 256 C 26.863281 256 0 229.136719 0 196 L 0 60 C 0 26.863281 26.863281 0 60 0 Z M 60 0 "/>
<path style=" stroke:none;fill-rule:nonzero;fill:rgb(100%,100%,100%);fill-opacity:1;" d="M 89.777344 193.925781 C 82.539062 188.234375 74.820312 182.773438 69.542969 175.089844 C 58.441406 161.535156 49.894531 145.84375 44.050781 129.351562 C 40.515625 118.628906 39.308594 107.132812 34.753906 96.824219 C 29.992188 89.335938 35.570312 81.152344 43.773438 78.769531 C 47.421875 78.070312 53.84375 74.625 46.09375 77.085938 C 39.144531 82.183594 38.472656 72.460938 45.597656 71.84375 C 50.460938 71.199219 52.25 67.21875 50.585938 63.632812 C 45.367188 60.230469 63.242188 56.488281 54.25 51.410156 C 44.878906 41.300781 67.355469 39.355469 61.8125 50.835938 C 60.484375 59.664062 77.515625 49.21875 73.5625 59.414062 C 77.582031 64.308594 88.605469 60.527344 88.332031 67.394531 C 94.183594 67.796875 96.191406 72.722656 101.683594 73.097656 C 107.378906 75.671875 117.699219 77.695312 119.636719 84.109375 C 113.988281 88.582031 100.910156 74.875 100.28125 87.253906 C 101.984375 105.535156 101.550781 124.371094 108.242188 141.785156 C 111.40625 152.328125 119.078125 160.628906 126.003906 168.839844 C 132.632812 176.882812 141.609375 182.542969 150.761719 187.308594 C 158.789062 191.097656 167.445312 193.605469 176.191406 195.183594 C 179.742188 192.46875 186.007812 182.378906 191.542969 186.632812 C 191.804688 191.414062 180.554688 196.628906 191.011719 196.097656 C 197.152344 194.246094 201.410156 200.847656 206.46875 194.894531 C 211.128906 200.410156 225.832031 191.367188 222.519531 202.648438 C 218.035156 205.539062 211.496094 203.789062 207.007812 207.769531 C 199.605469 204.070312 193.714844 211.078125 185.519531 210.191406 C 176.417969 211.820312 167.15625 212.480469 157.929688 212.492188 C 142.792969 211.296875 127.335938 210.792969 112.9375 205.523438 C 104.824219 203.167969 96.90625 198.546875 89.777344 193.925781 Z M 102.5625 199.464844 C 110.484375 202.890625 118.230469 206.5 126.910156 207.589844 C 140.683594 209.507812 154.90625 212.453125 168.726562 209.765625 C 162.472656 206.941406 156.003906 210.863281 149.773438 207.746094 C 142.296875 209.351562 134.277344 207.335938 126.679688 206.339844 C 118.035156 202.492188 108.710938 199.847656 100.617188 194.847656 C 90.507812 191.15625 105.847656 199.585938 108.578125 200.269531 C 114.898438 203.855469 101.628906 198.429688 99.757812 196.9375 C 94.460938 193.96875 93.789062 194.589844 99.234375 197.605469 C 100.328125 198.246094 101.414062 198.917969 102.5625 199.464844 Z M 87.488281 188.8125 C 95.164062 191.65625 87.457031 183.414062 83.9375 183.894531 C 82.378906 181.191406 77.984375 179.484375 81.085938 178.03125 C 75.507812 179.96875 75.242188 170.667969 72.621094 171.996094 C 66.71875 170.132812 70.324219 163.53125 63.296875 159.480469 C 62.652344 155.207031 56.3125 151.503906 54.289062 145.0625 C 53.394531 141.765625 47.125 132.292969 50.976562 141.105469 C 54.257812 149.59375 60.027344 156.859375 64.832031 164.117188 C 68.558594 171.027344 72.964844 178.253906 79.757812 182.5625 C 82.046875 184.761719 84.257812 188.125 87.488281 188.8125 Z M 65.375 164.535156 C 65.644531 163.375 66.78125 167.042969 65.375 164.535156 Z M 96.683594 192.222656 C 98.382812 191.460938 94.238281 191.261719 96.683594 192.222656 Z M 100.847656 193.742188 C 100.417969 191.644531 98.945312 194.914062 100.847656 193.742188 Z M 106.0625 195.917969 C 108.546875 193.554688 102.238281 194.425781 106.0625 195.917969 Z M 115.003906 200.898438 C 116.511719 198.667969 110.175781 200.058594 115.003906 200.898438 Z M 97.835938 188.933594 C 101.695312 186.4375 92.855469 188.898438 97.835938 188.933594 Z M 101.75 190.882812 C 101.640625 189.566406 100.355469 191.476562 101.75 190.882812 Z M 121.304688 203.089844 C 124.449219 205.074219 139.664062 207.4375 130.136719 203.902344 C 128.542969 204.238281 112.472656 199.359375 121.304688 203.089844 Z M 90.261719 178.910156 C 89.957031 177.589844 85.382812 177.449219 90.261719 178.910156 Z M 99.363281 184.21875 C 101.734375 182.566406 94.445312 182.941406 99.363281 184.21875 Z M 107.023438 188.910156 C 110.421875 187.628906 101.507812 187.625 107.023438 188.910156 Z M 86.554688 174.878906 C 90.246094 177.707031 101.433594 175.238281 92.207031 173.1875 C 88.003906 170.949219 78.539062 169.417969 84.992188 174.539062 Z M 112.210938 190.53125 C 113.746094 187.914062 105.765625 189.039062 112.210938 190.53125 Z M 104.414062 184.339844 C 113.433594 186.890625 96.828125 178.632812 102.1875 183.398438 L 103.375 183.9375 Z M 120.042969 193.371094 C 128.585938 193.453125 112.324219 192.191406 120.042969 193.371094 Z M 83.269531 169.933594 C 82.9375 168.34375 81.160156 170.066406 83.269531 169.933594 Z M 134.492188 201.476562 C 134.71875 198.601562 131.703125 203.613281 134.492188 201.476562 Z M 97.847656 178.863281 C 97.332031 177.347656 95.179688 178.800781 97.847656 178.863281 Z M 84.078125 168.9375 C 88.984375 168.640625 77.367188 166.773438 84.078125 168.9375 Z M 67.769531 158.394531 C 67.160156 156.042969 62.433594 154.167969 67.769531 158.394531 Z M 110.589844 185.566406 C 109.6875 184.542969 110.164062 185.789062 110.589844 185.566406 Z M 137.238281 201.921875 C 137.152344 200.355469 135.789062 202.515625 137.238281 201.921875 Z M 108.230469 183.132812 C 108.710938 181.113281 104.046875 182.519531 108.230469 183.132812 Z M 88.375 170.546875 C 92.023438 170.15625 82.527344 168.082031 88.375 170.546875 Z M 121.960938 191.417969 C 127.644531 189.164062 116.417969 190.316406 121.960938 191.417969 Z M 104.488281 179.558594 C 111.042969 180.402344 96.695312 175.101562 103.050781 179.085938 Z M 127.265625 193.5625 C 133.382812 189.902344 131.363281 202.125 137.644531 194.59375 C 143.835938 190.070312 132.296875 200.183594 139.929688 195.402344 C 145.449219 191.710938 153.601562 197.152344 158.753906 198.925781 C 162.457031 198.742188 166.054688 202.128906 169.855469 200.070312 C 177.164062 198.101562 155.558594 197.148438 161.222656 193.65625 C 154.535156 195.601562 149.59375 191.335938 146.300781 187.050781 C 138.800781 185.320312 130.125 181.484375 126.382812 174.84375 C 124.855469 172.351562 128.585938 175.195312 125.0625 171.121094 C 120.542969 167.101562 118.285156 162.535156 115.25 157.648438 C 111.625 155.714844 111.203125 150.019531 110.835938 157.457031 C 110.863281 152.765625 106.457031 149.605469 105.382812 150.917969 C 105.363281 146.398438 110.097656 148.664062 106.785156 145.320312 C 106.070312 140.636719 103.722656 135.753906 103.015625 130.464844 C 101.917969 127.914062 102.859375 122.457031 99.273438 128.226562 C 97.964844 134.328125 98.839844 120.730469 100.871094 125.214844 C 103.539062 120.640625 99.914062 121.179688 99.765625 121.8125 C 101.503906 117.953125 100.863281 112.480469 99.3125 114.566406 C 100.238281 110.476562 100.773438 99.511719 97.925781 101.453125 C 99.652344 97.175781 101.199219 81.878906 93.699219 87.710938 C 90.660156 87.753906 85.398438 88.816406 82.910156 90.054688 C 90.710938 94.355469 82.125 91.605469 78.949219 90.921875 C 78.535156 94.902344 75.386719 93.179688 71.457031 93.21875 C 77.734375 93.996094 68.402344 99.640625 64.800781 97.449219 C 60.125 99.683594 68.835938 105.261719 64.894531 106.988281 C 65.378906 109.589844 57.730469 106.046875 58.332031 112.054688 C 53.789062 110.144531 57.707031 119.179688 59.976562 116.121094 C 67.699219 118.214844 65.414062 122.976562 65.609375 127.503906 C 64.351562 130.140625 59.398438 121.304688 64.507812 121.714844 C 60.476562 115.167969 60.046875 119.347656 56.699219 122.390625 C 55.921875 122.609375 65.242188 126.714844 59.390625 128.746094 C 64.539062 129.539062 64.683594 134.042969 65.734375 136.894531 C 68.824219 140.117188 68.191406 133.335938 71.894531 137.207031 C 69.550781 133.757812 59.488281 127.488281 67.589844 129.5 C 67.546875 126.027344 66.125 123.230469 68.609375 123.296875 C 71.066406 118.84375 66.03125 134.273438 71.574219 128.617188 C 73.109375 127.945312 73.488281 124.15625 76.246094 128.972656 C 80.25 132.914062 77.691406 135.769531 72.042969 132.160156 C 73.054688 135.589844 79.601562 136.8125 78.371094 142.175781 C 79.671875 146.890625 81.5 145.15625 83.089844 144.882812 C 84.335938 149.464844 85.046875 146.09375 85.105469 143.914062 C 90.816406 145.136719 89.480469 148.515625 91.265625 150.871094 C 95.203125 152.648438 85.632812 138.828125 92.390625 146.71875 C 99.5 153.136719 95.054688 155.816406 88.675781 154.789062 C 92.714844 154.460938 94.015625 160.246094 99.066406 160.046875 C 103.675781 162.234375 106.792969 170.652344 98.851562 167.148438 C 96.097656 164.664062 86.355469 161.601562 94.3125 166.324219 C 101.664062 169.730469 107.503906 171.765625 114.59375 176.039062 C 119.667969 179.664062 121.859375 183.8125 123.785156 184.632812 C 119.519531 186.671875 110.933594 183.007812 117.308594 181.882812 C 113.332031 181.160156 108.859375 179.148438 112.667969 184.105469 C 115.90625 186.808594 124.144531 186.523438 125.621094 186.828125 C 124.371094 189.585938 122.222656 189.804688 125.671875 190.019531 C 121.824219 192.070312 126.90625 192.390625 127.265625 193.5625 Z M 119.390625 171.328125 C 117.046875 168.878906 116.441406 164.289062 118.976562 168.28125 C 120.273438 168.804688 123.136719 175.78125 119.390625 171.328125 Z M 145.03125 187.613281 C 146.492188 187.519531 145.074219 188.726562 145.03125 187.613281 Z M 115.691406 165.320312 C 115.601562 161.617188 116.539062 168.175781 115.691406 165.320312 Z M 113.144531 161.890625 C 110.195312 156.199219 116.859375 163.503906 113.144531 161.890625 Z M 82.261719 140.578125 C 83.992188 140.113281 83.113281 143.539062 82.261719 140.578125 Z M 106.839844 153.898438 C 107.902344 149.90625 108.089844 157.25 106.839844 153.898438 Z M 89.476562 141.824219 C 88.25 139.621094 92.035156 143.890625 89.476562 141.824219 Z M 104.378906 146.601562 C 101.585938 140.347656 106.355469 143.1875 104.996094 147.628906 Z M 78.679688 129.464844 C 77.429688 127.414062 75.367188 121.390625 76.03125 119.554688 C 76.632812 122.546875 82.398438 132.433594 78.859375 123.648438 C 74.949219 116.285156 83.53125 126.039062 84.414062 127.878906 C 84.824219 129.703125 82.003906 127.378906 83.914062 131.664062 C 80.425781 126.785156 81.855469 134.355469 78.679688 129.464844 Z M 70.738281 123.992188 C 71.0625 119.222656 72.554688 127.261719 70.738281 123.992188 Z M 74.308594 125.222656 C 76.015625 121.621094 77.199219 130.242188 74.308594 125.222656 Z M 65.714844 118.574219 C 62.757812 115.636719 60.617188 112.925781 65.855469 116.75 C 67.871094 116.828125 61.371094 110.589844 66.339844 114.769531 C 71.5625 115.722656 68.917969 123.332031 65.714844 118.574219 Z M 70.230469 118.453125 C 71.945312 116.753906 71.140625 120.132812 70.230469 118.453125 Z M 73.007812 119.347656 C 70.40625 114.464844 76.167969 121.390625 73.007812 119.347656 Z M 67.484375 114.070312 C 58.890625 106.417969 78.289062 118.070312 68.890625 115.488281 Z M 92.113281 128.378906 C 88.394531 126.148438 91.128906 112.675781 92.398438 121.890625 C 96.015625 120.722656 92.199219 126.648438 94.894531 126.59375 C 94.46875 130.335938 93.261719 131.679688 92.113281 128.378906 Z M 101.222656 133.761719 C 101.589844 129.703125 101.992188 136.539062 101.222656 133.761719 Z M 99.640625 132.199219 C 100.050781 130.464844 99.683594 134.242188 99.640625 132.199219 Z M 69.171875 111.554688 C 63.648438 103.9375 85.222656 119.261719 72.710938 113.488281 C 71.402344 113.144531 69.828125 113.023438 69.171875 111.554688 Z M 86.714844 120.855469 C 86.191406 114.441406 87.882812 121.917969 86.714844 120.855469 Z M 100.03125 129.398438 C 101.0625 125.746094 100.109375 131.816406 100.03125 129.398438 Z M 70.019531 108.648438 C 73.300781 107.945312 83.621094 114.410156 74.144531 110.492188 C 73.089844 109.328125 70.84375 109.859375 70.019531 108.648438 Z M 98.203125 122.695312 C 98.554688 116.136719 100.160156 118.777344 98.214844 123.632812 Z M 72.460938 106.363281 C 73.796875 104.402344 68.910156 97.496094 73.164062 103.886719 C 75.003906 105.347656 78.488281 106.335938 75.410156 106.949219 C 80.25 111.21875 74.230469 108.105469 72.460938 106.363281 Z M 96.808594 120.644531 C 97.734375 113.171875 97.625 125.023438 96.808594 120.644531 Z M 69.667969 99.460938 C 70.691406 99.027344 70.207031 100.824219 69.667969 99.460938 Z M 76.019531 103.242188 C 77.652344 99.8125 79.035156 107.066406 76.019531 103.242188 Z M 93.933594 113.207031 C 93.917969 111.890625 94.269531 115.125 93.933594 113.207031 Z M 92.894531 110.910156 C 90.410156 104.777344 95.207031 114.160156 92.894531 110.910156 Z M 91.367188 106.890625 C 90.953125 104.355469 92.789062 110.074219 91.367188 106.890625 Z M 93.855469 102.851562 C 92.148438 99.84375 96.007812 89.601562 96.4375 95.953125 C 94.636719 100.902344 95.917969 103.671875 97.175781 97.03125 C 99.496094 91.808594 96.675781 107.34375 93.855469 102.851562 Z M 96.40625 87.617188 C 97.152344 86.703125 96.570312 88.714844 96.40625 87.617188 Z M 92.144531 171.636719 C 91.132812 170.753906 92.269531 172.199219 92.144531 171.636719 Z M 100.925781 176.082031 C 105.8125 177.335938 105.789062 175.320312 101.371094 174.722656 C 98.996094 172.511719 91.5 170.171875 98.210938 174.449219 C 98.65625 175.574219 100.058594 175.546875 100.925781 176.082031 Z M 83.578125 164.558594 C 86.269531 166.566406 93.71875 170.246094 87.414062 165.324219 C 89.539062 162.851562 83.34375 161.539062 85.398438 159.886719 C 80.171875 156.6875 81.277344 156.972656 84.9375 157.074219 C 78.65625 154.265625 85.84375 154.476562 85.507812 153.039062 C 83.085938 152.558594 73.476562 148.765625 79.128906 153.347656 C 73.382812 150.421875 77.761719 154.441406 76.023438 154.015625 C 70.148438 152.414062 81.253906 158.488281 75.089844 156.980469 C 78.460938 159.652344 84.164062 163.824219 76.515625 159.808594 C 75.507812 161.257812 81.988281 163.457031 83.578125 164.558594 Z M 92.765625 169.835938 C 103.9375 173.4375 87.289062 165.4375 92.765625 169.835938 Z M 139.796875 198.328125 C 139.9375 196.109375 138.269531 200.21875 139.796875 198.328125 Z M 144.628906 200.363281 C 147.207031 197.863281 144.734375 204.339844 148.898438 199.75 C 148.945312 196.464844 148.769531 194.523438 144.113281 198.515625 C 142.828125 199.226562 142.257812 202.253906 144.628906 200.363281 Z M 67.898438 152.175781 C 67.105469 149.0625 62.351562 149.078125 67.898438 152.175781 Z M 73.058594 155.554688 C 71.144531 152.378906 66.222656 152.679688 73.058594 155.554688 Z M 102.425781 173.265625 C 105.289062 175.8125 115.59375 175.132812 105.90625 173.578125 C 104.472656 171.457031 96.796875 171.96875 102.425781 173.265625 Z M 142.789062 198.195312 C 147.203125 194.492188 138.515625 199.847656 142.789062 198.195312 Z M 151.96875 204.5 C 151.996094 203.3125 150.066406 205.019531 151.96875 204.5 Z M 151.980469 202.835938 C 156.867188 197.660156 147.246094 203.144531 151.980469 202.835938 Z M 55.203125 141.546875 C 51.039062 135.601562 52.613281 132.933594 48.597656 128.082031 C 47.839844 124.371094 41.710938 115.949219 45.429688 124.871094 C 48.835938 130.085938 49.847656 138.164062 55.203125 141.546875 Z M 150.449219 201.191406 C 159.4375 195.382812 146.757812 198.660156 150.449219 201.191406 Z M 157.3125 203.878906 C 161.8125 200.015625 154.464844 203.070312 157.3125 203.878906 Z M 66.367188 145.605469 C 67.65625 143.6875 63.042969 145.359375 66.367188 145.605469 Z M 155.878906 202.042969 C 160.238281 199.234375 154.875 199.664062 155.089844 202.304688 Z M 96.726562 164.761719 C 96.574219 162.863281 94.421875 164.921875 96.726562 164.761719 Z M 100.382812 166.863281 C 99.21875 164.515625 98.59375 167.230469 100.382812 166.863281 Z M 162.871094 203.941406 C 168.457031 199.914062 159.488281 203.171875 161.699219 204.707031 Z M 160.734375 202.910156 C 165.28125 199.097656 155.929688 204.597656 160.734375 202.910156 Z M 171.660156 210.183594 C 174.714844 208.140625 167.949219 209.523438 171.660156 210.183594 Z M 69.167969 144.222656 C 73.265625 145.140625 85.53125 154.304688 78.292969 144.855469 C 74.585938 143.761719 76.808594 134.699219 73.03125 136.304688 C 75.566406 140.542969 75.117188 142.347656 69.789062 139.675781 C 63.09375 136.40625 66.027344 141.292969 67.335938 142.640625 C 65.550781 143.046875 69.695312 144.1875 69.167969 144.222656 Z M 50.519531 129.492188 C 51.25 126.460938 43.769531 112.816406 46.984375 122.65625 C 48.144531 124.71875 48.027344 128.621094 50.519531 129.492188 Z M 84.753906 150.597656 C 82.644531 148.835938 84.652344 150.351562 84.753906 150.597656 Z M 89.945312 151.808594 C 89.941406 148.597656 84.207031 150.503906 89.945312 151.808594 Z M 134.929688 180.167969 C 134.074219 177.972656 131.539062 180.117188 134.929688 180.167969 Z M 137.089844 181.746094 C 136.773438 180.519531 135.84375 181.984375 137.089844 181.746094 Z M 154.921875 192.976562 C 156.636719 191.710938 152.78125 192.816406 154.921875 192.976562 Z M 59.835938 131.871094 C 64.738281 129.972656 54.578125 130.515625 59.835938 131.871094 Z M 130.96875 176.6875 C 130.914062 173.511719 127.84375 177.476562 130.96875 176.6875 Z M 57.898438 127.355469 C 61.046875 126.289062 54.980469 126.652344 57.898438 127.355469 Z M 67.042969 131.785156 C 66.984375 130.742188 66.074219 132.179688 67.042969 131.785156 Z M 178.59375 200.191406 C 182.644531 199.367188 191.878906 202.253906 193.371094 199.117188 C 188.449219 198.996094 176.347656 195.644531 175.773438 199.914062 L 176.851562 200.085938 Z M 69.949219 132.519531 C 70.019531 129.300781 67.441406 132.398438 69.949219 132.519531 Z M 45.902344 115.839844 C 44.808594 109.707031 41.75 114.910156 45.902344 115.839844 Z M 51.636719 117.277344 C 51.707031 115.308594 46.386719 115.507812 51.636719 117.277344 Z M 54.914062 118.886719 C 53.964844 118.121094 54.171875 119.859375 54.914062 118.886719 Z M 75.53125 132.113281 C 76.503906 131.222656 73.234375 131.453125 75.53125 132.113281 Z M 52.730469 115.257812 C 52.175781 110.628906 46.089844 114.566406 52.730469 115.257812 Z M 40.976562 107.632812 C 40.808594 105.492188 39.828125 108.4375 40.976562 107.632812 Z M 42.722656 106.308594 C 42.4375 103.777344 41.222656 106.632812 42.722656 106.308594 Z M 52.386719 112.078125 C 56.472656 110.472656 44.945312 108.757812 51.550781 111.773438 Z M 181.695312 191.949219 C 184.308594 189.550781 178.371094 191.207031 181.695312 191.949219 Z M 197.316406 200.046875 C 198.363281 196.945312 194.675781 200.453125 197.316406 200.046875 Z M 53.371094 107.011719 C 53.804688 104.015625 50.132812 107.609375 53.371094 107.011719 Z M 39.625 97.804688 C 38.886719 93.570312 38.988281 86.140625 46.050781 88.648438 C 36.625 90.523438 52.578125 100.367188 50.5625 92.59375 C 54.527344 92.789062 58.320312 90.25 56.238281 94.101562 C 64.050781 93.238281 69.464844 86.464844 77.007812 87.414062 C 82.886719 86.636719 89.3125 86.046875 95.644531 83.679688 C 100.851562 83.304688 105.867188 77.699219 103.011719 74.375 C 95.910156 73.777344 88.476562 74.664062 80.628906 76.226562 C 71.929688 78.03125 64.03125 81.46875 55.253906 82.941406 C 46.703125 84.089844 56.976562 86.109375 54.523438 86.558594 C 50.0625 88.105469 59.847656 89.152344 53.945312 90.785156 C 50.300781 90.089844 46.507812 88.839844 48.066406 84.996094 C 39.871094 86.058594 32.671875 89.460938 39.144531 97.800781 L 39.625 97.804688 L 39.625 97.800781 Z M 59.371094 87.746094 C 61.292969 80.671875 69.664062 93.570312 62.519531 88.6875 C 61.664062 88.050781 60.261719 87.527344 59.371094 87.746094 Z M 59.742188 84.316406 C 62.515625 82.25 61.21875 85.472656 59.742188 84.316406 Z M 63.265625 84.371094 C 63.515625 81.117188 71.324219 86.097656 64.550781 85.542969 Z M 68.082031 82.4375 C 69.839844 80.378906 68.585938 84.265625 68.082031 82.4375 Z M 69.3125 81.609375 C 72.242188 78.09375 85.898438 79.363281 75.902344 81.269531 C 73.222656 79.25 71.167969 82.457031 69.3125 81.609375 Z M 87.132812 78.863281 C 86.6875 69.253906 95.988281 82.28125 87.132812 78.863281 Z M 92.191406 78.835938 C 94.039062 73.992188 99.363281 76.890625 93.046875 77.863281 C 93.183594 78.378906 92.859375 80.363281 92.191406 78.835938 Z M 51.378906 104.527344 C 56.902344 101.144531 45.515625 101.59375 51.378906 104.527344 Z M 55.464844 105.660156 C 57.398438 103.601562 51.253906 104.824219 55.464844 105.660156 Z M 43.429688 97.121094 C 46.585938 94.695312 39.695312 96.199219 43.429688 97.121094 Z M 206.535156 199.160156 C 206.628906 196.347656 204.125 200.429688 206.535156 199.160156 Z M 189.964844 187.851562 C 190.433594 184.613281 187.832031 188.132812 189.964844 187.851562 Z M 211.09375 200.25 C 215.507812 200.265625 224.464844 198.882812 214.863281 198.886719 C 213.355469 199.121094 206.085938 199.070312 211.09375 200.25 Z M 59.054688 103.675781 C 62.628906 103.429688 64.644531 99.738281 58.363281 99.949219 C 48.632812 98.941406 66.949219 103.28125 57.117188 102.039062 C 55.796875 102.914062 58.980469 103.917969 59.054688 103.675781 Z M 62.203125 105.269531 C 61.828125 102.976562 61.097656 106.488281 62.203125 105.269531 Z M 65.933594 95.320312 C 67.480469 93.398438 63.789062 94.804688 65.933594 95.320312 Z M 54.054688 75.464844 C 60.429688 73.296875 69.144531 70.859375 72.15625 76.53125 C 69.09375 72.847656 70.917969 69.21875 73.8125 74.605469 C 77.902344 80.058594 79.949219 72.125 77.289062 70.296875 C 80.320312 74.066406 83.769531 75.84375 79.320312 70.535156 C 84.15625 64.71875 69.636719 71.296875 66.335938 71.230469 C 64.746094 71.945312 49.941406 75.007812 54.054688 75.464844 Z M 57.789062 68.3125 C 61.425781 65.566406 70.363281 69.941406 64.628906 65.585938 C 64.066406 65.089844 52.066406 68.890625 57.789062 68.3125 Z M 71.042969 68.859375 C 75.296875 68.964844 69.207031 63.144531 74.277344 65.78125 C 73.445312 63.0625 68.375 62.550781 65.894531 61.464844 C 64.496094 63.953125 68.75 68.890625 71.042969 68.859375 Z M 60.113281 56.828125 C 61.585938 54.832031 57.535156 57.839844 60.113281 56.828125 Z M 65.53125 58.125 C 72.386719 57.214844 63.78125 55.171875 64.148438 58.050781 Z M 55.417969 50.210938 C 50.589844 43.910156 64.496094 51.269531 59.589844 44.671875 C 55.460938 41.382812 51.496094 48.371094 55.417969 50.210938 Z M 117.367188 83.578125 C 119.582031 79.65625 108.226562 78.289062 115.878906 82.1875 C 116.582031 82.425781 116.421875 83.851562 117.367188 83.578125 Z M 117.367188 83.578125 "/>
</g>
</svg>
