<?xml version="1.0" encoding="utf-8"?>
<svg viewBox="122 122 256 256" xmlns="http://www.w3.org/2000/svg">
  <rect width="256" height="256" fill="#242938" rx="60" x="122" y="122" transform="matrix(1, 0, 0, 1, 0, 7.105427357601002e-15)"/>
  <path fill="#E44D26" d="M 182.02 325.407 L 166.894 155.75 L 333.105 155.75 L 317.962 325.381 L 249.899 344.25 L 182.02 325.407 Z" transform="matrix(1, 0, 0, 1, 0, 7.105427357601002e-15)"/>
  <path fill="#F16529" d="M 250.001 329.827 L 304.999 314.578 L 317.941 169.622 L 250.001 169.622 L 250.001 329.827 Z" transform="matrix(1, 0, 0, 1, 0, 7.105427357601002e-15)"/>
  <path fill="#EBEBEB" d="M 250.001 232.544 L 222.465 232.544 L 220.563 211.237 L 250.001 211.237 L 250.001 190.429 L 197.823 190.429 L 198.323 196.012 L 203.434 253.354 L 250.001 253.354 L 250.001 232.544 Z M 250.001 286.586 L 249.907 286.61 L 226.736 280.351 L 225.254 263.758 L 204.364 263.758 L 207.279 296.429 L 249.904 308.261 L 250.001 308.234 L 250.001 286.586 Z" transform="matrix(1, 0, 0, 1, 0, 7.105427357601002e-15)"/>
  <path fill="#fff" d="M 249.928 232.544 L 249.928 253.354 L 275.55 253.354 L 273.136 280.339 L 249.928 286.603 L 249.928 308.251 L 292.585 296.429 L 292.899 292.913 L 297.788 238.134 L 298.295 232.544 L 292.689 232.544 L 249.928 232.544 Z M 249.928 190.429 L 249.928 211.237 L 300.188 211.237 L 300.606 206.563 L 301.556 196.012 L 302.053 190.429 L 249.928 190.429 Z" transform="matrix(1, 0, 0, 1, 0, 7.105427357601002e-15)"/>
</svg>