<?xml version="1.0" encoding="utf-8"?>
<svg viewBox="122 122 256 256" xmlns="http://www.w3.org/2000/svg">
  <rect width="256" height="256" fill="#242938" rx="60" y="122" x="122" transform="matrix(1, 0, 0, 1, 0, 7.105427357601002e-15)"/>
  <path fill="#E44D26" d="M 172.291 339.489 L 155 145.55 L 345 145.55 L 327.69 339.459 L 249.884 361.028 L 172.291 339.489 Z" transform="matrix(1, 0, 0, 1, 0, 7.105427357601002e-15)"/>
  <path fill="#F16529" d="M 250 344.542 L 312.871 327.111 L 327.664 161.407 L 250 161.407 L 250 344.542 Z" transform="matrix(1, 0, 0, 1, 0, 7.105427357601002e-15)"/>
  <path fill="#EBEBEB" d="M 250 233.336 L 218.525 233.336 L 216.35 208.978 L 250 208.978 L 250 185.193 L 190.355 185.193 L 190.926 191.574 L 196.771 257.122 L 250 257.122 L 250 233.336 Z M 250 295.11 L 249.895 295.139 L 223.405 287.984 L 221.713 269.016 L 197.834 269.016 L 201.166 306.363 L 249.891 319.888 L 250 319.859 L 250 295.11 Z" transform="matrix(1, 0, 0, 1, 0, 7.105427357601002e-15)"/>
  <path fill="#fff" d="M 249.917 233.336 L 249.917 257.122 L 279.206 257.122 L 276.446 287.97 L 249.917 295.131 L 249.917 319.878 L 298.68 306.363 L 299.038 302.345 L 304.627 239.724 L 305.206 233.336 L 298.798 233.336 L 249.917 233.336 Z M 249.917 185.193 L 249.917 208.978 L 307.372 208.978 L 307.849 203.634 L 308.934 191.574 L 309.503 185.193 L 249.917 185.193 Z" transform="matrix(1, 0, 0, 1, 0, 7.105427357601002e-15)"/>
</svg>