<?xml version="1.0" encoding="UTF-8"?>
<svg xmlns="http://www.w3.org/2000/svg" xmlns:xlink="http://www.w3.org/1999/xlink" width="256px" height="256px" viewBox="0 0 256 256" version="1.1">
<g id="surface1">
<path style=" stroke:none;fill-rule:nonzero;fill:rgb(14.117647%,16.078431%,21.960784%);fill-opacity:1;" d="M 60 0 L 196 0 C 229.136719 0 256 26.863281 256 60 L 256 196 C 256 229.136719 229.136719 256 196 256 L 60 256 C 26.863281 256 0 229.136719 0 196 L 0 60 C 0 26.863281 26.863281 0 60 0 Z M 60 0 "/>
<path style=" stroke:none;fill-rule:nonzero;fill:rgb(89.411765%,30.196078%,14.901961%);fill-opacity:1;" d="M 63.085938 200.007812 L 48.640625 38 L 207.359375 38 L 192.898438 199.980469 L 127.902344 218 Z M 63.085938 200.007812 "/>
<path style=" stroke:none;fill-rule:nonzero;fill:rgb(94.509804%,39.607843%,16.078431%);fill-opacity:1;" d="M 128 204.226562 L 180.519531 189.667969 L 192.878906 51.246094 L 128 51.246094 Z M 128 204.226562 "/>
<path style=" stroke:none;fill-rule:nonzero;fill:rgb(92.156863%,92.156863%,92.156863%);fill-opacity:1;" d="M 128 111.332031 L 101.707031 111.332031 L 99.890625 90.984375 L 128 90.984375 L 128 71.117188 L 78.175781 71.117188 L 78.652344 76.445312 L 83.535156 131.203125 L 128 131.203125 Z M 128 162.933594 L 127.910156 162.960938 L 105.785156 156.984375 L 104.371094 141.136719 L 84.421875 141.136719 L 87.207031 172.335938 L 127.910156 183.632812 L 128 183.609375 Z M 128 162.933594 "/>
<path style=" stroke:none;fill-rule:nonzero;fill:rgb(100%,100%,100%);fill-opacity:1;" d="M 127.929688 111.332031 L 127.929688 131.203125 L 152.398438 131.203125 L 150.09375 156.972656 L 127.929688 162.953125 L 127.929688 183.625 L 168.664062 172.335938 L 168.964844 168.980469 L 173.632812 116.667969 L 174.117188 111.332031 Z M 127.929688 71.117188 L 127.929688 90.984375 L 175.925781 90.984375 L 176.324219 86.519531 L 177.230469 76.445312 L 177.707031 71.117188 Z M 127.929688 71.117188 "/>
</g>
</svg>
