<?xml version="1.0" encoding="UTF-8"?>
<svg xmlns="http://www.w3.org/2000/svg" xmlns:xlink="http://www.w3.org/1999/xlink" width="256px" height="256px" viewBox="0 0 256 256" version="1.1">
<g id="surface1">
<path style=" stroke:none;fill-rule:nonzero;fill:rgb(14.117647%,16.078431%,21.960784%);fill-opacity:1;" d="M 60 0 L 196 0 C 229.136719 0 256 26.863281 256 60 L 256 196 C 256 229.136719 229.136719 256 196 256 L 60 256 C 26.863281 256 0 229.136719 0 196 L 0 60 C 0 26.863281 26.863281 0 60 0 Z M 60 0 "/>
<path style=" stroke:none;fill-rule:nonzero;fill:rgb(89.411765%,30.196078%,14.901961%);fill-opacity:1;" d="M 60.019531 206.695312 L 44.894531 37.039062 L 211.105469 37.039062 L 195.964844 206.671875 L 127.898438 225.539062 Z M 60.019531 206.695312 "/>
<path style=" stroke:none;fill-rule:nonzero;fill:rgb(94.509804%,39.607843%,16.078431%);fill-opacity:1;" d="M 128 211.117188 L 183 195.867188 L 195.941406 50.910156 L 128 50.910156 Z M 128 211.117188 "/>
<path style=" stroke:none;fill-rule:nonzero;fill:rgb(92.156863%,92.156863%,92.156863%);fill-opacity:1;" d="M 128 113.835938 L 100.464844 113.835938 L 98.5625 92.527344 L 128 92.527344 L 128 71.71875 L 75.820312 71.71875 L 76.324219 77.300781 L 81.433594 134.640625 L 128 134.640625 Z M 128 167.875 L 127.90625 167.898438 L 104.734375 161.640625 L 103.253906 145.046875 L 82.363281 145.046875 L 85.28125 177.71875 L 127.902344 189.550781 L 128 189.523438 Z M 128 167.875 "/>
<path style=" stroke:none;fill-rule:nonzero;fill:rgb(100%,100%,100%);fill-opacity:1;" d="M 127.929688 113.835938 L 127.929688 134.640625 L 153.550781 134.640625 L 151.136719 161.628906 L 127.929688 167.894531 L 127.929688 189.539062 L 170.585938 177.71875 L 170.898438 174.203125 L 175.785156 119.421875 L 176.292969 113.835938 Z M 127.929688 71.71875 L 127.929688 92.527344 L 178.1875 92.527344 L 178.605469 87.851562 L 179.554688 77.300781 L 180.054688 71.71875 Z M 127.929688 71.71875 "/>
</g>
</svg>
