<?xml version="1.0" encoding="utf-8"?>
<svg viewBox="122 122 256 256" xmlns="http://www.w3.org/2000/svg">
  <rect width="256" height="256" fill="#242938" rx="60" y="122" x="122" transform="matrix(1, 0, 0, 1, 0, 7.105427357601002e-15)"/>
  <path fill="#E44D26" d="M 182.02 328.697 L 166.894 159.039 L 333.106 159.039 L 317.963 328.671 L 249.898 347.539 L 182.02 328.697 Z" transform="matrix(1, 0, 0, 1, 0, 7.105427357601002e-15)"/>
  <path fill="#F16529" d="M 250 333.117 L 304.999 317.868 L 317.941 172.911 L 250 172.911 L 250 333.117 Z" transform="matrix(1, 0, 0, 1, 0, 7.105427357601002e-15)"/>
  <path fill="#EBEBEB" d="M 250 235.834 L 222.466 235.834 L 220.562 214.526 L 250 214.526 L 250 193.719 L 197.822 193.719 L 198.323 199.301 L 203.435 256.642 L 250 256.642 L 250 235.834 Z M 250 289.874 L 249.908 289.9 L 226.735 283.641 L 225.255 267.047 L 204.365 267.047 L 207.28 299.718 L 249.904 311.55 L 250 311.524 L 250 289.874 Z" transform="matrix(1, 0, 0, 1, 0, 7.105427357601002e-15)"/>
  <path fill="#fff" d="M 249.928 235.834 L 249.928 256.642 L 275.549 256.642 L 273.135 283.628 L 249.928 289.893 L 249.928 311.541 L 292.585 299.718 L 292.899 296.203 L 297.787 241.423 L 298.294 235.834 L 292.689 235.834 L 249.928 235.834 Z M 249.928 193.719 L 249.928 214.526 L 300.189 214.526 L 300.606 209.85 L 301.555 199.301 L 302.054 193.719 L 249.928 193.719 Z" transform="matrix(1, 0, 0, 1, 0, 7.105427357601002e-15)"/>
</svg>