<?xml version="1.0" encoding="UTF-8"?>
<svg xmlns="http://www.w3.org/2000/svg" xmlns:xlink="http://www.w3.org/1999/xlink" width="256px" height="256px" viewBox="0 0 256 256" version="1.1">
<g id="surface1">
<path style=" stroke:none;fill-rule:nonzero;fill:rgb(94.117647%,85.882353%,30.980392%);fill-opacity:1;" d="M 60 0 L 196 0 C 229.136719 0 256 26.863281 256 60 L 256 196 C 256 229.136719 229.136719 256 196 256 L 60 256 C 26.863281 256 0 229.136719 0 196 L 0 60 C 0 26.863281 26.863281 0 60 0 Z M 60 0 "/>
<path style=" stroke:none;fill-rule:nonzero;fill:rgb(19.607843%,20%,18.823529%);fill-opacity:1;" d="M 67.3125 213.933594 L 86.902344 202.074219 C 90.683594 208.777344 94.121094 214.445312 102.367188 214.445312 C 110.273438 214.445312 115.257812 211.355469 115.257812 199.328125 L 115.257812 117.527344 L 139.3125 117.527344 L 139.3125 199.667969 C 139.3125 224.585938 124.707031 235.925781 103.398438 235.925781 C 84.152344 235.925781 72.980469 225.960938 67.3125 213.929688 "/>
<path style=" stroke:none;fill-rule:nonzero;fill:rgb(19.607843%,20%,18.823529%);fill-opacity:1;" d="M 152.382812 211.355469 L 171.96875 200.011719 C 177.125 208.433594 183.828125 214.621094 195.683594 214.621094 C 205.652344 214.621094 212.007812 209.636719 212.007812 202.761719 C 212.007812 194.515625 205.480469 191.59375 194.480469 186.78125 L 188.46875 184.203125 C 171.109375 176.816406 159.597656 167.535156 159.597656 147.945312 C 159.597656 129.902344 173.34375 116.152344 194.824219 116.152344 C 210.121094 116.152344 221.117188 121.480469 229.023438 135.398438 L 210.289062 147.429688 C 206.164062 140.039062 201.699219 137.117188 194.824219 137.117188 C 187.78125 137.117188 183.3125 141.585938 183.3125 147.429688 C 183.3125 154.644531 187.78125 157.566406 198.089844 162.035156 L 204.105469 164.613281 C 224.554688 173.378906 236.066406 182.3125 236.066406 202.417969 C 236.066406 224.070312 219.054688 235.929688 196.199219 235.929688 C 173.859375 235.929688 159.425781 225.273438 152.382812 211.355469 "/>
</g>
</svg>
