<?xml version="1.0" encoding="UTF-8"?>
<svg xmlns="http://www.w3.org/2000/svg" xmlns:xlink="http://www.w3.org/1999/xlink" width="256px" height="256px" viewBox="0 0 256 256" version="1.1">
<g id="surface1">
<path style=" stroke:none;fill-rule:nonzero;fill:rgb(14.117647%,16.078431%,21.960784%);fill-opacity:1;" d="M 60 0 L 196 0 C 229.136719 0 256 26.863281 256 60 L 256 196 C 256 229.136719 229.136719 256 196 256 L 60 256 C 26.863281 256 0 229.136719 0 196 L 0 60 C 0 26.863281 26.863281 0 60 0 Z M 60 0 "/>
<path style=" stroke:none;fill-rule:nonzero;fill:rgb(3.137255%,40.784314%,67.45098%);fill-opacity:1;" d="M 42.589844 78.019531 C 25.265625 102.917969 27.421875 135.316406 40.65625 161.773438 C 40.96875 162.40625 41.300781 163.03125 41.625 163.65625 L 42.242188 164.847656 L 42.628906 165.535156 L 43.320312 166.769531 C 43.730469 167.492188 44.152344 168.214844 44.582031 168.933594 L 45.304688 170.121094 C 45.78125 170.894531 46.269531 171.65625 46.769531 172.414062 L 47.394531 173.378906 C 48.085938 174.410156 48.789062 175.4375 49.519531 176.445312 L 49.578125 176.523438 L 49.9375 177.007812 C 50.566406 177.875 51.214844 178.734375 51.871094 179.582031 L 52.601562 180.507812 C 53.1875 181.246094 53.78125 181.976562 54.390625 182.703125 L 55.070312 183.523438 C 55.886719 184.484375 56.71875 185.433594 57.5625 186.367188 L 57.613281 186.421875 L 57.710938 186.527344 C 58.542969 187.429688 59.386719 188.316406 60.242188 189.195312 L 61.054688 190.015625 C 61.71875 190.683594 62.394531 191.339844 63.078125 191.996094 L 63.902344 192.78125 C 64.816406 193.640625 65.734375 194.484375 66.675781 195.304688 L 66.71875 195.339844 L 67.199219 195.753906 C 68.027344 196.46875 68.871094 197.179688 69.71875 197.878906 L 70.761719 198.707031 C 71.453125 199.265625 72.15625 199.8125 72.859375 200.347656 L 73.980469 201.199219 C 74.761719 201.773438 75.546875 202.339844 76.335938 202.890625 L 77.195312 203.496094 L 77.429688 203.664062 C 78.179688 204.183594 78.949219 204.679688 79.71875 205.179688 L 80.707031 205.839844 C 81.886719 206.582031 83.078125 207.320312 84.285156 208.03125 L 85.277344 208.589844 C 86.164062 209.101562 87.058594 209.601562 87.960938 210.09375 C 88.453125 210.359375 88.953125 210.609375 89.449219 210.859375 C 90.085938 211.195312 90.722656 211.535156 91.371094 211.859375 L 91.816406 212.074219 L 92.605469 212.457031 C 93.609375 212.9375 94.625 213.410156 95.652344 213.863281 L 96.296875 214.152344 C 97.472656 214.667969 98.65625 215.160156 99.851562 215.632812 L 100.714844 215.972656 C 101.820312 216.398438 102.941406 216.820312 104.070312 217.214844 L 104.488281 217.359375 C 105.726562 217.792969 106.972656 218.195312 108.230469 218.585938 L 109.132812 218.855469 C 110.410156 219.238281 111.675781 219.699219 112.992188 219.941406 C 196.777344 235.222656 221.113281 169.597656 221.113281 169.597656 C 200.675781 196.226562 164.390625 203.25 130.015625 195.429688 C 128.714844 195.136719 127.449219 194.726562 126.179688 194.351562 L 125.222656 194.0625 C 123.984375 193.683594 122.753906 193.28125 121.527344 192.859375 L 121.023438 192.675781 C 119.929688 192.289062 118.84375 191.886719 117.765625 191.46875 L 116.851562 191.109375 C 115.667969 190.640625 114.492188 190.15625 113.332031 189.648438 L 112.632812 189.335938 C 111.636719 188.886719 110.648438 188.425781 109.664062 187.953125 L 108.804688 187.542969 C 108.035156 187.167969 107.273438 186.769531 106.511719 186.375 C 106.003906 186.109375 105.484375 185.855469 104.980469 185.574219 C 104.054688 185.074219 103.136719 184.5625 102.230469 184.03125 L 101.300781 183.515625 C 100.097656 182.800781 98.902344 182.070312 97.71875 181.320312 L 96.753906 180.675781 C 95.894531 180.125 95.046875 179.558594 94.203125 178.980469 L 93.386719 178.40625 C 92.574219 177.832031 91.773438 177.253906 90.976562 176.664062 L 89.90625 175.855469 C 89.175781 175.296875 88.453125 174.730469 87.734375 174.15625 L 86.765625 173.378906 C 85.851562 172.628906 84.949219 171.867188 84.058594 171.097656 L 83.761719 170.847656 C 82.800781 169.996094 81.851562 169.132812 80.914062 168.257812 L 80.113281 167.488281 C 79.417969 166.828125 78.738281 166.164062 78.066406 165.480469 L 77.265625 164.683594 C 76.414062 163.8125 75.578125 162.925781 74.753906 162.027344 L 74.632812 161.894531 C 73.765625 160.945312 72.917969 159.980469 72.085938 159 L 71.417969 158.207031 C 70.800781 157.460938 70.1875 156.703125 69.585938 155.941406 L 68.914062 155.105469 C 68.195312 154.175781 67.492188 153.238281 66.800781 152.289062 C 47.714844 126.253906 40.855469 90.351562 56.109375 60.863281 M 96.367188 57.039062 C 83.835938 75.070312 84.519531 99.207031 94.292969 118.273438 C 95.929688 121.480469 97.777344 124.570312 99.835938 127.523438 C 101.710938 130.214844 103.792969 133.414062 106.285156 135.578125 C 107.195312 136.574219 108.132812 137.546875 109.09375 138.496094 L 109.835938 139.226562 C 110.773438 140.136719 111.730469 141.027344 112.707031 141.894531 L 112.824219 141.992188 L 112.851562 142.023438 C 113.945312 142.972656 115.066406 143.902344 116.207031 144.796875 L 116.96875 145.390625 C 118.117188 146.273438 119.285156 147.128906 120.476562 147.953125 L 120.578125 148.03125 C 121.105469 148.394531 121.644531 148.734375 122.179688 149.085938 L 122.9375 149.585938 C 123.789062 150.136719 124.65625 150.671875 125.535156 151.183594 L 125.90625 151.394531 C 126.664062 151.832031 127.433594 152.261719 128.203125 152.679688 L 129.023438 153.105469 C 129.554688 153.382812 130.085938 153.667969 130.628906 153.9375 L 130.871094 154.046875 C 131.976562 154.59375 133.089844 155.117188 134.226562 155.609375 L 134.96875 155.914062 C 135.878906 156.300781 136.796875 156.679688 137.71875 157.03125 L 138.894531 157.464844 C 139.734375 157.773438 140.574219 158.058594 141.421875 158.339844 L 142.5625 158.707031 C 143.765625 159.082031 144.957031 159.554688 146.210938 159.761719 C 210.902344 170.480469 225.835938 120.671875 225.835938 120.671875 C 212.375 140.0625 186.304688 149.3125 158.484375 142.089844 C 157.253906 141.765625 156.03125 141.414062 154.820312 141.03125 L 153.71875 140.675781 C 152.859375 140.398438 152.003906 140.101562 151.15625 139.792969 L 150 139.363281 C 149.074219 139.003906 148.15625 138.632812 147.242188 138.25 L 146.496094 137.933594 C 145.359375 137.4375 144.234375 136.914062 143.125 136.367188 C 142.554688 136.089844 141.992188 135.796875 141.429688 135.507812 L 140.453125 135.003906 C 139.734375 134.613281 139.019531 134.207031 138.3125 133.792969 L 137.800781 133.503906 C 136.925781 132.992188 136.0625 132.464844 135.207031 131.917969 L 134.425781 131.398438 C 133.863281 131.035156 133.300781 130.664062 132.746094 130.285156 C 131.5625 129.464844 130.394531 128.609375 129.25 127.730469 L 128.464844 127.109375 C 116.285156 117.496094 106.632812 104.355469 102.042969 89.457031 C 97.234375 74.007812 98.269531 56.664062 106.605469 42.585938 M 141.597656 41.367188 C 134.210938 52.238281 133.484375 65.738281 138.609375 77.742188 C 144.015625 90.484375 155.089844 100.480469 168.015625 105.222656 C 168.550781 105.417969 169.082031 105.59375 169.621094 105.777344 L 170.328125 106.003906 C 171.09375 106.242188 171.847656 106.519531 172.632812 106.667969 C 208.351562 113.570312 218.042969 88.339844 220.617188 84.625 C 212.132812 96.84375 197.871094 99.773438 180.371094 95.527344 C 178.988281 95.191406 177.472656 94.695312 176.140625 94.222656 C 174.429688 93.613281 172.75 92.914062 171.109375 92.132812 C 168.003906 90.636719 165.050781 88.835938 162.296875 86.753906 C 146.636719 74.871094 136.910156 52.207031 147.128906 33.75 "/>
</g>
</svg>
