<?xml version="1.0" encoding="UTF-8"?>
<svg xmlns="http://www.w3.org/2000/svg" xmlns:xlink="http://www.w3.org/1999/xlink" width="256px" height="256px" viewBox="0 0 256 256" version="1.1">
<g id="surface1">
<path style=" stroke:none;fill-rule:nonzero;fill:rgb(14.117647%,16.078431%,21.960784%);fill-opacity:1;" d="M 60 0 L 196 0 C 229.136719 0 256 26.863281 256 60 L 256 196 C 256 229.136719 229.136719 256 196 256 L 60 256 C 26.863281 256 0 229.136719 0 196 L 0 60 C 0 26.863281 26.863281 0 60 0 Z M 60 0 "/>
<path style=" stroke:none;fill-rule:nonzero;fill:rgb(3.137255%,40.784314%,67.45098%);fill-opacity:1;" d="M 49.429688 82.023438 C 33.496094 104.925781 35.476562 134.730469 47.652344 159.066406 C 47.941406 159.652344 48.246094 160.226562 48.542969 160.800781 L 49.113281 161.894531 L 49.46875 162.527344 L 50.101562 163.664062 C 50.480469 164.328125 50.867188 164.992188 51.265625 165.65625 L 51.929688 166.746094 C 52.367188 167.457031 52.816406 168.15625 53.277344 168.859375 L 53.851562 169.746094 C 54.484375 170.691406 55.132812 171.636719 55.804688 172.5625 L 55.859375 172.636719 L 56.191406 173.082031 C 56.769531 173.878906 57.367188 174.667969 57.972656 175.449219 L 58.640625 176.300781 C 59.179688 176.980469 59.726562 177.652344 60.285156 178.324219 L 60.914062 179.074219 C 61.664062 179.960938 62.429688 180.832031 63.207031 181.691406 L 63.253906 181.742188 L 63.339844 181.839844 C 64.105469 182.667969 64.882812 183.484375 65.671875 184.292969 L 66.417969 185.046875 C 67.027344 185.660156 67.648438 186.269531 68.277344 186.871094 L 69.039062 187.59375 C 69.878906 188.382812 70.722656 189.15625 71.589844 189.914062 L 71.628906 189.945312 L 72.070312 190.324219 C 72.832031 190.984375 73.609375 191.640625 74.386719 192.28125 L 75.347656 193.046875 C 75.984375 193.554688 76.628906 194.058594 77.277344 194.554688 L 78.308594 195.339844 C 79.027344 195.863281 79.746094 196.382812 80.476562 196.890625 L 81.265625 197.449219 L 81.480469 197.605469 C 82.171875 198.078125 82.878906 198.539062 83.585938 198.996094 L 84.496094 199.601562 C 85.578125 200.289062 86.675781 200.964844 87.789062 201.621094 L 88.699219 202.132812 C 89.515625 202.605469 90.335938 203.066406 91.171875 203.519531 C 91.621094 203.761719 92.082031 203.992188 92.535156 204.222656 C 93.125 204.53125 93.710938 204.84375 94.308594 205.144531 L 94.714844 205.339844 L 95.441406 205.691406 C 96.367188 206.132812 97.300781 206.566406 98.242188 206.988281 L 98.835938 207.253906 C 99.917969 207.726562 101.007812 208.179688 102.105469 208.613281 L 102.902344 208.925781 C 103.917969 209.316406 104.949219 209.703125 105.984375 210.070312 L 106.371094 210.203125 C 107.511719 210.601562 108.65625 210.96875 109.8125 211.328125 L 110.644531 211.578125 C 111.820312 211.933594 112.984375 212.355469 114.195312 212.578125 C 191.269531 226.632812 213.65625 166.265625 213.65625 166.265625 C 194.851562 190.761719 161.476562 197.222656 129.855469 190.027344 C 128.65625 189.757812 127.496094 189.382812 126.328125 189.039062 L 125.445312 188.769531 C 124.308594 188.421875 123.175781 188.050781 122.046875 187.664062 L 121.582031 187.496094 C 120.578125 187.140625 119.578125 186.769531 118.585938 186.386719 L 117.742188 186.054688 C 116.65625 185.625 115.574219 185.175781 114.507812 184.710938 L 113.863281 184.421875 C 112.949219 184.007812 112.039062 183.585938 111.132812 183.152344 L 110.34375 182.773438 C 109.636719 182.429688 108.933594 182.0625 108.234375 181.699219 C 107.765625 181.453125 107.289062 181.222656 106.824219 180.964844 C 105.972656 180.503906 105.128906 180.03125 104.292969 179.546875 L 103.441406 179.066406 C 102.332031 178.414062 101.234375 177.738281 100.144531 177.050781 L 99.257812 176.457031 C 98.46875 175.949219 97.683594 175.429688 96.910156 174.898438 L 96.15625 174.367188 C 95.414062 173.839844 94.675781 173.308594 93.941406 172.765625 L 92.960938 172.023438 C 92.285156 171.507812 91.621094 170.988281 90.960938 170.460938 L 90.070312 169.742188 C 89.230469 169.054688 88.398438 168.355469 87.578125 167.644531 L 87.304688 167.414062 C 86.421875 166.632812 85.546875 165.839844 84.6875 165.035156 L 83.949219 164.324219 C 83.3125 163.71875 82.683594 163.105469 82.066406 162.480469 L 81.328125 161.742188 C 80.546875 160.941406 79.777344 160.128906 79.019531 159.300781 L 78.90625 159.179688 C 78.109375 158.308594 77.328125 157.417969 76.5625 156.515625 L 75.953125 155.789062 C 75.382812 155.101562 74.820312 154.40625 74.265625 153.703125 L 73.648438 152.9375 C 72.988281 152.078125 72.339844 151.214844 71.703125 150.34375 C 54.144531 126.394531 47.835938 93.367188 61.867188 66.242188 M 98.902344 62.726562 C 87.375 79.308594 88.003906 101.511719 96.992188 119.054688 C 98.5 122 100.199219 124.84375 102.089844 127.5625 C 103.816406 130.039062 105.730469 132.980469 108.023438 134.972656 C 108.863281 135.886719 109.722656 136.78125 110.609375 137.65625 L 111.292969 138.328125 C 112.152344 139.164062 113.03125 139.984375 113.933594 140.78125 L 114.039062 140.871094 L 114.066406 140.898438 C 115.074219 141.773438 116.101562 142.628906 117.152344 143.453125 L 117.851562 144 C 118.90625 144.8125 119.984375 145.597656 121.078125 146.355469 L 121.171875 146.425781 C 121.65625 146.761719 122.152344 147.074219 122.644531 147.398438 L 123.34375 147.859375 C 124.128906 148.363281 124.925781 148.855469 125.734375 149.324219 L 126.074219 149.519531 C 126.773438 149.921875 127.476562 150.320312 128.1875 150.703125 L 128.941406 151.09375 C 129.429688 151.351562 129.921875 151.613281 130.417969 151.859375 L 130.644531 151.960938 C 131.660156 152.460938 132.683594 152.945312 133.730469 153.398438 L 134.410156 153.679688 C 135.246094 154.035156 136.09375 154.382812 136.941406 154.707031 L 138.023438 155.101562 C 138.792969 155.390625 139.566406 155.648438 140.347656 155.910156 L 141.394531 156.246094 C 142.503906 156.589844 143.601562 157.027344 144.753906 157.21875 C 204.261719 167.078125 218 121.261719 218 121.261719 C 205.617188 139.09375 181.632812 147.605469 156.042969 140.960938 C 154.910156 140.664062 153.785156 140.339844 152.671875 139.988281 L 151.65625 139.660156 C 150.867188 139.402344 150.082031 139.132812 149.300781 138.847656 L 148.238281 138.453125 C 147.386719 138.125 146.542969 137.78125 145.699219 137.429688 L 145.015625 137.140625 C 143.972656 136.683594 142.9375 136.203125 141.914062 135.695312 C 141.390625 135.441406 140.871094 135.171875 140.355469 134.902344 L 139.457031 134.441406 C 138.796875 134.082031 138.136719 133.710938 137.488281 133.328125 L 137.015625 133.0625 C 136.210938 132.59375 135.417969 132.105469 134.632812 131.605469 L 133.910156 131.125 C 133.394531 130.789062 132.878906 130.449219 132.367188 130.105469 C 131.277344 129.347656 130.203125 128.5625 129.148438 127.753906 L 128.425781 127.179688 C 117.226562 118.339844 108.34375 106.25 104.125 92.542969 C 99.699219 78.332031 100.652344 62.375 108.316406 49.425781 M 140.507812 48.308594 C 133.714844 58.304688 133.046875 70.722656 137.761719 81.765625 C 142.734375 93.488281 152.921875 102.683594 164.8125 107.046875 C 165.300781 107.226562 165.792969 107.386719 166.289062 107.558594 L 166.941406 107.765625 C 167.640625 107.984375 168.335938 108.238281 169.058594 108.375 C 201.917969 114.726562 210.828125 91.515625 213.199219 88.097656 C 205.394531 99.339844 192.277344 102.035156 176.179688 98.128906 C 174.90625 97.820312 173.507812 97.363281 172.28125 96.925781 C 170.710938 96.367188 169.167969 95.726562 167.65625 95.007812 C 164.800781 93.628906 162.082031 91.972656 159.550781 90.058594 C 145.144531 79.128906 136.195312 58.277344 145.59375 41.300781 "/>
</g>
</svg>
