<?xml version="1.0" encoding="utf-8"?>
<svg viewBox="122 122 256 256" xmlns="http://www.w3.org/2000/svg">
  <rect width="256" height="256" fill="#242938" rx="60" x="122" y="122" transform="matrix(1, 0, 0, 1, 0, 7.105427357601002e-15)"/>
  <path fill="#0868AC" d="M 158.336 196.36 C 139.743 223.081 142.058 257.851 156.261 286.246 C 156.598 286.927 156.952 287.597 157.3 288.266 L 157.966 289.545 L 158.38 290.281 L 159.12 291.608 C 159.561 292.384 160.013 293.157 160.475 293.931 L 161.249 295.205 C 161.762 296.032 162.286 296.85 162.822 297.667 L 163.493 298.702 C 164.232 299.806 164.99 300.909 165.772 301.991 L 165.838 302.075 L 166.222 302.595 C 166.898 303.527 167.594 304.447 168.3 305.358 L 169.081 306.353 C 169.71 307.142 170.349 307.928 171 308.71 L 171.733 309.587 C 172.607 310.62 173.499 311.638 174.407 312.642 L 174.462 312.697 L 174.565 312.812 C 175.457 313.779 176.363 314.735 177.282 315.676 L 178.154 316.555 C 178.868 317.273 179.591 317.979 180.323 318.682 L 181.211 319.524 C 182.19 320.447 183.178 321.351 184.185 322.233 L 184.233 322.271 L 184.75 322.712 C 185.639 323.481 186.543 324.244 187.452 324.993 L 188.573 325.885 C 189.315 326.482 190.067 327.068 190.824 327.645 L 192.027 328.561 C 192.863 329.176 193.705 329.781 194.555 330.372 L 195.476 331.025 L 195.728 331.205 C 196.534 331.76 197.358 332.294 198.182 332.829 L 199.245 333.536 C 200.509 334.336 201.789 335.127 203.086 335.89 L 204.148 336.489 C 205.1 337.038 206.061 337.578 207.031 338.105 C 207.557 338.388 208.097 338.656 208.626 338.927 C 209.313 339.286 209.992 339.651 210.691 340 L 211.167 340.231 L 212.012 340.64 C 213.093 341.155 214.182 341.661 215.283 342.151 L 215.974 342.461 C 217.236 343.014 218.508 343.542 219.789 344.047 L 220.718 344.413 C 221.905 344.87 223.109 345.322 224.317 345.746 L 224.769 345.904 C 226.096 346.368 227.434 346.797 228.783 347.216 L 229.752 347.507 C 231.125 347.92 232.481 348.414 233.896 348.675 C 323.813 365.073 349.932 294.641 349.932 294.641 C 327.996 323.22 289.057 330.759 252.164 322.366 C 250.767 322.051 249.411 321.614 248.047 321.211 L 247.021 320.899 C 245.693 320.492 244.37 320.063 243.056 319.609 L 242.512 319.411 C 241.34 318.998 240.175 318.566 239.015 318.115 L 238.034 317.73 C 236.767 317.229 235.506 316.707 234.26 316.16 L 233.506 315.826 C 232.439 315.344 231.378 314.85 230.322 314.345 L 229.401 313.903 C 228.573 313.5 227.754 313.072 226.938 312.65 C 226.392 312.362 225.836 312.09 225.294 311.789 C 224.302 311.256 223.317 310.706 222.343 310.135 L 221.347 309.579 C 220.053 308.815 218.772 308.029 217.503 307.224 L 216.466 306.532 C 215.544 305.943 214.633 305.335 213.731 304.714 L 212.851 304.094 C 211.982 303.482 211.12 302.857 210.265 302.226 L 209.119 301.359 C 208.334 300.762 207.557 300.154 206.787 299.534 L 205.746 298.7 C 204.768 297.898 203.797 297.08 202.84 296.251 L 202.521 295.982 C 201.491 295.072 200.471 294.147 199.468 293.206 L 198.605 292.378 C 197.862 291.671 197.131 290.957 196.41 290.226 L 195.551 289.368 C 194.637 288.434 193.74 287.483 192.857 286.519 L 192.724 286.378 C 191.796 285.359 190.883 284.323 189.991 283.269 L 189.277 282.42 C 188.611 281.618 187.955 280.808 187.308 279.989 L 186.589 279.092 C 185.819 278.095 185.062 277.087 184.318 276.067 C 163.837 248.127 156.476 209.594 172.848 177.949 M 216.051 173.845 C 202.604 193.196 203.336 219.098 213.824 239.562 C 215.581 243.003 217.567 246.319 219.772 249.49 C 221.787 252.377 224.02 255.812 226.695 258.133 C 227.671 259.205 228.679 260.248 229.711 261.264 L 230.507 262.049 C 231.512 263.028 232.538 263.982 233.589 264.911 L 233.713 265.019 L 233.743 265.049 C 234.919 266.071 236.12 267.065 237.343 268.028 L 238.161 268.665 C 239.393 269.614 240.646 270.531 241.925 271.415 L 242.035 271.498 C 242.601 271.888 243.177 272.252 243.752 272.63 L 244.567 273.168 C 245.483 273.756 246.412 274.33 247.356 274.878 L 247.753 275.108 C 248.567 275.577 249.391 276.038 250.22 276.487 L 251.097 276.943 C 251.668 277.243 252.24 277.547 252.821 277.838 L 253.083 277.955 C 254.268 278.538 255.463 279.102 256.684 279.633 L 257.48 279.96 C 258.455 280.374 259.442 280.779 260.429 281.157 L 261.693 281.62 C 262.592 281.954 263.494 282.257 264.403 282.562 L 265.629 282.955 C 266.921 283.357 268.199 283.863 269.547 284.089 C 338.972 295.589 355 242.135 355 242.135 C 340.552 262.944 312.572 272.872 282.716 265.122 C 281.395 264.774 280.084 264.396 278.782 263.985 L 277.601 263.602 C 276.679 263.305 275.762 262.989 274.852 262.655 L 273.611 262.194 C 272.618 261.813 271.631 261.415 270.65 260.999 L 269.853 260.662 C 268.632 260.132 267.425 259.57 266.232 258.978 C 265.62 258.68 265.018 258.365 264.415 258.056 L 263.365 257.515 C 262.592 257.097 261.827 256.664 261.069 256.217 L 260.518 255.905 C 259.58 255.357 258.653 254.792 257.735 254.206 L 256.896 253.647 C 256.293 253.256 255.691 252.859 255.094 252.454 C 253.821 251.571 252.571 250.656 251.342 249.71 L 250.497 249.044 C 237.429 238.728 227.068 224.624 222.144 208.635 C 216.983 192.054 218.095 173.44 227.038 158.331 M 264.593 157.025 C 256.667 168.691 255.888 183.178 261.389 196.061 C 267.189 209.737 279.074 220.464 292.945 225.553 C 293.519 225.763 294.091 225.952 294.67 226.15 L 295.429 226.39 C 296.248 226.647 297.058 226.946 297.903 227.105 C 336.237 234.513 346.634 207.435 349.401 203.448 C 340.294 216.561 324.987 219.708 306.206 215.15 C 304.723 214.792 303.093 214.255 301.663 213.748 C 299.827 213.096 298.026 212.349 296.268 211.508 C 292.93 209.901 289.761 207.967 286.807 205.735 C 270.002 192.982 259.562 168.658 270.527 148.849" transform="matrix(1, 0, 0, 1, 0, 7.105427357601002e-15)"/>
</svg>