<?xml version="1.0" encoding="utf-8"?>
<svg viewBox="122 122 256 256" xmlns="http://www.w3.org/2000/svg">
  <rect width="256" height="256" fill="#242938" rx="60" y="122" x="122" transform="matrix(1, 0, 0, 1, 0, 7.105427357601002e-15)"/>
  <path fill="#0868AC" d="M 164.589 200.02 C 147.265 224.918 149.422 257.315 162.656 283.773 C 162.97 284.408 163.3 285.032 163.625 285.655 L 164.244 286.847 L 164.63 287.534 L 165.32 288.768 C 165.731 289.493 166.152 290.213 166.583 290.934 L 167.303 292.122 C 167.781 292.893 168.27 293.655 168.769 294.415 L 169.394 295.38 C 170.084 296.409 170.789 297.436 171.518 298.444 L 171.579 298.523 L 171.937 299.007 C 172.567 299.875 173.216 300.733 173.872 301.581 L 174.601 302.508 C 175.187 303.245 175.782 303.976 176.389 304.705 L 177.072 305.522 C 177.887 306.483 178.718 307.432 179.563 308.368 L 179.615 308.42 L 179.711 308.527 C 180.543 309.429 181.387 310.318 182.243 311.196 L 183.055 312.014 C 183.72 312.683 184.395 313.341 185.077 313.996 L 185.904 314.782 C 186.815 315.641 187.736 316.483 188.675 317.306 L 188.719 317.341 L 189.201 317.752 C 190.029 318.468 190.871 319.18 191.719 319.877 L 192.762 320.708 C 193.455 321.264 194.156 321.811 194.861 322.348 L 195.982 323.201 C 196.762 323.774 197.545 324.338 198.337 324.89 L 199.195 325.498 L 199.43 325.666 C 200.181 326.182 200.949 326.68 201.717 327.178 L 202.707 327.838 C 203.885 328.582 205.079 329.319 206.287 330.031 L 207.276 330.588 C 208.164 331.1 209.057 331.603 209.962 332.095 C 210.452 332.359 210.955 332.608 211.448 332.861 C 212.087 333.196 212.722 333.535 213.372 333.86 L 213.817 334.075 L 214.604 334.456 C 215.611 334.936 216.625 335.409 217.651 335.865 L 218.295 336.154 C 219.472 336.667 220.656 337.16 221.85 337.632 L 222.715 337.972 C 223.821 338.398 224.943 338.819 226.069 339.215 L 226.49 339.361 C 227.726 339.793 228.973 340.194 230.23 340.585 L 231.133 340.855 C 232.412 341.24 233.676 341.7 234.994 341.943 C 318.777 357.222 343.114 291.596 343.114 291.596 C 322.674 318.225 286.392 325.249 252.016 317.429 C 250.714 317.135 249.451 316.728 248.18 316.353 L 247.224 316.062 C 245.986 315.682 244.755 315.281 243.529 314.86 L 243.022 314.677 C 241.93 314.29 240.845 313.888 239.764 313.469 L 238.85 313.109 C 237.669 312.642 236.494 312.155 235.333 311.647 L 234.631 311.336 C 233.638 310.886 232.649 310.426 231.664 309.955 L 230.806 309.543 C 230.035 309.168 229.272 308.769 228.511 308.376 C 228.002 308.108 227.484 307.855 226.98 307.575 C 226.055 307.076 225.137 306.562 224.229 306.033 L 223.301 305.514 C 222.096 304.801 220.903 304.071 219.72 303.32 L 218.754 302.676 C 217.896 302.125 217.045 301.559 216.204 300.981 L 215.385 300.405 C 214.576 299.831 213.773 299.252 212.975 298.663 L 211.908 297.855 C 211.176 297.298 210.452 296.732 209.734 296.156 L 208.765 295.378 C 207.853 294.629 206.95 293.869 206.057 293.096 L 205.76 292.846 C 204.799 291.996 203.85 291.134 202.914 290.259 L 202.112 289.488 C 201.419 288.828 200.737 288.164 200.066 287.482 L 199.265 286.682 C 198.416 285.811 197.578 284.926 196.755 284.028 L 196.631 283.896 C 195.766 282.946 194.917 281.98 194.085 280.999 L 193.419 280.208 C 192.799 279.46 192.187 278.705 191.586 277.943 L 190.915 277.107 C 190.197 276.177 189.492 275.238 188.799 274.289 C 169.715 248.255 162.857 212.351 178.11 182.864 M 218.367 179.041 C 205.837 197.07 206.519 221.207 216.292 240.274 C 217.929 243.479 219.779 246.57 221.834 249.524 C 223.711 252.215 225.792 255.416 228.284 257.578 C 229.195 258.575 230.132 259.548 231.095 260.496 L 231.837 261.227 C 232.773 262.138 233.731 263.027 234.708 263.894 L 234.824 263.994 L 234.853 264.023 C 235.947 264.974 237.066 265.901 238.206 266.798 L 238.968 267.392 C 240.116 268.275 241.285 269.129 242.475 269.954 L 242.578 270.031 C 243.105 270.395 243.643 270.734 244.178 271.086 L 244.937 271.587 C 245.791 272.136 246.657 272.67 247.536 273.182 L 247.906 273.395 C 248.664 273.832 249.432 274.262 250.204 274.68 L 251.022 275.106 C 251.554 275.384 252.087 275.668 252.629 275.938 L 252.872 276.048 C 253.977 276.592 255.09 277.116 256.227 277.611 L 256.969 277.916 C 257.878 278.302 258.797 278.679 259.718 279.031 L 260.896 279.463 C 261.733 279.774 262.573 280.057 263.42 280.341 L 264.562 280.707 C 265.767 281.081 266.957 281.554 268.212 281.763 C 332.901 292.48 347.836 242.673 347.836 242.673 C 334.374 262.061 308.303 271.313 280.483 264.09 C 279.253 263.767 278.033 263.413 276.819 263.031 L 275.717 262.675 C 274.858 262.397 274.005 262.102 273.156 261.792 L 271.999 261.362 C 271.074 261.005 270.155 260.634 269.241 260.25 L 268.498 259.935 C 267.361 259.439 266.236 258.916 265.124 258.366 C 264.554 258.088 263.993 257.795 263.431 257.506 L 262.454 257.003 C 261.735 256.612 261.02 256.208 260.313 255.793 L 259.801 255.503 C 258.926 254.992 258.062 254.465 257.208 253.919 L 256.425 253.398 C 255.863 253.034 255.302 252.663 254.746 252.287 C 253.562 251.463 252.395 250.61 251.25 249.73 L 250.463 249.11 C 238.286 239.497 228.632 226.356 224.044 211.457 C 219.234 196.007 220.271 178.663 228.604 164.586 M 263.597 163.368 C 256.212 174.238 255.486 187.737 260.611 199.741 C 266.016 212.484 277.09 222.479 290.016 227.221 C 290.549 227.418 291.083 227.593 291.621 227.777 L 292.33 228.002 C 293.092 228.241 293.847 228.519 294.634 228.668 C 330.353 235.57 340.042 210.339 342.619 206.624 C 334.134 218.843 319.872 221.775 302.372 217.528 C 300.989 217.193 299.471 216.694 298.139 216.221 C 296.428 215.613 294.75 214.916 293.111 214.134 C 290.002 212.637 287.049 210.835 284.295 208.755 C 268.636 196.873 258.909 174.208 269.127 155.75" transform="matrix(1, 0, 0, 1, 0, 7.105427357601002e-15)"/>
</svg>