<?xml version="1.0" encoding="UTF-8"?>
<svg xmlns="http://www.w3.org/2000/svg" xmlns:xlink="http://www.w3.org/1999/xlink" width="256px" height="256px" viewBox="0 0 256 256" version="1.1">
<defs>
<linearGradient id="linear0" gradientUnits="userSpaceOnUse" x1="47.22" y1="46.896" x2="146.333" y2="145.02" >
<stop offset="0" style="stop-color:rgb(21.960784%,49.411765%,72.156863%);stop-opacity:1;"/>
<stop offset="1" style="stop-color:rgb(21.176471%,41.176471%,58.039216%);stop-opacity:1;"/>
</linearGradient>
<linearGradient id="linear1" gradientUnits="userSpaceOnUse" x1="108.056" y1="109.905" x2="214.492" y2="210.522" >
<stop offset="0" style="stop-color:rgb(100%,87.843137%,32.156863%);stop-opacity:1;"/>
<stop offset="1" style="stop-color:rgb(100%,76.470588%,19.215686%);stop-opacity:1;"/>
</linearGradient>
</defs>
<g id="surface1">
<path style=" stroke:none;fill-rule:nonzero;fill:rgb(14.117647%,16.078431%,21.960784%);fill-opacity:1;" d="M 60 0 L 196 0 C 229.136719 0 256 26.863281 256 60 L 256 196 C 256 229.136719 229.136719 256 196 256 L 60 256 C 26.863281 256 0 229.136719 0 196 L 0 60 C 0 26.863281 26.863281 0 60 0 Z M 60 0 "/>
<path style=" stroke:none;fill-rule:nonzero;fill:url(#linear0);" d="M 127.277344 29 C 76.507812 29 79.675781 51.019531 79.675781 51.019531 L 79.734375 73.828125 L 128.183594 73.828125 L 128.183594 80.675781 L 60.488281 80.675781 C 60.488281 80.675781 28 76.992188 28 128.222656 C 28 179.453125 56.355469 177.636719 56.355469 177.636719 L 73.28125 177.636719 L 73.28125 153.863281 C 73.28125 153.863281 72.367188 125.507812 101.1875 125.507812 L 149.238281 125.507812 C 149.238281 125.507812 176.238281 125.941406 176.238281 99.414062 L 176.238281 55.546875 C 176.238281 55.546875 180.339844 29 127.277344 29 Z M 100.5625 44.339844 C 105.382812 44.339844 109.28125 48.234375 109.28125 53.054688 C 109.28125 57.875 105.382812 61.773438 100.5625 61.773438 C 95.742188 61.773438 91.847656 57.875 91.847656 53.054688 C 91.847656 48.234375 95.742188 44.339844 100.5625 44.339844 Z M 100.5625 44.339844 "/>
<path style=" stroke:none;fill-rule:nonzero;fill:url(#linear1);" d="M 128.722656 227.957031 C 179.492188 227.957031 176.324219 205.941406 176.324219 205.941406 L 176.265625 183.128906 L 127.816406 183.128906 L 127.816406 176.28125 L 195.511719 176.28125 C 195.511719 176.28125 228 179.964844 228 128.734375 C 228 77.507812 199.644531 79.324219 199.644531 79.324219 L 182.71875 79.324219 L 182.71875 103.097656 C 182.71875 103.097656 183.632812 131.453125 154.8125 131.453125 L 106.761719 131.453125 C 106.761719 131.453125 79.761719 131.015625 79.761719 157.546875 L 79.761719 201.410156 C 79.761719 201.410156 75.660156 227.957031 128.722656 227.957031 Z M 155.4375 212.617188 C 150.617188 212.617188 146.71875 208.722656 146.71875 203.902344 C 146.71875 199.082031 150.617188 195.1875 155.4375 195.1875 C 160.257812 195.1875 164.152344 199.082031 164.152344 203.902344 C 164.152344 208.722656 160.257812 212.617188 155.4375 212.617188 Z M 155.4375 212.617188 "/>
</g>
</svg>
