<?xml version="1.0" encoding="UTF-8"?>
<svg xmlns="http://www.w3.org/2000/svg" xmlns:xlink="http://www.w3.org/1999/xlink" width="256px" height="256px" viewBox="0 0 256 256" version="1.1">
<g id="surface1">
<path style=" stroke:none;fill-rule:nonzero;fill:rgb(14.117647%,16.078431%,21.960784%);fill-opacity:1;" d="M 60 0 L 196 0 C 229.136719 0 256 26.863281 256 60 L 256 196 C 256 229.136719 229.136719 256 196 256 L 60 256 C 26.863281 256 0 229.136719 0 196 L 0 60 C 0 26.863281 26.863281 0 60 0 Z M 60 0 "/>
<path style=" stroke:none;fill-rule:nonzero;fill:rgb(100%,100%,100%);fill-opacity:1;" d="M 226.574219 125.550781 L 218.183594 120.351562 C 218.113281 119.535156 218.03125 118.71875 217.945312 117.90625 L 225.167969 111.179688 C 225.902344 110.496094 226.230469 109.484375 226.03125 108.503906 C 225.839844 107.519531 225.148438 106.710938 224.210938 106.363281 L 214.980469 102.925781 C 214.75 102.125 214.507812 101.332031 214.257812 100.535156 L 220.011719 92.546875 C 220.597656 91.734375 220.71875 90.675781 220.335938 89.757812 C 219.953125 88.832031 219.117188 88.171875 218.136719 88.011719 L 208.410156 86.425781 C 208.03125 85.691406 207.636719 84.964844 207.238281 84.25 L 211.328125 75.265625 C 211.746094 74.351562 211.660156 73.296875 211.105469 72.457031 C 210.546875 71.625 209.605469 71.136719 208.601562 71.175781 L 198.71875 71.519531 C 198.210938 70.878906 197.6875 70.25 197.160156 69.628906 L 199.433594 60.015625 C 199.664062 59.039062 199.375 58.007812 198.664062 57.300781 C 197.957031 56.59375 196.933594 56.300781 195.949219 56.53125 L 186.335938 58.804688 C 185.714844 58.277344 185.078125 57.753906 184.441406 57.246094 L 184.785156 47.363281 C 184.824219 46.367188 184.335938 45.414062 183.503906 44.863281 C 182.667969 44.304688 181.609375 44.21875 180.691406 44.632812 L 171.730469 48.722656 C 171.003906 48.328125 170.277344 47.933594 169.550781 47.550781 L 167.964844 37.824219 C 167.804688 36.839844 167.140625 36 166.21875 35.628906 C 165.292969 35.242188 164.230469 35.367188 163.425781 35.953125 L 155.4375 41.703125 C 154.648438 41.453125 153.859375 41.214844 153.066406 40.984375 L 149.628906 31.753906 C 149.277344 30.8125 148.46875 30.125 147.488281 29.929688 C 146.503906 29.734375 145.5 30.0625 144.8125 30.792969 L 138.082031 38.015625 C 137.269531 37.925781 136.453125 37.84375 135.636719 37.777344 L 130.4375 29.367188 C 129.910156 28.519531 128.980469 28 127.972656 28 C 126.964844 28 126.042969 28.519531 125.527344 29.367188 L 120.328125 37.777344 C 119.507812 37.84375 118.691406 37.925781 117.882812 38.015625 L 111.152344 30.792969 C 110.472656 30.0625 109.457031 29.734375 108.476562 29.929688 C 107.492188 30.125 106.683594 30.8125 106.335938 31.753906 L 102.894531 40.984375 C 102.097656 41.214844 101.304688 41.457031 100.527344 41.703125 L 92.535156 35.953125 C 91.722656 35.367188 90.664062 35.242188 89.746094 35.628906 C 88.824219 36.007812 88.160156 36.847656 88 37.824219 L 86.414062 47.550781 C 85.679688 47.933594 84.953125 48.324219 84.234375 48.722656 L 75.269531 44.632812 C 74.359375 44.21875 73.300781 44.304688 72.460938 44.863281 C 71.628906 45.414062 71.140625 46.367188 71.179688 47.363281 L 71.523438 57.246094 C 70.882812 57.753906 70.25 58.277344 69.625 58.804688 L 60.011719 56.53125 C 59.035156 56.304688 58.003906 56.59375 57.296875 57.300781 C 56.585938 58.007812 56.296875 59.03125 56.527344 60.015625 L 58.785156 69.628906 C 58.257812 70.25 57.738281 70.878906 57.226562 71.519531 L 47.347656 71.175781 C 46.351562 71.148438 45.398438 71.625 44.84375 72.457031 C 44.285156 73.285156 44.199219 74.347656 44.613281 75.265625 L 48.707031 84.25 C 48.308594 84.96875 47.914062 85.695312 47.535156 86.425781 L 37.804688 88.011719 C 36.816406 88.171875 35.984375 88.832031 35.605469 89.757812 C 35.226562 90.683594 35.347656 91.742188 35.933594 92.546875 L 41.683594 100.535156 C 41.433594 101.324219 41.191406 102.117188 40.960938 102.925781 L 31.730469 106.363281 C 30.792969 106.714844 30.105469 107.523438 29.910156 108.503906 C 29.714844 109.488281 30.042969 110.492188 30.773438 111.179688 L 37.996094 117.90625 C 37.90625 118.71875 37.828125 119.535156 37.757812 120.351562 L 29.367188 125.550781 C 28.519531 126.078125 28 127.003906 28 128.015625 C 28 129.027344 28.519531 129.945312 29.367188 130.464844 L 37.757812 135.660156 C 37.828125 136.480469 37.90625 137.296875 37.996094 138.105469 L 30.773438 144.835938 C 30.042969 145.515625 29.714844 146.527344 29.910156 147.507812 C 30.105469 148.492188 30.792969 149.300781 31.730469 149.648438 L 40.960938 153.089844 C 41.191406 153.890625 41.433594 154.683594 41.683594 155.480469 L 35.933594 163.46875 C 35.347656 164.28125 35.222656 165.339844 35.605469 166.257812 C 35.992188 167.183594 36.828125 167.84375 37.824219 168.003906 L 47.550781 169.585938 C 47.933594 170.324219 48.324219 171.050781 48.722656 171.765625 L 44.632812 180.726562 C 44.21875 181.640625 44.304688 182.695312 44.863281 183.535156 C 45.417969 184.371094 46.371094 184.859375 47.367188 184.820312 L 57.226562 184.472656 C 57.742188 185.117188 58.257812 185.742188 58.789062 186.367188 L 56.53125 195.980469 C 56.300781 196.957031 56.589844 197.96875 57.300781 198.675781 C 58.007812 199.390625 59.035156 199.675781 60.015625 199.445312 L 69.628906 197.191406 C 70.253906 197.722656 70.886719 198.238281 71.527344 198.746094 L 71.183594 208.625 C 71.144531 209.625 71.632812 210.574219 72.464844 211.128906 C 73.292969 211.683594 74.355469 211.769531 75.273438 211.351562 L 84.238281 207.261719 C 84.960938 207.664062 85.6875 208.054688 86.417969 208.433594 L 88.003906 218.160156 C 88.164062 219.152344 88.824219 219.988281 89.75 220.378906 C 90.671875 220.761719 91.738281 220.640625 92.539062 220.054688 L 100.53125 214.304688 C 101.320312 214.554688 102.113281 214.800781 102.917969 215.027344 L 106.359375 224.257812 C 106.710938 225.195312 107.519531 225.890625 108.5 226.078125 C 109.480469 226.277344 110.488281 225.949219 111.175781 225.214844 L 117.902344 217.992188 C 118.714844 218.085938 119.535156 218.164062 120.351562 218.238281 L 125.550781 226.625 C 126.070312 227.472656 127.003906 227.996094 127.996094 227.996094 C 128.988281 227.996094 129.925781 227.476562 130.460938 226.625 L 135.660156 218.238281 C 136.476562 218.164062 137.292969 218.085938 138.105469 217.992188 L 144.835938 225.214844 C 145.515625 225.949219 146.527344 226.277344 147.511719 226.078125 C 148.492188 225.886719 149.304688 225.195312 149.648438 224.257812 L 153.089844 215.027344 C 153.890625 214.800781 154.683594 214.554688 155.480469 214.304688 L 163.46875 220.054688 C 164.28125 220.640625 165.339844 220.761719 166.257812 220.378906 C 167.183594 220 167.847656 219.160156 168.007812 218.160156 L 169.59375 208.433594 C 170.328125 208.054688 171.054688 207.660156 171.773438 207.261719 L 180.734375 211.351562 C 181.648438 211.769531 182.703125 211.683594 183.546875 211.128906 C 184.378906 210.570312 184.863281 209.625 184.828125 208.625 L 184.484375 198.746094 C 185.121094 198.234375 185.753906 197.722656 186.378906 197.191406 L 195.992188 199.445312 C 196.96875 199.675781 197.996094 199.390625 198.707031 198.675781 C 199.417969 197.96875 199.703125 196.949219 199.476562 195.980469 L 197.21875 186.367188 C 197.746094 185.742188 198.269531 185.117188 198.777344 184.472656 L 208.65625 184.820312 C 209.652344 184.859375 210.605469 184.371094 211.160156 183.535156 C 211.71875 182.703125 211.804688 181.644531 211.386719 180.726562 L 207.296875 171.765625 C 207.695312 171.039062 208.089844 170.3125 208.46875 169.585938 L 218.195312 168.003906 C 219.183594 167.84375 220.019531 167.183594 220.394531 166.257812 C 220.773438 165.335938 220.65625 164.269531 220.066406 163.46875 L 214.316406 155.480469 C 214.5625 154.6875 214.804688 153.894531 215.039062 153.089844 L 224.269531 149.648438 C 225.207031 149.296875 225.898438 148.488281 226.089844 147.507812 C 226.289062 146.527344 225.960938 145.523438 225.226562 144.835938 L 218.003906 138.105469 C 218.089844 137.296875 218.171875 136.476562 218.242188 135.660156 L 226.632812 130.464844 C 227.480469 129.9375 228 129.007812 228 128.015625 C 228 127.023438 227.484375 126.085938 226.632812 125.550781 Z M 170.382812 195.304688 C 167.171875 194.613281 165.144531 191.445312 165.832031 188.234375 C 166.519531 185.023438 169.675781 182.980469 172.886719 183.667969 C 176.097656 184.351562 178.140625 187.527344 177.453125 190.738281 C 176.765625 193.949219 173.613281 195.992188 170.402344 195.304688 Z M 167.535156 176.003906 C 164.609375 175.378906 161.722656 177.238281 161.113281 180.171875 L 158.132812 194.082031 C 148.9375 198.25 138.636719 200.578125 127.933594 200.578125 C 116.921875 200.578125 106.527344 198.152344 97.160156 193.796875 L 94.179688 179.882812 C 93.550781 176.960938 90.679688 175.085938 87.757812 175.71875 L 75.46875 178.355469 C 73.191406 176.003906 71.070312 173.5 69.121094 170.863281 L 128.945312 170.863281 C 129.621094 170.863281 130.074219 170.742188 130.074219 170.125 L 130.074219 148.910156 C 130.074219 148.296875 129.621094 148.175781 128.945312 148.175781 L 111.457031 148.175781 L 111.457031 134.777344 L 130.359375 134.777344 C 132.085938 134.777344 139.589844 135.269531 141.980469 144.867188 C 142.730469 147.8125 144.386719 157.40625 145.515625 160.480469 C 146.640625 163.921875 151.210938 170.800781 156.085938 170.800781 L 185.902344 170.800781 C 186.238281 170.800781 186.601562 170.761719 186.980469 170.695312 C 184.917969 173.503906 182.644531 176.160156 180.214844 178.644531 L 167.640625 175.949219 Z M 84.773438 195.019531 C 81.5625 195.710938 78.410156 193.664062 77.722656 190.449219 C 77.035156 187.242188 79.074219 184.066406 82.289062 183.378906 C 85.5 182.695312 88.65625 184.738281 89.34375 187.949219 C 90.027344 191.160156 87.988281 194.332031 84.773438 195.019531 Z M 62.03125 103.097656 C 63.359375 106.097656 62.007812 109.613281 59.011719 110.949219 C 56.011719 112.28125 52.511719 110.929688 51.175781 107.929688 C 49.835938 104.933594 51.199219 101.414062 54.195312 100.074219 C 57.195312 98.746094 60.691406 100.097656 62.03125 103.097656 Z M 55.054688 119.609375 L 67.859375 113.914062 C 70.59375 112.699219 71.835938 109.496094 70.613281 106.765625 L 67.976562 100.804688 L 78.335938 100.804688 L 78.335938 147.433594 L 57.5 147.433594 C 55.6875 141.050781 54.710938 134.324219 54.710938 127.367188 C 54.710938 124.710938 54.855469 122.09375 55.128906 119.511719 Z M 111.246094 115.078125 L 111.246094 101.320312 L 135.902344 101.320312 C 137.175781 101.320312 144.902344 102.792969 144.902344 108.5625 C 144.902344 113.359375 138.980469 115.078125 134.105469 115.078125 L 111.171875 115.078125 Z M 200.886719 127.460938 C 200.886719 129.289062 200.820312 131.09375 200.6875 132.890625 L 193.175781 132.890625 C 192.421875 132.890625 192.121094 133.382812 192.121094 134.117188 L 192.121094 137.558594 C 192.121094 145.660156 187.554688 147.4375 183.539062 147.878906 C 179.71875 148.308594 175.492188 146.28125 174.976562 143.941406 C 172.722656 131.269531 168.976562 128.574219 163.050781 123.875 C 170.410156 119.210938 178.054688 112.3125 178.054688 103.042969 C 178.054688 93.085938 171.230469 86.820312 166.585938 83.742188 C 160.050781 79.441406 152.824219 78.582031 150.875 78.582031 L 73.277344 78.582031 C 83.808594 66.847656 98.125 58.515625 114.179688 55.457031 L 123.335938 65.050781 C 125.398438 67.210938 128.820312 67.308594 130.996094 65.226562 L 141.242188 55.441406 C 162.648438 59.4375 180.804688 72.777344 191.316406 91.179688 L 184.304688 107.003906 C 183.09375 109.738281 184.328125 112.949219 187.054688 114.152344 L 200.550781 120.152344 C 200.78125 122.539062 200.90625 124.96875 200.90625 127.414062 Z M 123.289062 47.386719 C 125.65625 45.113281 129.421875 45.210938 131.679688 47.582031 C 133.933594 49.949219 133.855469 53.714844 131.480469 55.988281 C 129.109375 58.265625 125.347656 58.167969 123.089844 55.792969 C 120.835938 53.425781 120.910156 49.660156 123.289062 47.386719 Z M 192.859375 103.382812 C 194.1875 100.382812 197.695312 99.023438 200.695312 100.363281 C 203.695312 101.691406 205.054688 105.21875 203.714844 108.21875 C 202.386719 111.21875 198.878906 112.574219 195.878906 111.238281 C 192.878906 109.90625 191.519531 106.382812 192.859375 103.382812 Z M 192.859375 103.382812 "/>
</g>
</svg>
