<?xml version="1.0" encoding="UTF-8"?>
<svg xmlns="http://www.w3.org/2000/svg" xmlns:xlink="http://www.w3.org/1999/xlink" width="256px" height="256px" viewBox="0 0 256 256" version="1.1">
<defs>
<clipPath id="clip1">
  <path d="M 28 53 L 228 53 L 228 202.910156 L 28 202.910156 Z M 28 53 "/>
</clipPath>
</defs>
<g id="surface1">
<path style=" stroke:none;fill-rule:nonzero;fill:rgb(80.392157%,40.392157%,60%);fill-opacity:1;" d="M 60 0 L 196 0 C 229.136719 0 256 26.863281 256 60 L 256 196 C 256 229.136719 229.136719 256 196 256 L 60 256 C 26.863281 256 0 229.136719 0 196 L 0 60 C 0 26.863281 26.863281 0 60 0 Z M 60 0 "/>
<g clip-path="url(#clip1)" clip-rule="nonzero">
<path style=" stroke:none;fill-rule:nonzero;fill:rgb(100%,100%,100%);fill-opacity:1;" d="M 200.105469 139.164062 C 193.132812 139.199219 187.074219 140.878906 181.996094 143.359375 C 180.136719 139.675781 178.273438 136.386719 177.945312 133.976562 C 177.578125 131.167969 177.140625 129.449219 177.578125 126.09375 C 178.019531 122.734375 179.988281 117.949219 179.953125 117.585938 C 179.917969 117.21875 179.515625 115.503906 175.5 115.46875 C 171.484375 115.433594 168.015625 116.234375 167.613281 117.292969 C 167.210938 118.351562 166.445312 120.761719 165.933594 123.246094 C 165.238281 126.894531 157.902344 139.929688 153.703125 146.757812 C 152.351562 144.09375 151.183594 141.753906 150.929688 139.894531 C 150.5625 137.082031 150.125 135.367188 150.5625 132.007812 C 151 128.648438 152.972656 123.863281 152.9375 123.5 C 152.898438 123.136719 152.496094 121.417969 148.480469 121.382812 C 144.464844 121.347656 140.996094 122.148438 140.597656 123.207031 C 140.195312 124.265625 139.757812 126.75 138.914062 129.160156 C 138.078125 131.570312 128.328125 153.328125 125.773438 158.949219 C 124.460938 161.835938 123.328125 164.136719 122.523438 165.703125 C 122.523438 165.703125 122.488281 165.816406 122.378906 165.996094 C 121.683594 167.347656 121.28125 168.078125 121.28125 168.078125 C 121.28125 168.078125 121.28125 168.078125 121.28125 168.113281 C 120.734375 169.101562 120.148438 170.011719 119.859375 170.011719 C 119.640625 170.011719 119.238281 167.386719 119.929688 163.808594 C 121.390625 156.25 124.859375 144.492188 124.824219 144.09375 C 124.824219 143.871094 125.480469 141.828125 122.558594 140.769531 C 119.710938 139.710938 118.691406 141.464844 118.433594 141.464844 C 118.179688 141.464844 117.996094 142.085938 117.996094 142.085938 C 117.996094 142.085938 121.171875 128.867188 111.9375 128.867188 C 106.167969 128.867188 98.207031 135.183594 94.265625 140.878906 C 91.78125 142.230469 86.488281 145.113281 80.828125 148.21875 C 78.675781 149.421875 76.449219 150.628906 74.367188 151.757812 C 74.222656 151.613281 74.074219 151.429688 73.929688 151.285156 C 62.757812 139.34375 42.09375 130.910156 42.96875 114.882812 C 43.296875 109.042969 45.304688 93.707031 82.65625 75.089844 C 113.394531 59.9375 137.859375 64.136719 142.09375 73.445312 C 148.152344 86.734375 128.984375 111.414062 97.222656 114.992188 C 85.101562 116.34375 78.75 111.671875 77.140625 109.917969 C 75.460938 108.09375 75.207031 107.984375 74.585938 108.347656 C 73.5625 108.894531 74.222656 110.539062 74.585938 111.488281 C 75.535156 113.972656 79.441406 118.351562 86.050781 120.507812 C 91.890625 122.40625 106.09375 123.464844 123.289062 116.820312 C 142.53125 109.371094 157.574219 88.667969 153.15625 71.328125 C 148.738281 53.730469 119.53125 47.925781 91.890625 57.746094 C 75.460938 63.585938 57.644531 72.789062 44.832031 84.761719 C 29.605469 99.003906 27.195312 111.378906 28.183594 116.5625 C 31.722656 134.964844 57.097656 146.9375 67.246094 155.8125 C 66.738281 156.101562 66.261719 156.359375 65.859375 156.578125 C 60.785156 159.097656 41.4375 169.210938 36.617188 179.90625 C 31.140625 192.027344 37.492188 200.71875 41.691406 201.886719 C 54.726562 205.5 68.125 199.003906 75.316406 188.269531 C 82.507812 177.535156 81.632812 163.589844 78.308594 157.199219 C 78.273438 157.125 78.238281 157.054688 78.164062 156.980469 C 79.480469 156.214844 80.828125 155.410156 82.144531 154.644531 C 84.734375 153.109375 87.292969 151.6875 89.480469 150.515625 C 88.242188 153.914062 87.328125 157.964844 86.890625 163.808594 C 86.34375 170.671875 89.152344 179.578125 92.839844 183.085938 C 94.484375 184.617188 96.417969 184.652344 97.660156 184.652344 C 101.96875 184.652344 103.902344 181.074219 106.058594 176.839844 C 108.6875 171.65625 111.058594 165.632812 111.058594 165.632812 C 111.058594 165.632812 108.101562 181.914062 116.132812 181.914062 C 119.054688 181.914062 122.011719 178.117188 123.328125 176.183594 C 123.328125 176.21875 123.328125 176.21875 123.328125 176.21875 C 123.328125 176.21875 123.398438 176.109375 123.546875 175.855469 C 123.839844 175.378906 124.019531 175.089844 124.019531 175.089844 C 124.019531 175.089844 124.019531 175.050781 124.019531 175.015625 C 125.1875 172.972656 127.816406 168.335938 131.722656 160.628906 C 136.761719 150.699219 141.617188 138.285156 141.617188 138.285156 C 141.617188 138.285156 142.054688 141.316406 143.554688 146.355469 C 144.429688 149.3125 146.253906 152.5625 147.714844 155.703125 C 146.546875 157.34375 145.816406 158.257812 145.816406 158.257812 C 145.816406 158.257812 145.816406 158.257812 145.851562 158.292969 C 144.902344 159.535156 143.882812 160.886719 142.75 162.199219 C 138.769531 166.945312 134.023438 172.386719 133.367188 173.957031 C 132.601562 175.820312 132.78125 177.167969 134.242188 178.265625 C 135.300781 179.066406 137.199219 179.175781 139.136719 179.066406 C 142.714844 178.8125 145.234375 177.9375 146.472656 177.386719 C 148.410156 176.695312 150.671875 175.636719 152.789062 174.066406 C 156.695312 171.183594 159.070312 167.054688 158.851562 161.617188 C 158.742188 158.621094 157.753906 155.628906 156.550781 152.816406 C 156.914062 152.304688 157.242188 151.796875 157.609375 151.285156 C 163.78125 142.265625 168.5625 132.371094 168.5625 132.371094 C 168.5625 132.371094 169 135.402344 170.496094 140.441406 C 171.226562 142.996094 172.722656 145.769531 174.039062 148.472656 C 168.234375 153.183594 164.65625 158.660156 163.378906 162.238281 C 161.078125 168.882812 162.867188 171.875 166.261719 172.570312 C 167.796875 172.898438 169.984375 172.167969 171.59375 171.472656 C 173.636719 170.816406 176.046875 169.683594 178.347656 168.003906 C 182.253906 165.121094 186.015625 161.105469 185.796875 155.664062 C 185.683594 153.183594 185.027344 150.734375 184.113281 148.363281 C 189.042969 146.320312 195.398438 145.1875 203.503906 146.136719 C 220.882812 148.179688 224.3125 159.023438 223.65625 163.589844 C 222.996094 168.152344 219.347656 170.632812 218.140625 171.402344 C 216.9375 172.167969 216.535156 172.421875 216.644531 172.972656 C 216.792969 173.773438 217.375 173.738281 218.398438 173.589844 C 219.820312 173.335938 227.523438 169.902344 227.855469 161.507812 C 228.402344 150.773438 218.179688 139.054688 200.105469 139.164062 Z M 66.042969 184.363281 C 60.273438 190.640625 52.242188 193.015625 48.773438 191.007812 C 45.050781 188.851562 46.511719 179.578125 53.59375 172.933594 C 57.902344 168.882812 63.449219 165.121094 67.136719 162.820312 C 67.976562 162.308594 69.21875 161.578125 70.714844 160.667969 C 70.972656 160.519531 71.117188 160.449219 71.117188 160.449219 C 71.410156 160.265625 71.703125 160.082031 71.996094 159.898438 C 74.585938 169.394531 72.105469 177.753906 66.042969 184.363281 Z M 108.027344 155.8125 C 106.019531 160.703125 101.824219 173.226562 99.265625 172.53125 C 97.078125 171.949219 95.726562 162.457031 98.828125 153.074219 C 100.398438 148.363281 103.722656 142.742188 105.65625 140.550781 C 108.796875 137.046875 112.265625 135.878906 113.105469 137.300781 C 114.164062 139.164062 109.269531 152.742188 108.027344 155.8125 Z M 142.675781 172.386719 C 141.835938 172.824219 141.035156 173.117188 140.667969 172.898438 C 140.414062 172.753906 141.035156 172.167969 141.035156 172.167969 C 141.035156 172.167969 145.378906 167.492188 147.09375 165.378906 C 148.078125 164.136719 149.25 162.675781 150.488281 161.03125 C 150.488281 161.179688 150.488281 161.359375 150.488281 161.507812 C 150.488281 167.09375 145.085938 170.851562 142.675781 172.386719 Z M 169.402344 166.289062 C 168.78125 165.851562 168.890625 164.390625 170.972656 159.828125 C 171.773438 158.039062 173.675781 155.046875 176.921875 152.160156 C 177.289062 153.328125 177.542969 154.460938 177.507812 155.519531 C 177.472656 162.566406 172.433594 165.195312 169.402344 166.289062 Z M 169.402344 166.289062 "/>
</g>
</g>
</svg>
