<?xml version="1.0" encoding="UTF-8"?>
<svg xmlns="http://www.w3.org/2000/svg" xmlns:xlink="http://www.w3.org/1999/xlink" width="256px" height="256px" viewBox="0 0 256 256" version="1.1">
<g id="surface1">
<path style=" stroke:none;fill-rule:nonzero;fill:rgb(14.117647%,16.078431%,21.960784%);fill-opacity:1;" d="M 60 0 L 196 0 C 229.136719 0 256 26.863281 256 60 L 256 196 C 256 229.136719 229.136719 256 196 256 L 60 256 C 26.863281 256 0 229.136719 0 196 L 0 60 C 0 26.863281 26.863281 0 60 0 Z M 60 0 "/>
<path style=" stroke:none;fill-rule:nonzero;fill:rgb(80.392157%,40.392157%,60%);fill-opacity:1;" d="M 203.828125 139.789062 C 196.5 139.828125 190.132812 141.59375 184.800781 144.199219 C 182.84375 140.328125 180.890625 136.875 180.542969 134.34375 C 180.160156 131.390625 179.699219 129.585938 180.160156 126.058594 C 180.621094 122.527344 182.691406 117.503906 182.652344 117.121094 C 182.613281 116.738281 182.191406 114.933594 177.972656 114.894531 C 173.753906 114.855469 170.109375 115.703125 169.6875 116.8125 C 169.265625 117.925781 168.460938 120.457031 167.925781 123.066406 C 167.195312 126.902344 159.484375 140.59375 155.074219 147.769531 C 153.65625 144.96875 152.425781 142.511719 152.160156 140.558594 C 151.777344 137.601562 151.316406 135.800781 151.777344 132.273438 C 152.234375 128.742188 154.308594 123.71875 154.269531 123.335938 C 154.230469 122.949219 153.808594 121.148438 149.589844 121.109375 C 145.371094 121.070312 141.726562 121.914062 141.304688 123.027344 C 140.882812 124.140625 140.421875 126.75 139.539062 129.28125 C 138.65625 131.8125 128.414062 154.671875 125.730469 160.578125 C 124.351562 163.609375 123.160156 166.027344 122.316406 167.675781 C 122.316406 167.675781 122.277344 167.789062 122.164062 167.980469 C 121.433594 169.402344 121.011719 170.167969 121.011719 170.167969 C 121.011719 170.167969 121.011719 170.167969 121.011719 170.207031 C 120.4375 171.242188 119.824219 172.203125 119.515625 172.203125 C 119.285156 172.203125 118.863281 169.441406 119.59375 165.679688 C 121.128906 157.742188 124.773438 145.390625 124.734375 144.96875 C 124.734375 144.738281 125.425781 142.589844 122.355469 141.476562 C 119.363281 140.363281 118.289062 142.207031 118.019531 142.207031 C 117.753906 142.207031 117.5625 142.859375 117.5625 142.859375 C 117.5625 142.859375 120.898438 128.972656 111.195312 128.972656 C 105.132812 128.972656 96.769531 135.609375 92.628906 141.59375 C 90.019531 143.011719 84.457031 146.042969 78.511719 149.300781 C 76.25 150.566406 73.910156 151.832031 71.722656 153.023438 C 71.570312 152.871094 71.417969 152.675781 71.261719 152.523438 C 59.527344 139.980469 37.816406 131.121094 38.738281 114.28125 C 39.082031 108.144531 41.191406 92.035156 80.429688 72.472656 C 112.726562 56.554688 138.425781 60.964844 142.875 70.746094 C 149.242188 84.707031 129.105469 110.636719 95.734375 114.398438 C 83 115.816406 76.328125 110.90625 74.640625 109.066406 C 72.875 107.148438 72.605469 107.03125 71.953125 107.417969 C 70.878906 107.992188 71.570312 109.71875 71.953125 110.714844 C 72.953125 113.324219 77.054688 117.925781 84 120.1875 C 90.136719 122.183594 105.054688 123.296875 123.121094 116.316406 C 143.335938 108.488281 159.140625 86.742188 154.5 68.523438 C 149.859375 50.035156 119.171875 43.933594 90.136719 54.253906 C 72.875 60.390625 54.15625 70.054688 40.691406 82.636719 C 24.699219 97.597656 22.167969 110.601562 23.203125 116.046875 C 26.921875 135.378906 53.582031 147.960938 64.246094 157.28125 C 63.707031 157.585938 63.207031 157.855469 62.785156 158.085938 C 57.453125 160.734375 37.125 171.359375 32.0625 182.597656 C 26.308594 195.332031 32.984375 204.460938 37.394531 205.6875 C 51.085938 209.484375 65.164062 202.65625 72.722656 191.378906 C 80.277344 180.101562 79.355469 165.449219 75.867188 158.738281 C 75.828125 158.660156 75.789062 158.585938 75.714844 158.507812 C 77.09375 157.703125 78.511719 156.859375 79.894531 156.054688 C 82.617188 154.441406 85.300781 152.945312 87.605469 151.71875 C 86.300781 155.285156 85.339844 159.542969 84.878906 165.679688 C 84.304688 172.890625 87.257812 182.25 91.132812 185.933594 C 92.859375 187.542969 94.890625 187.582031 96.195312 187.582031 C 100.722656 187.582031 102.753906 183.824219 105.019531 179.375 C 107.78125 173.925781 110.273438 167.597656 110.273438 167.597656 C 110.273438 167.597656 107.164062 184.707031 115.605469 184.707031 C 118.671875 184.707031 121.78125 180.71875 123.160156 178.683594 L 123.160156 178.722656 C 123.160156 178.722656 123.238281 178.605469 123.390625 178.339844 C 123.699219 177.839844 123.890625 177.535156 123.890625 177.535156 L 123.890625 177.457031 C 125.117188 175.308594 127.878906 170.4375 131.984375 162.34375 C 137.277344 151.910156 142.378906 138.867188 142.378906 138.867188 C 142.378906 138.867188 142.839844 142.054688 144.410156 147.347656 C 145.332031 150.453125 147.25 153.867188 148.785156 157.164062 C 147.554688 158.890625 146.789062 159.851562 146.789062 159.851562 C 146.789062 159.851562 146.789062 159.851562 146.828125 159.890625 C 145.832031 161.191406 144.757812 162.613281 143.566406 163.992188 C 139.386719 168.980469 134.398438 174.695312 133.710938 176.34375 C 132.902344 178.300781 133.09375 179.71875 134.628906 180.871094 C 135.742188 181.714844 137.738281 181.828125 139.769531 181.714844 C 143.527344 181.445312 146.175781 180.523438 147.480469 179.949219 C 149.511719 179.222656 151.890625 178.109375 154.117188 176.460938 C 158.21875 173.429688 160.710938 169.09375 160.484375 163.378906 C 160.367188 160.234375 159.332031 157.089844 158.066406 154.136719 C 158.449219 153.597656 158.796875 153.0625 159.179688 152.523438 C 165.660156 143.050781 170.6875 132.65625 170.6875 132.65625 C 170.6875 132.65625 171.144531 135.839844 172.71875 141.132812 C 173.484375 143.816406 175.058594 146.730469 176.4375 149.570312 C 170.339844 154.519531 166.582031 160.273438 165.238281 164.03125 C 162.824219 171.011719 164.703125 174.15625 168.269531 174.886719 C 169.878906 175.230469 172.183594 174.464844 173.871094 173.734375 C 176.015625 173.046875 178.550781 171.855469 180.964844 170.09375 C 185.070312 167.0625 189.019531 162.84375 188.789062 157.128906 C 188.675781 154.519531 187.984375 151.949219 187.027344 149.457031 C 192.203125 147.308594 198.878906 146.117188 207.394531 147.117188 C 225.652344 149.265625 229.257812 160.65625 228.566406 165.449219 C 227.875 170.246094 224.039062 172.855469 222.773438 173.660156 C 221.507812 174.464844 221.085938 174.734375 221.203125 175.308594 C 221.355469 176.152344 221.96875 176.113281 223.042969 175.960938 C 224.539062 175.691406 232.632812 172.085938 232.976562 163.265625 C 233.554688 151.988281 222.8125 139.675781 203.828125 139.789062 Z M 62.976562 187.277344 C 56.917969 193.875 48.480469 196.367188 44.835938 194.257812 C 40.921875 191.992188 42.457031 182.25 49.898438 175.269531 C 54.425781 171.011719 60.253906 167.0625 64.128906 164.644531 C 65.011719 164.109375 66.316406 163.339844 67.886719 162.382812 C 68.15625 162.230469 68.308594 162.152344 68.308594 162.152344 C 68.617188 161.960938 68.921875 161.769531 69.230469 161.578125 C 71.953125 171.550781 69.34375 180.332031 62.976562 187.277344 Z M 107.089844 157.28125 C 104.980469 162.421875 100.570312 175.578125 97.882812 174.847656 C 95.582031 174.234375 94.164062 164.261719 97.421875 154.402344 C 99.074219 149.457031 102.5625 143.546875 104.597656 141.246094 C 107.894531 137.566406 111.539062 136.335938 112.421875 137.832031 C 113.535156 139.789062 108.394531 154.058594 107.089844 157.28125 Z M 143.492188 174.695312 C 142.609375 175.15625 141.765625 175.460938 141.378906 175.230469 C 141.113281 175.078125 141.765625 174.464844 141.765625 174.464844 C 141.765625 174.464844 146.328125 169.554688 148.132812 167.332031 C 149.167969 166.027344 150.394531 164.492188 151.699219 162.765625 L 151.699219 163.265625 C 151.699219 169.132812 146.023438 173.082031 143.492188 174.695312 Z M 171.566406 168.289062 C 170.914062 167.828125 171.03125 166.292969 173.21875 161.5 C 174.0625 159.621094 176.054688 156.476562 179.46875 153.445312 C 179.851562 154.671875 180.121094 155.863281 180.082031 156.972656 C 180.046875 164.375 174.75 167.136719 171.566406 168.289062 Z M 171.566406 168.289062 "/>
</g>
</svg>
