<?xml version="1.0" encoding="UTF-8"?>
<svg xmlns="http://www.w3.org/2000/svg" xmlns:xlink="http://www.w3.org/1999/xlink" width="256px" height="256px" viewBox="0 0 256 256" version="1.1">
<g id="surface1">
<path style=" stroke:none;fill-rule:nonzero;fill:rgb(0%,47.843137%,80%);fill-opacity:1;" d="M 60 0 L 196 0 C 229.136719 0 256 26.863281 256 60 L 256 196 C 256 229.136719 229.136719 256 196 256 L 60 256 C 26.863281 256 0 229.136719 0 196 L 0 60 C 0 26.863281 26.863281 0 60 0 Z M 60 0 "/>
<path style=" stroke:none;fill-rule:nonzero;fill:rgb(100%,100%,100%);fill-opacity:1;" d="M 56.609375 128.847656 L 56.53125 139.332031 L 89.851562 139.332031 L 89.851562 234.011719 L 113.417969 234.011719 L 113.417969 139.332031 L 146.738281 139.332031 L 146.738281 129.050781 C 146.738281 123.363281 146.617188 118.609375 146.453125 118.488281 C 146.332031 118.324219 126.054688 118.242188 101.472656 118.285156 L 56.734375 118.40625 Z M 56.609375 128.847656 "/>
<path style=" stroke:none;fill-rule:nonzero;fill:rgb(100%,100%,100%);fill-opacity:1;" d="M 206.566406 118.109375 C 213.066406 119.734375 218.027344 122.617188 222.578125 127.332031 C 224.933594 129.851562 228.429688 134.445312 228.714844 135.539062 C 228.792969 135.867188 217.660156 143.34375 210.914062 147.527344 C 210.671875 147.691406 209.695312 146.632812 208.597656 145.007812 C 205.308594 140.214844 201.851562 138.140625 196.570312 137.777344 C 188.808594 137.246094 183.8125 141.3125 183.851562 148.097656 C 183.851562 150.089844 184.136719 151.265625 184.949219 152.890625 C 186.65625 156.425781 189.824219 158.539062 199.78125 162.847656 C 218.105469 170.730469 225.949219 175.933594 230.824219 183.328125 C 236.269531 191.574219 237.488281 204.742188 233.792969 214.535156 C 229.730469 225.179688 219.652344 232.414062 205.46875 234.8125 C 201.082031 235.585938 190.679688 235.460938 185.964844 234.609375 C 175.683594 232.78125 165.933594 227.699219 159.917969 221.035156 C 157.5625 218.4375 152.96875 211.648438 153.253906 211.160156 C 153.375 211 154.433594 210.351562 155.609375 209.660156 C 156.746094 209.007812 161.054688 206.53125 165.117188 204.171875 L 172.472656 199.90625 L 174.019531 202.183594 C 176.171875 205.472656 180.886719 209.984375 183.730469 211.488281 C 191.898438 215.796875 203.113281 215.183594 208.640625 210.226562 C 210.996094 208.074219 211.972656 205.839844 211.972656 202.546875 C 211.972656 199.582031 211.605469 198.28125 210.0625 196.046875 C 208.070312 193.203125 204.007812 190.804688 192.464844 185.804688 C 179.261719 180.117188 173.570312 176.582031 168.371094 170.972656 C 165.363281 167.722656 162.519531 162.523438 161.339844 158.175781 C 160.363281 154.558594 160.121094 145.496094 160.894531 141.839844 C 163.613281 129.078125 173.246094 120.179688 187.144531 117.539062 C 191.652344 116.6875 202.136719 117.011719 206.566406 118.109375 Z M 206.566406 118.109375 "/>
</g>
</svg>
