<?xml version="1.0" encoding="utf-8"?>
<svg viewBox="122 122 256 256" xmlns="http://www.w3.org/2000/svg">
  <rect width="256" height="256" fill="#242938" rx="60" x="122" y="122" transform="matrix(1, 0, 0, 1, 0, 7.105427357601002e-15)"/>
  <path d="M 145 159.649 L 226.792 159.907 L 250.034 200.056 L 273.712 159.907 L 355 159.651 L 250.273 340.35 L 145 159.649 Z M 353.326 160.693 L 313.361 160.727 L 250.236 269.095 L 187.15 160.728 L 146.547 160.696 L 250.252 337.703 L 353.326 160.693 Z M 312.067 160.68 L 274.75 160.957 L 250.056 201.393 L 225.745 160.953 L 188.349 160.68 L 250.252 266.459 L 312.067 160.68 Z M 187.652 160.402 L 225.388 160.418 M 187.652 160.4 L 225.388 160.418" fill="none" transform="matrix(1, 0, 0, 1, 0, 7.105427357601002e-15)"/>
  <path d="M 187.652 160.402 L 225.388 160.418 L 250.058 201.362 L 274.639 160.421 L 312.345 160.409 L 250.247 268.127 L 187.652 160.402 Z" fill="#35495e" transform="matrix(1, 0, 0, 1, 0, 7.105427357601002e-15)"/>
  <path d="M 146.493 160.692 L 187.619 160.409 L 250.208 268.131 L 312.312 160.413 L 353.507 160.459 L 250.204 337.746 L 146.493 160.692 Z" fill="#41b883" transform="matrix(1, 0, 0, 1, 0, 7.105427357601002e-15)"/>
</svg>