<?xml version="1.0" encoding="utf-8"?>
<svg viewBox="122 122 256 256" xmlns="http://www.w3.org/2000/svg">
  <rect width="256" height="256" fill="#242938" rx="60" y="122" x="122"/>
  <path d="M 151.217 168.614 L 228.166 168.858 L 250.031 206.626 L 272.307 168.858 L 348.783 168.616 L 250.255 338.614 L 151.217 168.614 Z M 347.207 169.597 L 309.608 169.627 L 250.222 271.579 L 190.87 169.629 L 152.67 169.599 L 250.235 336.124 L 347.207 169.597 Z M 308.39 169.584 L 273.285 169.844 L 250.05 207.886 L 227.181 169.843 L 191.999 169.584 L 250.235 269.101 L 308.39 169.584 Z M 191.343 169.323 L 226.846 169.337 M 191.343 169.321 L 226.846 169.337" fill="none"/>
  <path d="M 191.343 169.323 L 226.846 169.337 L 250.053 207.859 L 273.18 169.339 L 308.651 169.33 L 250.231 270.667 L 191.343 169.323 Z" fill="#35495e"/>
  <path d="M 152.621 169.594 L 191.311 169.328 L 250.196 270.672 L 308.621 169.335 L 347.377 169.375 L 250.191 336.163 L 152.621 169.594 Z" fill="#41b883"/>
</svg>