<?xml version="1.0" encoding="utf-8"?>
<svg viewBox="122 122 256 256" xmlns="http://www.w3.org/2000/svg">
  <rect width="256" height="256" fill="#242938" rx="60" x="122" y="122" transform="matrix(1, 0, 0, 1, 0, 7.105427357601002e-15)"/>
  <path d="M 150 163.952 L 227.897 164.198 L 250.032 202.435 L 272.583 164.198 L 350 163.954 L 250.26 336.048 L 150 163.952 Z M 348.406 164.946 L 310.344 164.979 L 250.225 268.186 L 190.143 164.98 L 151.473 164.949 L 250.24 333.527 L 348.406 164.946 Z M 309.111 164.934 L 273.571 165.198 L 250.053 203.708 L 226.9 165.194 L 191.285 164.934 L 250.24 265.676 L 309.111 164.934 Z M 190.621 164.669 L 226.56 164.684 M 190.621 164.667 L 226.56 164.684" fill="none" transform="matrix(1, 0, 0, 1, 0, 7.105427357601002e-15)"/>
  <path d="M 190.621 164.669 L 226.56 164.684 L 250.055 203.679 L 273.466 164.687 L 309.376 164.676 L 250.235 267.264 L 190.621 164.669 Z" fill="#35495e" transform="matrix(1, 0, 0, 1, 0, 7.105427357601002e-15)"/>
  <path d="M 151.422 164.945 L 190.59 164.676 L 250.198 267.268 L 309.345 164.68 L 348.578 164.723 L 250.194 333.568 L 151.422 164.945 Z" fill="#41b883" transform="matrix(1, 0, 0, 1, 0, 7.105427357601002e-15)"/>
</svg>