<?xml version="1.0" encoding="utf-8"?>
<svg viewBox="122 122 256 256" xmlns="http://www.w3.org/2000/svg">
  <rect width="256" height="256" fill="#242938" rx="60" y="122" x="122"/>
  <path d="M 145 165.358 L 226.792 165.617 L 250.034 205.763 L 273.712 165.617 L 355 165.36 L 250.272 346.058 L 145 165.358 Z M 353.327 166.403 L 313.361 166.436 L 250.236 274.804 L 187.149 166.438 L 146.545 166.405 L 250.251 343.412 L 353.327 166.403 Z M 312.066 166.39 L 274.75 166.666 L 250.054 207.102 L 225.745 166.664 L 188.349 166.388 L 250.251 272.169 L 312.066 166.39 Z M 187.651 166.111 L 225.389 166.126 M 187.651 166.109 L 225.389 166.126" fill="none"/>
  <path d="M 187.651 166.111 L 225.389 166.126 L 250.057 207.073 L 274.639 166.129 L 312.344 166.119 L 250.246 273.834 L 187.651 166.111 Z" fill="#35495e"/>
  <path d="M 146.493 166.4 L 187.619 166.118 L 250.208 273.839 L 312.311 166.124 L 353.507 166.167 L 250.203 343.453 L 146.493 166.4 Z" fill="#41b883"/>
</svg>