<?xml version="1.0" encoding="UTF-8"?>
<svg xmlns="http://www.w3.org/2000/svg" xmlns:xlink="http://www.w3.org/1999/xlink" width="256px" height="256px" viewBox="0 0 256 256" version="1.1">
<g id="surface1">
<path style=" stroke:none;fill-rule:nonzero;fill:rgb(14.117647%,16.078431%,21.960784%);fill-opacity:1;" d="M 60 0 L 196 0 C 229.136719 0 256 26.863281 256 60 L 256 196 C 256 229.136719 229.136719 256 196 256 L 60 256 C 26.863281 256 0 229.136719 0 196 L 0 60 C 0 26.863281 26.863281 0 60 0 Z M 60 0 "/>
<path style=" stroke:none;fill-rule:nonzero;fill:rgb(20.784314%,28.627451%,36.862745%);fill-opacity:1;" d="M 65.652344 44.109375 L 103.390625 44.125 L 128.058594 85.074219 L 152.640625 44.128906 L 190.34375 44.117188 L 128.246094 151.835938 Z M 65.652344 44.109375 "/>
<path style=" stroke:none;fill-rule:nonzero;fill:rgb(25.490196%,72.156863%,51.372549%);fill-opacity:1;" d="M 24.492188 44.398438 L 65.617188 44.117188 L 128.207031 151.839844 L 190.3125 44.125 L 231.507812 44.167969 L 128.203125 221.453125 Z M 24.492188 44.398438 "/>
</g>
</svg>
