<?xml version="1.0" encoding="UTF-8"?>
<svg xmlns="http://www.w3.org/2000/svg" xmlns:xlink="http://www.w3.org/1999/xlink" width="256px" height="256px" viewBox="0 0 256 256" version="1.1">
<defs>
<linearGradient id="linear0" gradientUnits="userSpaceOnUse" x1="9.993" y1="9.993" x2="40.615" y2="40.615" gradientTransform="matrix(5.25,0,0,5.25,2.00164,2.000504)">
<stop offset="0" style="stop-color:rgb(16.470588%,64.313725%,95.686275%);stop-opacity:1;"/>
<stop offset="1" style="stop-color:rgb(0%,47.843137%,85.098039%);stop-opacity:1;"/>
</linearGradient>
</defs>
<g id="surface1">
<path style=" stroke:none;fill-rule:nonzero;fill:rgb(14.117647%,16.078431%,21.960784%);fill-opacity:1;" d="M 60 0 L 196 0 C 229.136719 0 256 26.863281 256 60 L 256 196 C 256 229.136719 229.136719 256 196 256 L 60 256 C 26.863281 256 0 229.136719 0 196 L 0 60 C 0 26.863281 26.863281 0 60 0 Z M 60 0 "/>
<path style=" stroke:none;fill-rule:nonzero;fill:url(#linear0);" d="M 128 23 C 70.007812 23 23 70.007812 23 128 C 23 185.992188 70.007812 233 128 233 C 185.992188 233 233 185.992188 233 128 C 233 70.007812 185.992188 23 128 23 Z M 128 23 "/>
<path style=" stroke:none;fill-rule:nonzero;fill:rgb(100%,100%,100%);fill-opacity:1;" d="M 142.210938 155.828125 L 169.386719 155.828125 L 173.652344 128.226562 L 142.210938 128.226562 L 142.210938 113.136719 C 142.210938 101.671875 145.960938 91.503906 156.6875 91.503906 L 173.921875 91.503906 L 173.921875 67.414062 C 170.890625 67.003906 164.488281 66.113281 152.386719 66.113281 C 127.113281 66.113281 112.296875 79.457031 112.296875 109.867188 L 112.296875 128.230469 L 86.316406 128.230469 L 86.316406 155.835938 L 112.292969 155.835938 L 112.292969 231.707031 C 117.4375 232.476562 122.648438 233 128 233 C 132.835938 233 137.554688 232.558594 142.210938 231.929688 Z M 142.210938 155.828125 "/>
</g>
</svg>
