<?xml version="1.0" encoding="UTF-8"?>
<svg xmlns="http://www.w3.org/2000/svg" xmlns:xlink="http://www.w3.org/1999/xlink" width="256px" height="256px" viewBox="0 0 256 256" version="1.1">
<defs>
<radialGradient id="radial0" gradientUnits="userSpaceOnUse" cx="0" cy="0" fx="0" fy="0" r="1" gradientTransform="matrix(0,-208.12558,193.573242,0,78.781483,249.174515)">
<stop offset="0" style="stop-color:rgb(100%,86.666667%,33.333333%);stop-opacity:1;"/>
<stop offset="0.1" style="stop-color:rgb(100%,86.666667%,33.333333%);stop-opacity:1;"/>
<stop offset="0.5" style="stop-color:rgb(100%,32.941176%,24.313725%);stop-opacity:1;"/>
<stop offset="1" style="stop-color:rgb(78.431373%,21.568627%,67.058824%);stop-opacity:1;"/>
</radialGradient>
<radialGradient id="radial1" gradientUnits="userSpaceOnUse" cx="0" cy="0" fx="0" fy="0" r="1" gradientTransform="matrix(18.260397,91.223625,-376.026794,75.269958,-12.176163,38.128437)">
<stop offset="0" style="stop-color:rgb(21.568627%,44.313725%,78.431373%);stop-opacity:1;"/>
<stop offset="0.128" style="stop-color:rgb(21.568627%,44.313725%,78.431373%);stop-opacity:1;"/>
<stop offset="1" style="stop-color:rgb(40%,0%,100%);stop-opacity:0;"/>
</radialGradient>
</defs>
<g id="surface1">
<path style=" stroke:none;fill-rule:nonzero;fill:rgb(14.117647%,16.078431%,21.960784%);fill-opacity:1;" d="M 60 0 L 196 0 C 229.136719 0 256 26.863281 256 60 L 256 196 C 256 229.136719 229.136719 256 196 256 L 60 256 C 26.863281 256 0 229.136719 0 196 L 0 60 C 0 26.863281 26.863281 0 60 0 Z M 60 0 "/>
<path style=" stroke:none;fill-rule:nonzero;fill:url(#radial0);" d="M 83 23 L 173 23 C 206.136719 23 233 49.863281 233 83 L 233 173 C 233 206.136719 206.136719 233 173 233 L 83 233 C 49.863281 233 23 206.136719 23 173 L 23 83 C 23 49.863281 49.863281 23 83 23 Z M 83 23 "/>
<path style=" stroke:none;fill-rule:nonzero;fill:url(#radial1);" d="M 83 23 L 173 23 C 206.136719 23 233 49.863281 233 83 L 233 173 C 233 206.136719 206.136719 233 173 233 L 83 233 C 49.863281 233 23 206.136719 23 173 L 23 83 C 23 49.863281 49.863281 23 83 23 Z M 83 23 "/>
<path style=" stroke:none;fill-rule:nonzero;fill:rgb(100%,100%,100%);fill-opacity:1;" d="M 128.007812 45.96875 C 105.730469 45.96875 102.933594 46.066406 94.183594 46.464844 C 85.449219 46.863281 79.488281 48.246094 74.273438 50.277344 C 68.878906 52.371094 64.300781 55.171875 59.742188 59.734375 C 55.179688 64.296875 52.375 68.871094 50.273438 74.265625 C 48.238281 79.484375 46.855469 85.445312 46.464844 94.175781 C 46.070312 102.925781 45.96875 105.722656 45.96875 128 C 45.96875 150.28125 46.066406 153.066406 46.464844 161.816406 C 46.867188 170.550781 48.246094 176.511719 50.273438 181.726562 C 52.371094 187.121094 55.175781 191.699219 59.734375 196.257812 C 64.296875 200.820312 68.871094 203.632812 74.261719 205.726562 C 79.484375 207.753906 85.445312 209.136719 94.175781 209.535156 C 102.925781 209.933594 105.71875 210.03125 127.996094 210.03125 C 150.277344 210.03125 153.066406 209.933594 161.816406 209.535156 C 170.546875 209.136719 176.515625 207.753906 181.734375 205.726562 C 187.128906 203.632812 191.699219 200.820312 196.257812 196.257812 C 200.820312 191.699219 203.621094 187.121094 205.726562 181.730469 C 207.742188 176.511719 209.125 170.546875 209.535156 161.816406 C 209.929688 153.070312 210.03125 150.28125 210.03125 128 C 210.03125 105.722656 209.929688 102.925781 209.535156 94.175781 C 209.125 85.445312 207.742188 79.484375 205.726562 74.265625 C 203.621094 68.871094 200.820312 64.296875 196.257812 59.734375 C 191.695312 55.171875 187.132812 52.371094 181.730469 50.277344 C 176.5 48.246094 170.535156 46.863281 161.804688 46.464844 C 153.054688 46.066406 150.265625 45.96875 127.980469 45.96875 Z M 120.648438 60.753906 C 122.832031 60.746094 125.269531 60.753906 128.007812 60.753906 C 149.910156 60.753906 152.507812 60.828125 161.15625 61.222656 C 169.152344 61.589844 173.496094 62.925781 176.386719 64.046875 C 180.214844 65.535156 182.945312 67.3125 185.8125 70.183594 C 188.683594 73.054688 190.460938 75.789062 191.953125 79.617188 C 193.074219 82.503906 194.410156 86.847656 194.777344 94.84375 C 195.171875 103.492188 195.253906 106.089844 195.253906 127.980469 C 195.253906 149.875 195.171875 152.472656 194.777344 161.117188 C 194.410156 169.117188 193.074219 173.457031 191.953125 176.347656 C 190.464844 180.175781 188.683594 182.902344 185.8125 185.769531 C 182.941406 188.640625 180.214844 190.417969 176.386719 191.90625 C 173.496094 193.035156 169.152344 194.367188 161.15625 194.730469 C 152.507812 195.125 149.910156 195.210938 128.007812 195.210938 C 106.101562 195.210938 103.507812 195.125 94.859375 194.730469 C 86.859375 194.363281 82.519531 193.027344 79.628906 191.902344 C 75.800781 190.417969 73.066406 188.640625 70.195312 185.769531 C 67.320312 182.898438 65.546875 180.171875 64.054688 176.339844 C 62.933594 173.453125 61.59375 169.109375 61.230469 161.113281 C 60.835938 152.464844 60.757812 149.867188 60.757812 127.960938 C 60.757812 106.054688 60.835938 103.472656 61.230469 94.824219 C 61.597656 86.824219 62.933594 82.484375 64.054688 79.59375 C 65.542969 75.765625 67.320312 73.03125 70.195312 70.160156 C 73.066406 67.289062 75.800781 65.511719 79.628906 64.019531 C 82.519531 62.894531 86.859375 61.558594 94.859375 61.191406 C 102.429688 60.851562 105.359375 60.746094 120.648438 60.730469 Z M 171.796875 74.371094 C 166.359375 74.371094 161.953125 78.777344 161.953125 84.214844 C 161.953125 89.648438 166.359375 94.058594 171.796875 94.058594 C 177.230469 94.058594 181.640625 89.648438 181.640625 84.214844 C 181.640625 78.777344 177.230469 74.371094 171.796875 74.371094 Z M 128.007812 85.875 C 104.742188 85.875 85.882812 104.738281 85.882812 128 C 85.882812 151.265625 104.742188 170.117188 128.007812 170.117188 C 151.273438 170.117188 170.128906 151.265625 170.128906 128 C 170.128906 104.738281 151.269531 85.875 128.007812 85.875 Z M 128.007812 100.65625 C 143.109375 100.65625 155.351562 112.898438 155.351562 128 C 155.351562 143.101562 143.109375 155.34375 128.007812 155.34375 C 112.90625 155.34375 100.664062 143.101562 100.664062 128 C 100.664062 112.898438 112.90625 100.65625 128.007812 100.65625 Z M 128.007812 100.65625 "/>
</g>
</svg>
