<?xml version="1.0" encoding="UTF-8"?>
<svg xmlns="http://www.w3.org/2000/svg" xmlns:xlink="http://www.w3.org/1999/xlink" width="256px" height="256px" viewBox="0 0 256 256" version="1.1">
<defs>
<filter id="alpha" filterUnits="objectBoundingBox" x="0%" y="0%" width="100%" height="100%">
  <feColorMatrix type="matrix" in="SourceGraphic" values="0 0 0 0 1 0 0 0 0 1 0 0 0 0 1 0 0 0 1 0"/>
</filter>
<mask id="mask0">
  <g filter="url(#alpha)">
<rect x="0" y="0" width="256" height="256" style="fill:rgb(0%,0%,0%);fill-opacity:0.0509804;stroke:none;"/>
  </g>
</mask>
<clipPath id="clip1">
  <rect x="0" y="0" width="256" height="256"/>
</clipPath>
<g id="surface5" clip-path="url(#clip1)">
<path style=" stroke:none;fill-rule:nonzero;fill:rgb(0%,0%,0%);fill-opacity:1;" d="M 159.5 185.75 L 159.5 138.5 C 159.5 132.710938 154.789062 128 149 128 C 143.210938 128 138.5 132.710938 138.5 138.5 L 138.5 185.75 L 107 185.75 L 107 96.5 L 138.5 96.5 L 138.5 101.890625 C 143.960938 98.386719 150.324219 96.5 156.875 96.5 C 175.691406 96.5 191 111.808594 191 130.625 L 191 185.75 Z M 70.25 185.75 L 70.25 96.5 L 85.820312 96.5 C 76.796875 96.5 70.25 89.875 70.25 80.746094 C 70.25 71.621094 76.902344 65 86.058594 65 C 94.960938 65 101.5625 71.574219 101.75 80.640625 C 101.75 89.847656 95.097656 96.5 85.9375 96.5 L 101.75 96.5 L 101.75 185.75 Z M 70.25 185.75 "/>
</g>
<mask id="mask1">
  <g filter="url(#alpha)">
<rect x="0" y="0" width="256" height="256" style="fill:rgb(0%,0%,0%);fill-opacity:0.0705882;stroke:none;"/>
  </g>
</mask>
<clipPath id="clip2">
  <rect x="0" y="0" width="256" height="256"/>
</clipPath>
<g id="surface8" clip-path="url(#clip2)">
<path style=" stroke:none;fill-rule:nonzero;fill:rgb(0%,0%,0%);fill-opacity:1;" d="M 162.125 183.125 L 162.125 138.5 C 162.125 131.265625 156.238281 125.375 149 125.375 C 141.761719 125.375 135.875 131.265625 135.875 138.5 L 135.875 183.125 L 109.625 183.125 L 109.625 99.125 L 135.875 99.125 L 135.875 107.179688 C 141.597656 102.050781 149.0625 99.125 156.875 99.125 C 174.246094 99.125 188.375 113.253906 188.375 130.625 L 188.375 183.125 Z M 72.875 183.125 L 72.875 99.125 L 99.125 99.125 L 99.125 183.125 Z M 85.820312 93.875 C 78.320312 93.875 72.875 88.351562 72.875 80.746094 C 72.875 73.144531 78.417969 67.625 86.058594 67.625 C 93.597656 67.625 98.96875 72.996094 99.125 80.691406 C 99.125 88.351562 93.574219 93.875 85.9375 93.875 Z M 85.820312 93.875 "/>
</g>
</defs>
<g id="surface1">
<path style=" stroke:none;fill-rule:nonzero;fill:rgb(14.117647%,16.078431%,21.960784%);fill-opacity:1;" d="M 60 0 L 196 0 C 229.136719 0 256 26.863281 256 60 L 256 196 C 256 229.136719 229.136719 256 196 256 L 60 256 C 26.863281 256 0 229.136719 0 196 L 0 60 C 0 26.863281 26.863281 0 60 0 Z M 60 0 "/>
<path style=" stroke:none;fill-rule:nonzero;fill:rgb(0%,47.058824%,83.137255%);fill-opacity:1;" d="M 128 23 C 70.007812 23 23 70.007812 23 128 C 23 185.992188 70.007812 233 128 233 C 185.992188 233 233 185.992188 233 128 C 233 70.007812 185.992188 23 128 23 Z M 128 23 "/>
<use xlink:href="#surface5" mask="url(#mask0)"/>
<use xlink:href="#surface8" mask="url(#mask1)"/>
<path style=" stroke:none;fill-rule:nonzero;fill:rgb(100%,100%,100%);fill-opacity:1;" d="M 75.5 101.75 L 96.5 101.75 L 96.5 180.5 L 75.5 180.5 Z M 85.9375 91.25 L 85.820312 91.25 C 79.554688 91.25 75.5 86.578125 75.5 80.746094 C 75.5 74.785156 79.679688 70.25 86.058594 70.25 C 92.445312 70.25 96.378906 74.785156 96.5 80.746094 C 96.5 86.578125 92.445312 91.25 85.9375 91.25 Z M 185.75 130.625 C 185.75 114.675781 172.824219 101.75 156.875 101.75 C 147.097656 101.75 138.472656 106.621094 133.25 114.054688 L 133.25 101.75 L 112.25 101.75 L 112.25 180.5 L 133.25 180.5 L 133.25 138.5 C 133.25 129.800781 140.300781 122.75 149 122.75 C 157.699219 122.75 164.75 129.800781 164.75 138.5 L 164.75 180.5 L 185.75 180.5 C 185.75 180.5 185.75 132.835938 185.75 130.625 Z M 185.75 130.625 "/>
</g>
</svg>
