<?xml version="1.0" encoding="UTF-8"?>
<svg xmlns="http://www.w3.org/2000/svg" xmlns:xlink="http://www.w3.org/1999/xlink" width="256px" height="256px" viewBox="0 0 256 256" version="1.1">
<defs>
<linearGradient id="linear0" gradientUnits="userSpaceOnUse" x1="0.5" y1="0" x2="0.5" y2="1" gradientTransform="matrix(209.908483,0,0,210.133178,23.09157,22.933403)">
<stop offset="0" style="stop-color:rgb(6.666667%,11.372549%,18.039216%);stop-opacity:1;"/>
<stop offset="0.212" style="stop-color:rgb(1.960784%,9.411765%,22.352941%);stop-opacity:1;"/>
<stop offset="0.407" style="stop-color:rgb(3.921569%,10.588235%,28.235294%);stop-opacity:1;"/>
<stop offset="0.581" style="stop-color:rgb(7.45098%,18.039216%,38.431373%);stop-opacity:1;"/>
<stop offset="0.738" style="stop-color:rgb(7.843137%,29.411765%,49.411765%);stop-opacity:1;"/>
<stop offset="0.873" style="stop-color:rgb(7.45098%,39.215686%,59.215686%);stop-opacity:1;"/>
<stop offset="1" style="stop-color:rgb(7.45098%,52.941176%,72.156863%);stop-opacity:1;"/>
</linearGradient>
</defs>
<g id="surface1">
<path style=" stroke:none;fill-rule:nonzero;fill:rgb(14.117647%,16.078431%,21.960784%);fill-opacity:1;" d="M 60 0 L 196 0 C 229.136719 0 256 26.863281 256 60 L 256 196 C 256 229.136719 229.136719 256 196 256 L 60 256 C 26.863281 256 0 229.136719 0 196 L 0 60 C 0 26.863281 26.863281 0 60 0 Z M 60 0 "/>
<path style=" stroke:none;fill-rule:nonzero;fill:url(#linear0);" d="M 27.285156 158.214844 C 40.265625 201.5 80.417969 233.066406 127.933594 233.066406 C 185.957031 233.066406 233 186.027344 233 128 C 233 69.972656 185.957031 22.933594 127.933594 22.933594 C 72.253906 22.933594 26.691406 66.25 23.089844 121.019531 C 29.902344 132.433594 32.546875 139.5 27.28125 158.214844 Z M 27.285156 158.214844 "/>
<path style=" stroke:none;fill-rule:nonzero;fill:rgb(100%,100%,100%);fill-opacity:1;" d="M 122.519531 101.683594 L 122.527344 102.203125 L 96.820312 139.550781 C 92.65625 139.363281 88.480469 140.089844 84.515625 141.722656 C 82.785156 142.425781 81.136719 143.304688 79.59375 144.351562 L 23.136719 121.082031 C 23.136719 121.082031 21.832031 142.574219 27.277344 158.589844 L 67.1875 175.058594 C 69.15625 184.019531 75.332031 191.867188 84.398438 195.648438 C 99.253906 201.816406 116.300781 194.792969 122.496094 179.945312 C 124.082031 176.148438 124.847656 172.058594 124.742188 167.941406 L 161.492188 141.65625 L 162.394531 141.675781 C 184.410156 141.675781 202.300781 123.726562 202.300781 101.683594 C 202.300781 79.640625 184.441406 61.761719 162.394531 61.714844 C 140.390625 61.714844 122.484375 79.640625 122.484375 101.683594 Z M 116.347656 177.363281 C 111.574219 188.855469 98.398438 194.261719 86.949219 189.492188 C 81.871094 187.359375 77.75 183.429688 75.378906 178.457031 L 88.371094 183.839844 C 96.8125 187.351562 106.503906 183.355469 110.011719 174.914062 C 113.53125 166.464844 109.539062 156.769531 101.097656 153.238281 L 87.632812 147.671875 C 92.816406 145.703125 98.707031 145.636719 104.214844 147.925781 C 109.796875 150.234375 114.066406 154.582031 116.351562 160.140625 C 118.636719 165.699219 118.625 171.828125 116.316406 177.363281 M 162.429688 128.328125 C 147.742188 128.289062 135.851562 116.378906 135.84375 101.691406 C 135.859375 87.007812 147.746094 75.097656 162.429688 75.058594 C 177.117188 75.09375 189.007812 87.003906 189.023438 101.691406 C 189.011719 116.382812 177.117188 128.292969 162.429688 128.328125 M 142.507812 101.648438 C 142.496094 90.613281 151.433594 81.652344 162.46875 81.636719 C 173.484375 81.636719 182.445312 90.597656 182.445312 101.648438 C 182.449219 112.6875 173.507812 121.644531 162.46875 121.652344 C 151.433594 121.636719 142.5 112.683594 142.503906 101.648438 Z M 142.507812 101.648438 "/>
</g>
</svg>
